<?xml version="1.0" encoding="UTF-8" ?>
<!DOCTYPE svg PUBLIC "-//W3C//DTD SVG 1.1//EN" "http://www.w3.org/Graphics/SVG/1.1/DTD/svg11.dtd">
<svg width="630pt" height="630pt" viewBox="0 0 630 630" version="1.1" xmlns="http://www.w3.org/2000/svg">
<path fill="#000000" d=" M 0.00 0.00 L 630.00 0.00 L 630.00 630.00 L 0.00 630.00 L 0.00 0.00 Z" />
<path fill="#ffffff" d=" M 193.15 55.19 C 235.69 36.45 282.65 28.81 328.97 30.17 C 363.14 32.15 397.12 39.24 428.88 52.11 C 423.96 55.71 419.46 59.84 414.68 63.61 C 415.25 64.09 415.82 64.57 416.40 65.05 C 417.18 65.71 417.97 66.37 418.77 67.03 C 426.11 61.07 435.27 58.14 443.73 54.18 C 446.01 56.32 448.31 58.45 450.63 60.57 C 447.55 59.37 444.41 57.18 440.95 57.95 C 436.87 58.78 433.14 60.74 429.43 62.55 C 436.52 62.17 443.58 61.46 450.63 60.57 L 451.50 60.47 C 442.44 63.09 433.08 64.38 423.96 66.71 C 423.96 68.13 423.97 69.54 423.99 70.95 C 434.12 65.33 446.21 67.67 456.87 63.97 C 460.86 67.96 466.20 70.99 472.03 70.70 C 480.39 70.79 488.62 72.34 496.24 75.88 C 487.69 74.34 479.22 71.55 470.43 72.47 C 457.71 73.52 444.90 74.50 432.44 77.37 C 437.03 78.32 441.74 78.95 446.44 78.73 C 461.75 77.91 477.03 76.57 492.36 76.23 C 488.18 77.01 483.99 77.70 479.81 78.39 C 512.76 100.67 542.44 128.39 564.04 161.97 C 588.62 198.60 604.41 241.12 609.01 285.03 C 617.04 347.42 601.45 411.99 568.07 465.07 C 533.53 520.18 479.90 562.87 418.69 584.74 C 390.48 595.23 360.54 600.68 330.55 602.43 C 288.51 605.31 246.06 598.07 206.66 583.43 C 210.84 579.97 214.68 573.36 220.96 574.96 C 235.05 577.95 249.79 574.07 263.51 579.37 C 257.48 582.39 251.03 584.44 244.74 586.86 C 248.83 588.22 253.01 589.80 257.42 589.21 C 262.63 587.08 267.23 583.66 272.50 581.68 C 285.68 579.89 298.79 583.42 312.00 582.76 C 336.16 582.17 360.54 582.18 384.31 577.24 C 406.38 571.84 429.43 567.40 448.97 555.15 C 461.43 549.86 474.90 546.64 486.51 539.44 C 498.01 531.90 510.23 524.81 519.30 514.27 C 527.51 504.85 537.57 496.87 543.72 485.81 C 554.24 468.17 564.71 450.48 574.54 432.45 C 578.11 424.17 579.30 415.11 581.83 406.52 C 588.34 387.37 592.67 367.43 594.32 347.27 C 593.66 335.53 592.92 323.80 591.95 312.09 C 591.53 306.54 588.33 301.79 585.27 297.34 C 581.62 301.09 578.20 305.06 574.61 308.86 C 569.76 303.83 565.74 298.03 562.89 291.64 C 567.06 295.84 570.57 300.64 574.35 305.20 C 578.10 301.66 581.72 297.97 585.69 294.66 C 583.24 273.16 574.59 253.20 568.21 232.72 C 561.46 218.29 557.25 202.73 548.93 189.03 C 542.28 177.88 536.32 166.34 529.91 155.05 C 519.90 141.34 510.54 126.62 496.61 116.44 C 488.85 111.74 482.10 105.59 474.55 100.64 C 463.06 96.73 451.23 93.91 439.32 91.58 C 434.19 90.95 429.98 88.02 425.72 85.40 C 420.63 82.38 414.56 81.90 409.16 79.63 C 402.08 75.56 393.98 80.29 386.47 77.88 C 394.22 70.29 405.95 71.34 415.65 74.04 C 413.28 75.37 410.90 76.64 408.55 77.97 C 413.08 79.52 417.75 80.49 422.38 81.72 C 427.45 83.06 430.99 87.49 436.10 88.79 C 446.14 91.16 456.33 92.95 466.26 95.80 C 455.81 88.99 444.45 82.29 431.49 82.45 C 425.64 72.30 415.08 64.16 403.35 62.55 C 393.95 62.31 383.74 61.61 375.21 66.38 C 371.56 61.72 366.37 57.76 359.99 59.42 C 366.68 56.63 372.93 52.92 379.46 49.80 C 370.99 47.48 364.47 54.78 357.49 58.08 C 353.99 58.74 350.39 57.32 346.93 57.16 C 315.30 51.47 282.58 51.01 250.97 57.05 C 229.61 61.44 207.95 65.76 188.12 75.16 C 178.71 79.89 171.24 87.97 160.99 91.08 C 148.86 96.12 136.63 101.85 126.95 110.95 C 116.03 121.39 103.18 129.82 93.86 141.88 C 75.22 159.58 64.99 183.64 54.61 206.63 C 48.16 224.20 41.55 241.85 38.15 260.31 C 33.58 278.13 32.63 296.86 35.32 315.06 C 36.09 321.20 35.74 327.68 38.55 333.38 C 42.20 340.79 43.41 348.99 44.99 357.00 C 47.88 371.74 53.98 385.55 58.22 399.91 C 60.24 407.35 63.81 414.21 66.64 421.35 C 73.89 441.22 85.15 459.24 95.30 477.70 C 105.16 493.95 116.86 509.19 130.76 522.20 C 143.98 532.87 158.69 541.56 173.81 549.25 C 181.19 553.01 189.06 555.85 197.35 556.69 C 184.21 556.87 171.08 557.20 157.96 557.78 C 155.03 558.03 152.47 556.39 150.07 554.97 C 107.02 527.03 70.94 488.03 47.95 442.02 C 31.04 408.84 21.23 372.15 18.81 335.01 C 15.29 294.30 22.66 253.15 37.13 215.11 C 65.08 143.81 122.76 85.16 193.15 55.19 Z" />
<path fill="#ffffff" d=" M 436.98 48.64 C 438.39 50.37 439.92 52.02 441.56 53.55 C 431.98 53.69 424.87 61.61 416.40 65.05 C 422.79 59.39 430.32 55.20 437.50 50.64 C 435.26 51.05 433.03 51.48 430.79 51.87 C 432.84 50.78 434.90 49.71 436.98 48.64 Z" />
<path fill="#ffffff" d=" M 207.88 69.86 C 249.53 56.30 294.20 51.35 337.69 57.26 C 344.27 58.18 350.99 58.77 357.28 61.04 C 354.22 61.51 351.17 62.05 348.14 62.68 C 348.77 64.19 349.40 65.70 350.02 67.21 C 348.00 66.25 346.01 65.22 344.00 64.25 C 344.69 67.23 345.43 70.22 346.50 73.10 C 349.51 71.80 352.82 71.60 356.03 72.15 C 354.01 73.72 351.81 75.05 349.44 76.02 C 355.37 79.26 360.63 83.56 366.74 86.49 C 373.90 89.93 378.19 96.77 384.02 101.78 C 391.54 104.47 399.54 105.63 407.43 106.82 C 407.57 106.14 407.86 104.79 408.01 104.11 C 402.02 101.02 395.36 99.55 389.37 96.51 C 385.34 93.37 384.14 87.93 382.51 83.32 C 386.73 84.91 390.19 87.80 393.40 90.88 C 392.88 92.68 392.37 94.49 391.87 96.29 C 396.22 97.42 401.05 97.33 404.67 100.43 C 412.84 106.02 422.98 108.63 429.64 116.31 C 434.57 122.08 439.12 128.17 444.07 133.92 C 449.68 141.03 458.85 143.66 467.09 146.39 C 463.81 143.17 460.58 139.92 457.20 136.82 C 451.18 131.66 448.02 124.07 442.65 118.34 C 436.41 113.09 429.58 108.31 421.81 105.63 C 426.90 105.70 432.63 104.52 436.94 108.10 C 444.87 112.70 452.95 117.03 461.38 120.67 C 456.09 116.26 451.26 111.10 444.95 108.11 C 439.40 105.05 433.03 104.10 427.32 101.47 C 439.38 101.68 450.56 107.67 459.09 115.92 C 463.66 118.71 464.18 124.53 468.21 127.78 C 479.05 137.87 489.01 149.23 495.12 162.88 C 501.75 179.74 510.53 196.17 512.39 214.48 C 517.56 215.11 523.26 214.23 527.97 217.01 C 537.22 225.83 537.99 239.78 536.76 251.72 C 536.62 255.82 534.34 259.14 531.47 261.77 C 534.97 250.59 537.27 237.99 532.05 226.99 C 530.37 223.87 528.99 220.12 525.87 218.17 C 520.92 216.79 515.67 217.07 510.60 216.56 C 510.03 211.93 509.59 207.30 508.93 202.70 C 508.49 212.96 505.42 222.73 502.72 232.54 C 506.42 233.12 510.15 233.82 513.83 234.59 C 509.02 240.08 501.80 242.54 496.57 247.55 C 492.91 251.61 490.23 256.41 487.83 261.28 C 493.10 258.22 497.82 253.90 504.04 252.85 C 505.20 266.05 515.29 275.88 519.08 288.25 C 525.61 286.80 532.09 285.11 538.74 284.27 C 532.22 287.57 524.98 289.14 517.85 290.42 C 512.95 278.35 505.01 267.70 501.40 255.09 C 489.74 263.74 477.07 270.92 465.11 279.14 C 456.58 285.18 449.82 293.50 440.75 298.81 C 434.80 302.32 430.70 308.08 426.26 313.22 C 417.59 324.57 408.94 335.94 400.50 347.46 C 393.52 357.83 387.01 368.53 379.81 378.76 C 372.67 391.71 364.84 404.49 360.65 418.80 C 357.73 428.45 352.54 437.12 348.15 446.12 C 341.99 460.90 337.81 476.44 333.97 491.96 C 332.24 502.17 328.63 512.09 328.56 522.54 C 333.44 509.37 333.79 495.01 338.77 481.86 C 342.96 470.89 346.60 459.71 350.93 448.79 C 357.22 435.66 362.38 422.02 367.57 408.43 C 372.38 398.59 379.31 389.95 384.17 380.13 C 393.66 363.35 403.37 346.59 415.68 331.68 C 424.90 320.93 432.46 308.58 443.81 299.83 C 461.27 286.25 478.68 272.24 498.69 262.54 C 504.34 270.65 508.39 279.74 510.55 289.39 C 511.63 292.56 512.63 296.74 516.38 297.67 C 523.11 298.46 529.15 295.00 535.60 293.84 C 531.99 298.20 527.27 301.38 523.06 305.09 C 503.48 325.10 491.01 350.44 478.03 374.90 C 470.89 389.54 462.59 403.64 456.73 418.88 C 446.17 438.63 441.57 460.72 435.99 482.22 C 440.78 479.90 445.44 476.86 451.01 476.94 C 454.31 476.69 456.75 479.29 458.93 481.39 C 455.04 480.63 451.18 479.16 447.20 479.23 C 442.37 480.87 438.69 484.82 433.91 486.43 C 424.01 487.12 413.31 485.99 404.49 491.54 C 396.38 498.21 386.79 503.48 381.52 513.01 C 371.64 505.50 358.06 503.09 346.32 507.34 C 336.99 512.75 331.72 522.53 325.36 530.82 C 324.91 519.42 328.12 508.44 330.19 497.35 C 319.09 500.49 307.01 502.16 295.91 498.04 C 284.09 492.49 275.81 481.06 272.23 468.71 C 268.41 456.44 266.29 442.79 270.29 430.30 C 275.41 419.49 286.96 413.99 297.38 409.52 C 320.38 402.86 344.36 399.17 366.42 389.49 C 369.25 388.15 372.02 386.54 374.17 384.24 C 383.14 371.69 389.39 357.31 399.50 345.54 C 405.44 337.77 412.02 330.45 416.98 321.98 C 421.45 314.62 426.97 307.95 433.38 302.21 C 421.08 308.13 408.93 316.56 394.71 316.24 C 388.31 316.17 387.47 325.16 381.55 326.26 C 366.90 329.36 352.09 333.30 336.99 331.22 C 338.87 332.39 340.75 333.57 342.58 334.83 C 331.33 336.86 320.64 341.67 309.03 341.63 C 303.03 342.47 296.26 340.36 290.73 343.62 C 275.19 351.67 258.95 359.82 247.94 373.90 C 242.80 380.40 236.13 385.64 232.17 393.06 C 224.77 408.20 217.03 423.76 215.61 440.83 C 214.73 453.90 218.42 466.63 220.72 479.36 C 222.09 490.46 230.30 498.77 236.58 507.40 C 244.26 518.69 257.45 523.71 269.08 529.84 C 292.18 539.29 317.19 543.26 341.99 544.81 C 360.29 544.91 379.62 543.93 396.14 535.25 C 406.18 530.27 417.09 527.33 426.95 521.97 C 438.05 516.28 449.13 509.94 457.59 500.59 C 470.63 486.63 484.77 473.72 497.25 459.25 C 501.51 455.18 505.90 451.09 508.82 445.89 C 521.33 423.96 532.81 401.23 539.94 376.91 C 547.56 353.42 552.91 328.80 551.94 303.97 C 552.23 282.62 546.30 261.84 541.84 241.14 C 539.96 231.64 536.48 222.59 533.74 213.33 C 529.31 195.97 520.63 180.19 512.73 164.24 C 507.50 155.42 500.50 147.81 494.38 139.63 C 487.71 132.63 480.65 126.00 473.63 119.37 C 468.66 114.37 461.00 111.68 458.38 104.66 C 466.30 109.36 472.61 116.24 480.02 121.61 C 486.99 123.90 494.51 125.15 500.68 129.37 C 507.64 133.45 513.35 139.24 518.12 145.71 C 517.40 146.28 516.70 146.84 515.99 147.41 C 511.14 145.12 505.90 142.93 500.45 143.69 C 513.78 153.73 532.61 160.47 537.38 178.11 C 531.77 174.96 525.94 171.97 519.51 170.96 C 523.96 174.40 528.79 177.31 533.18 180.84 C 538.52 184.85 542.35 190.39 546.52 195.53 C 550.93 200.89 553.36 207.50 555.73 213.94 C 553.64 212.50 551.74 210.81 550.12 208.87 C 545.97 203.82 540.45 200.17 535.01 196.66 C 542.25 207.49 550.60 217.61 556.79 229.14 C 558.45 232.67 560.35 236.61 559.08 240.59 C 551.82 233.27 547.34 222.66 537.55 218.22 C 539.25 227.21 547.94 232.14 551.95 239.92 C 555.47 247.22 558.48 254.78 561.86 262.16 C 565.91 271.01 567.79 280.63 570.18 290.02 C 568.97 289.93 567.78 289.83 566.59 289.74 C 562.96 279.09 556.85 269.49 548.87 261.58 C 549.38 268.94 552.06 275.77 555.65 282.15 C 560.81 291.47 559.51 304.30 569.14 310.86 C 571.60 314.98 575.14 311.49 577.80 309.79 C 580.69 307.35 584.32 306.45 587.88 305.43 C 592.87 328.11 591.08 351.49 587.87 374.29 C 587.59 387.35 581.23 399.18 578.34 411.71 C 575.14 423.58 569.70 434.66 564.98 445.97 C 560.14 459.09 549.25 468.66 543.12 481.07 C 540.57 485.74 538.58 490.87 534.68 494.66 C 527.49 501.84 520.56 509.26 513.96 516.98 C 500.08 529.26 484.71 540.79 466.60 545.91 C 456.12 551.32 444.45 553.58 433.01 555.98 C 430.54 556.67 428.29 555.14 426.09 554.30 C 431.30 552.24 437.45 550.67 440.56 545.53 C 442.31 542.00 439.32 540.08 437.52 537.91 C 438.35 535.27 439.22 532.63 440.04 529.98 C 434.21 535.30 427.75 539.88 420.35 542.75 C 422.89 537.37 424.68 531.65 425.14 525.69 C 417.51 533.24 409.23 540.12 400.89 546.86 C 393.65 552.92 384.39 555.42 375.71 558.63 C 377.67 554.39 379.59 550.13 381.17 545.73 C 365.49 554.06 348.90 562.56 330.59 562.01 C 334.80 558.34 339.45 555.06 342.65 550.41 C 326.38 553.56 310.11 560.71 293.28 556.91 C 286.16 556.49 280.12 552.74 273.93 549.69 C 282.41 549.41 290.37 546.21 297.28 541.48 C 285.24 541.59 271.56 543.48 261.43 535.48 C 270.80 538.03 280.43 539.15 290.09 539.88 C 280.60 536.64 271.22 533.10 262.15 528.83 C 255.98 525.17 248.95 527.12 242.30 527.75 C 247.60 531.61 254.54 532.31 259.53 536.69 C 250.15 535.21 240.97 531.54 234.31 524.58 C 240.95 525.20 247.60 525.35 254.27 524.98 C 236.94 517.57 222.12 505.24 210.36 490.64 C 208.15 487.31 206.85 483.50 205.49 479.79 C 210.34 482.42 214.87 485.68 220.04 487.68 C 216.69 481.60 212.17 476.19 209.37 469.83 C 205.55 455.39 201.47 439.77 207.47 425.26 C 208.74 427.09 209.87 429.03 210.94 430.99 C 210.70 415.33 212.31 397.60 224.24 386.08 C 224.58 391.23 224.50 396.44 225.34 401.54 C 227.74 395.62 229.08 389.31 231.56 383.42 C 239.37 369.77 249.16 356.45 263.13 348.60 C 261.16 353.19 258.80 357.60 256.82 362.19 C 263.67 351.31 275.55 344.64 287.37 340.40 C 293.60 339.42 299.70 337.75 305.67 335.69 C 314.64 333.51 323.95 332.90 332.78 330.05 C 346.28 326.31 360.43 324.89 373.51 319.73 C 378.79 317.79 384.52 316.99 389.58 314.51 C 392.05 311.40 394.25 308.07 396.34 304.69 C 390.61 304.91 384.96 306.03 379.44 307.52 C 361.85 312.11 343.76 314.86 325.62 315.94 C 307.02 318.59 288.35 320.92 270.01 325.04 C 257.77 326.88 246.10 331.84 233.66 332.31 C 235.95 328.84 237.93 324.98 240.94 322.12 C 267.23 313.41 294.32 307.09 321.57 302.27 C 326.62 300.87 331.40 298.57 336.60 297.65 C 339.92 296.87 343.57 297.49 346.62 295.67 C 356.60 290.25 367.29 284.73 373.33 274.71 C 372.03 279.66 368.98 283.84 366.78 288.40 C 379.11 281.54 388.13 270.31 395.62 258.62 C 399.99 251.46 401.58 243.12 404.70 235.43 C 405.59 240.53 405.34 245.72 405.49 250.87 C 417.90 239.74 419.31 221.59 419.02 206.02 C 420.11 207.98 421.29 209.91 422.58 211.75 C 426.97 199.95 425.89 187.40 422.85 175.48 C 422.04 165.32 414.61 157.84 410.18 149.20 C 415.19 151.46 419.72 154.62 424.53 157.27 C 421.58 144.81 410.81 136.36 401.60 128.38 C 394.02 120.97 384.56 115.81 374.74 111.99 C 381.75 111.61 388.76 111.80 395.75 112.37 C 391.52 108.34 386.48 105.06 380.83 103.46 C 374.10 102.37 370.10 96.64 365.75 92.02 C 368.36 92.58 370.95 93.18 373.57 93.73 C 371.22 90.65 368.02 88.42 364.35 87.22 C 364.38 88.58 364.43 89.94 364.49 91.30 C 361.39 87.85 358.52 84.11 354.68 81.44 C 357.58 88.10 363.33 92.97 366.45 99.54 C 355.94 94.86 344.01 95.43 332.76 95.42 C 339.43 90.91 347.11 88.25 355.07 87.13 C 343.70 80.58 330.32 78.25 317.31 79.31 C 307.25 81.40 297.45 84.57 287.36 86.53 C 290.60 81.90 295.25 78.62 299.50 74.98 C 281.24 74.42 264.43 82.78 248.84 91.29 C 250.41 86.88 252.32 82.61 254.28 78.37 C 245.62 81.59 236.33 84.05 229.12 90.16 C 220.75 96.95 212.65 104.08 204.76 111.42 C 205.12 105.34 207.19 99.62 209.67 94.14 C 202.17 96.68 196.20 102.10 190.12 106.93 C 190.81 104.57 191.71 102.24 191.96 99.78 C 191.55 96.92 189.36 94.55 188.64 91.81 C 192.63 87.47 197.81 84.80 203.47 83.28 C 202.21 82.24 200.95 81.20 199.69 80.15 C 191.81 82.45 183.78 84.19 175.77 85.97 C 185.11 78.13 196.26 73.19 207.88 69.86 Z" />
<path fill="#000000" d=" M 440.95 57.95 C 444.41 57.18 447.55 59.37 450.63 60.57 C 443.58 61.46 436.52 62.17 429.43 62.55 C 433.14 60.74 436.87 58.78 440.95 57.95 Z" />
<path fill="#ffffff" d=" M 351.90 62.88 C 353.13 63.07 354.37 63.25 355.62 63.44 C 355.78 65.00 355.94 66.55 356.10 68.12 C 354.86 67.93 353.62 67.75 352.38 67.56 C 352.21 66.00 352.05 64.44 351.90 62.88 Z" />
<path fill="#ffffff" d=" M 357.40 66.67 C 368.62 66.14 380.33 67.66 390.49 72.66 C 379.48 70.60 368.36 68.98 357.40 66.67 Z" />
<path fill="#000000" d=" M 426.59 72.74 C 435.60 66.57 446.97 67.65 457.29 66.53 C 447.02 68.45 436.82 70.66 426.59 72.74 Z" />
<path fill="#ffffff" d=" M 394.58 67.24 C 401.46 67.37 408.61 67.97 414.53 71.81 C 407.71 71.22 401.06 69.37 394.58 67.24 Z" />
<path fill="#000000" d=" M 398.29 73.53 C 399.07 72.38 401.14 73.65 400.33 74.85 C 399.52 76.05 397.42 74.76 398.29 73.53 Z" />
<path fill="#000000" d=" M 401.99 72.95 C 404.77 73.54 407.53 74.08 410.34 74.65 C 407.59 75.24 404.82 75.73 402.08 76.23 C 402.05 75.41 402.01 73.77 401.99 72.95 Z" />
<path fill="#ffffff" d=" M 356.92 73.78 C 364.83 78.93 373.32 83.04 381.44 87.81 C 372.02 85.88 363.60 80.61 356.92 73.78 Z" />
<path fill="#000000" d=" M 390.30 76.33 C 392.73 75.61 395.27 75.61 397.70 76.33 C 395.23 76.45 392.76 76.45 390.30 76.33 Z" />
<path fill="#000000" d=" M 345.35 76.02 C 348.70 78.40 352.15 80.83 354.39 84.36 C 350.59 82.56 347.35 79.75 345.35 76.02 Z" />
<path fill="#ffffff" d=" M 251.71 92.85 C 263.36 84.36 277.46 79.91 291.43 77.01 C 287.17 81.88 284.64 90.51 276.78 90.28 C 268.38 90.68 260.05 91.84 251.71 92.85 Z" />
<path fill="#ffffff" d=" M 323.21 80.73 C 331.45 80.89 339.54 82.78 347.56 84.57 C 342.02 88.05 336.49 91.67 330.46 94.27 C 316.31 93.50 302.26 91.19 288.24 89.20 C 299.67 85.61 311.34 82.51 323.21 80.73 Z" />
<path fill="#ffffff" d=" M 211.75 108.31 C 222.59 97.78 233.95 86.45 249.05 82.61 C 248.28 86.31 247.44 89.99 246.70 93.70 C 234.89 98.18 223.87 104.63 211.75 108.31 Z" />
<path fill="#000000" d=" M 385.05 86.73 C 386.42 87.53 387.79 88.34 389.17 89.15 C 388.50 89.83 387.84 90.51 387.17 91.18 C 386.46 89.70 385.75 88.21 385.05 86.73 Z" />
<path fill="#ffffff" d=" M 139.02 107.98 C 153.51 97.17 171.42 92.80 188.43 87.61 C 187.07 91.13 186.46 94.86 186.44 98.63 C 172.90 102.00 161.83 110.81 150.58 118.54 C 139.31 127.93 128.43 137.78 117.13 147.13 C 98.49 165.29 84.78 187.69 72.50 210.44 C 66.05 222.18 60.96 234.66 57.46 247.60 C 48.85 272.41 51.41 299.14 51.26 324.89 C 48.83 326.51 46.29 327.95 43.74 329.37 C 39.04 305.50 41.57 281.11 44.55 257.21 C 50.83 233.75 57.66 210.25 68.54 188.43 C 74.10 177.71 81.89 168.38 88.11 158.06 C 100.75 137.51 119.51 121.75 139.02 107.98 Z" />
<path fill="#ffffff" d=" M 393.40 90.88 C 395.52 90.59 397.78 90.20 399.80 91.16 C 408.16 94.84 416.06 99.48 424.50 103.00 C 417.01 104.04 411.41 98.86 405.42 95.52 C 401.69 93.31 397.50 92.14 393.40 90.88 Z" />
<path fill="#ffffff" d=" M 164.53 92.12 C 165.95 89.94 167.70 94.02 165.10 93.41 C 164.96 93.09 164.68 92.44 164.53 92.12 Z" />
<path fill="#ffffff" d=" M 241.25 98.34 C 266.53 90.74 293.76 90.73 319.63 95.47 C 335.61 99.29 352.36 101.93 366.80 110.23 C 371.10 112.63 375.43 114.99 379.79 117.27 C 389.85 122.99 396.18 133.04 402.94 142.05 C 407.60 148.43 409.31 156.17 410.46 163.82 C 412.80 174.43 415.07 185.24 414.42 196.17 C 413.17 212.51 405.80 227.41 398.82 241.95 C 394.83 250.14 388.30 256.59 382.25 263.24 C 369.73 277.75 352.69 287.60 335.13 294.76 C 326.90 295.63 318.47 294.58 310.36 296.40 C 302.94 298.20 295.57 300.22 288.03 301.41 C 288.07 301.99 288.16 303.13 288.21 303.70 C 289.86 304.40 291.52 305.09 293.18 305.79 C 282.42 304.93 271.61 305.41 261.11 308.02 C 255.25 309.78 247.25 308.54 243.45 314.38 C 241.37 316.69 239.72 320.34 236.28 320.71 C 221.88 320.50 208.99 328.21 196.93 335.16 C 200.32 331.48 203.81 327.89 206.90 323.95 C 215.87 311.05 227.36 300.09 235.64 286.68 C 243.81 275.76 248.09 261.68 259.18 253.22 C 277.43 243.48 298.33 240.11 318.46 236.53 C 333.61 235.25 347.51 226.57 356.77 214.76 C 363.51 200.29 363.09 183.17 357.78 168.29 C 355.07 158.60 349.17 149.96 341.65 143.35 C 329.56 134.30 313.46 135.55 299.81 139.77 C 301.83 128.69 304.99 117.73 304.76 106.36 C 299.24 113.85 293.96 121.74 286.78 127.80 C 279.70 132.62 270.25 131.94 262.20 130.55 C 256.96 130.11 252.71 127.07 248.84 123.84 C 245.14 128.43 241.63 133.30 236.78 136.76 C 231.70 140.31 227.41 145.04 221.65 147.51 C 213.22 150.67 204.10 149.89 195.33 150.86 C 190.93 152.76 187.26 156.08 182.74 157.79 C 178.77 158.62 175.28 156.74 171.90 155.12 C 171.93 155.90 172.01 157.47 172.05 158.25 C 175.63 158.97 179.25 159.96 182.93 159.82 C 186.94 159.07 190.36 156.61 194.04 154.99 C 188.67 176.22 183.81 197.93 173.57 217.45 C 165.84 236.63 155.65 254.69 146.03 272.95 C 137.82 290.03 128.18 306.47 116.23 321.22 C 110.83 330.25 101.44 335.41 94.40 342.90 C 100.65 342.00 106.54 339.32 112.91 339.14 C 118.83 340.06 118.56 347.88 120.81 352.07 C 122.71 360.35 126.96 367.74 132.00 374.46 C 148.80 364.91 165.07 354.30 179.97 341.97 C 196.01 330.72 207.13 314.31 219.14 299.16 C 230.95 283.76 240.28 266.69 249.74 249.80 C 254.98 241.19 260.92 232.91 264.46 223.38 C 274.78 196.29 287.71 170.10 294.85 141.89 C 297.29 132.77 297.24 122.83 301.45 114.24 C 301.22 128.12 296.14 141.35 293.71 154.91 C 289.02 170.73 284.92 187.02 276.42 201.35 C 269.58 214.23 267.06 229.00 259.40 241.52 C 250.84 258.38 239.66 273.65 229.50 289.54 C 217.96 304.88 207.22 321.01 193.83 334.82 C 186.53 340.50 178.65 345.47 172.11 352.11 C 158.63 363.46 142.58 371.23 128.68 382.05 C 125.01 369.33 116.95 358.59 112.14 346.34 C 105.03 347.74 98.02 349.72 91.28 352.38 C 98.03 352.59 104.48 350.56 110.93 348.93 C 115.15 361.04 124.91 371.00 125.99 384.18 C 131.70 381.96 136.79 378.53 142.18 375.67 C 140.10 379.68 138.14 383.84 135.21 387.33 C 130.02 393.81 121.27 395.92 116.20 402.52 C 120.50 403.22 124.83 403.75 129.15 404.28 C 126.68 415.90 124.96 427.66 124.16 439.54 C 121.50 433.49 121.29 426.85 120.65 420.39 C 114.94 419.29 108.09 421.24 102.93 418.08 C 92.88 406.26 93.38 389.13 98.58 375.24 C 95.98 377.73 93.31 380.58 93.51 384.56 C 92.49 393.78 91.88 403.92 96.58 412.33 C 98.59 415.46 100.02 419.69 103.95 420.93 C 108.71 422.00 113.63 421.96 118.48 422.30 C 119.07 436.01 123.93 448.99 129.68 461.29 C 135.50 477.84 144.78 493.32 157.79 505.21 C 162.82 509.35 166.09 514.93 169.93 520.05 C 178.62 528.73 190.07 535.26 202.63 535.51 C 195.04 532.52 186.65 531.00 180.01 526.00 C 176.08 522.91 172.08 519.90 168.45 516.46 C 176.81 520.30 185.30 523.93 192.97 529.07 C 197.38 532.27 203.07 531.36 208.18 531.38 C 200.25 528.53 193.08 523.80 186.90 518.11 C 182.87 513.38 179.72 507.99 175.83 503.16 C 171.63 498.84 166.87 495.09 162.70 490.73 C 169.44 492.64 176.19 495.08 181.99 499.07 C 190.29 506.49 195.90 516.40 203.85 524.14 C 210.42 529.18 218.08 532.52 225.04 536.98 C 228.71 539.45 233.22 539.57 237.40 540.54 C 235.51 547.22 241.94 551.78 247.43 553.69 C 246.53 548.99 244.80 544.20 241.17 540.92 C 234.99 536.73 226.20 537.13 221.32 530.91 C 227.50 530.02 233.65 532.13 239.69 533.17 C 242.20 533.78 245.12 533.99 247.06 535.92 C 252.70 541.24 257.12 548.26 264.45 551.45 C 270.37 553.82 275.17 558.09 280.60 561.31 C 278.32 562.31 276.18 563.58 274.08 564.89 C 277.23 565.51 280.50 565.37 283.40 563.90 C 284.43 566.79 285.15 569.75 285.95 572.73 C 283.95 571.76 281.98 570.73 279.97 569.78 C 280.58 571.26 281.20 572.73 281.84 574.21 C 280.40 574.55 278.96 574.88 277.53 575.23 C 277.62 573.30 277.68 571.38 277.73 569.46 C 276.39 569.27 275.06 569.10 273.72 568.94 C 274.29 571.01 274.92 573.08 275.57 575.15 C 271.20 576.04 266.80 577.53 262.32 577.19 C 259.28 575.74 257.10 573.06 254.82 570.67 C 247.69 574.05 239.73 574.51 231.99 574.62 C 217.79 575.98 206.26 565.54 198.12 555.12 C 185.39 554.26 174.19 547.90 163.66 541.27 C 173.42 543.74 183.37 545.40 193.13 547.88 C 198.79 549.26 202.69 554.28 208.44 555.41 C 212.87 556.41 217.27 557.59 221.55 559.14 C 219.23 560.21 216.90 561.27 214.57 562.31 C 224.04 566.19 235.79 566.72 243.53 559.12 C 237.50 557.54 231.39 559.27 225.34 559.08 C 217.57 556.69 209.42 554.77 202.44 550.45 C 193.67 543.97 182.09 544.93 172.14 541.61 C 167.35 539.77 162.28 538.92 157.41 537.37 C 148.47 532.70 141.53 525.12 132.89 519.96 C 119.02 509.47 109.10 494.87 99.33 480.73 C 89.50 461.34 76.83 443.31 69.41 422.76 C 67.06 416.27 63.85 410.13 61.58 403.61 C 56.00 383.45 45.75 364.31 45.07 343.06 C 47.32 338.49 52.14 335.49 55.65 331.78 C 59.44 336.36 62.96 341.20 67.15 345.45 C 65.03 338.66 60.07 333.31 55.32 328.20 C 51.75 332.00 48.35 335.94 44.71 339.67 C 41.93 335.58 39.05 331.28 38.40 326.26 C 37.11 314.92 36.53 303.51 35.84 292.12 C 35.90 277.90 38.65 263.85 42.20 250.14 C 42.98 247.34 44.24 244.70 45.78 242.24 C 45.47 247.93 43.32 253.28 42.51 258.89 C 40.32 283.12 36.00 307.91 42.12 331.91 C 48.25 331.02 52.42 326.15 57.91 323.88 C 64.44 327.93 68.94 334.57 69.93 342.24 C 72.22 353.84 80.39 363.40 81.14 375.41 C 73.14 367.50 67.04 357.90 63.42 347.25 C 62.18 347.16 60.94 347.07 59.71 346.99 C 62.17 360.88 67.33 373.96 73.48 386.57 C 76.69 395.00 81.22 402.97 87.62 409.39 C 90.27 411.87 91.61 415.30 92.38 418.78 C 82.71 413.99 78.11 403.84 70.92 396.41 C 69.55 400.90 71.95 405.28 73.92 409.18 C 80.93 420.61 88.04 432.28 97.80 441.61 C 87.98 438.05 82.12 429.04 74.31 422.73 C 77.02 434.42 84.75 443.75 92.59 452.42 C 97.89 457.77 104.56 461.45 110.49 466.04 C 104.06 465.03 98.23 462.04 92.62 458.88 C 97.30 476.58 116.47 482.82 129.34 493.37 C 123.86 494.03 118.45 492.65 114.02 489.45 C 113.32 490.07 112.63 490.69 111.93 491.31 C 116.15 496.97 120.70 502.51 126.85 506.19 C 133.13 511.12 141.13 512.66 148.61 514.79 C 156.76 519.91 163.14 527.64 171.69 532.28 C 168.58 525.99 161.74 522.86 156.90 518.10 C 150.10 511.57 143.24 505.10 136.61 498.41 C 127.57 487.13 117.31 476.32 112.31 462.49 C 101.85 444.29 96.13 423.96 90.22 403.95 C 85.89 383.43 79.98 363.13 78.35 342.13 C 78.17 329.60 77.21 316.95 79.37 304.54 C 85.60 263.95 101.04 225.14 121.98 189.96 C 125.39 183.56 131.72 179.70 135.99 174.00 C 142.05 166.43 149.66 160.31 156.08 153.08 C 167.88 142.23 177.48 128.52 192.03 121.05 C 207.47 111.46 225.16 106.63 241.25 98.34 Z" />
<path fill="#ffffff" d=" M 159.53 93.12 C 160.95 90.94 162.70 95.02 160.10 94.41 C 159.96 94.09 159.68 93.44 159.53 93.12 Z" />
<path fill="#ffffff" d=" M 153.14 95.90 C 155.02 95.61 154.69 98.41 153.03 98.27 C 151.13 98.53 151.48 95.80 153.14 95.90 Z" />
<path fill="#ffffff" d=" M 340.63 97.21 C 348.01 97.63 355.78 97.16 362.59 100.48 C 370.61 104.58 381.02 102.85 387.83 109.44 C 381.48 109.70 374.53 111.84 368.58 108.53 C 359.61 103.93 349.94 101.02 340.63 97.21 Z" />
<path fill="#ffffff" d=" M 178.93 121.95 C 186.99 113.57 194.82 104.73 204.80 98.54 C 203.88 103.07 203.89 107.91 202.10 112.20 C 196.35 117.43 188.71 119.94 182.60 124.70 C 177.89 128.39 173.57 132.54 168.88 136.25 C 171.46 131.00 175.02 126.29 178.93 121.95 Z" />
<path fill="#ffffff" d=" M 146.45 124.49 C 159.53 114.72 172.71 103.53 189.13 100.13 C 189.01 100.60 188.78 101.54 188.66 102.01 C 165.08 109.27 146.97 126.95 128.90 142.90 C 117.22 155.59 105.93 168.68 95.34 182.29 C 84.93 199.63 71.56 215.85 66.75 235.90 C 62.86 249.12 59.72 262.56 57.17 276.10 C 56.04 283.57 55.21 291.10 53.39 298.45 C 52.86 289.70 53.20 280.98 54.48 272.33 C 54.34 261.22 58.80 250.99 61.75 240.50 C 67.00 224.40 74.95 209.30 83.87 194.95 C 91.45 181.63 100.02 168.76 110.51 157.53 C 121.21 145.19 134.53 135.57 146.45 124.49 Z" />
<path fill="#ffffff" d=" M 164.90 115.88 C 172.08 111.08 179.95 107.44 187.83 103.94 C 188.08 105.58 188.34 107.22 188.61 108.86 C 179.52 118.16 169.55 127.35 164.91 139.83 C 163.63 139.46 162.35 139.09 161.06 138.73 C 161.23 134.37 161.47 130.00 161.68 125.64 C 155.20 131.55 149.67 138.38 144.35 145.33 C 138.45 153.35 136.44 163.93 128.53 170.48 C 128.81 166.32 129.12 162.17 129.34 158.02 C 117.72 168.70 111.14 183.55 106.54 198.37 C 104.99 208.18 105.14 218.70 99.55 227.36 C 99.13 218.72 99.16 210.06 100.27 201.48 C 96.43 203.56 93.85 207.30 92.33 211.31 C 88.41 221.84 87.51 233.13 86.49 244.21 C 86.34 249.74 82.20 253.88 79.55 258.42 C 79.49 255.67 79.38 250.19 79.32 247.45 C 71.89 258.32 71.26 271.94 68.24 284.34 C 67.04 289.02 63.48 292.79 63.09 297.72 C 61.79 306.08 60.31 314.40 59.16 322.78 C 53.44 309.25 56.72 294.14 58.51 280.10 C 62.22 260.64 66.45 241.13 73.56 222.60 C 83.81 202.42 96.41 183.36 111.22 166.21 C 120.12 156.15 128.29 145.31 138.78 136.79 C 147.46 129.79 155.37 121.77 164.90 115.88 Z" />
<path fill="#ffffff" d=" M 130.95 111.05 C 133.35 109.01 135.77 106.99 138.29 105.11 C 135.92 107.18 133.44 109.13 130.95 111.05 Z" />
<path fill="#000000" d=" M 410.13 106.31 C 415.82 115.42 417.96 125.95 421.53 135.92 C 420.72 136.27 419.92 136.62 419.13 136.97 C 417.34 126.38 411.23 117.02 410.13 106.31 Z" />
<path fill="#000000" d=" M 415.99 107.57 C 417.19 109.46 418.22 111.45 419.04 113.53 C 417.85 111.64 416.85 109.63 415.99 107.57 Z" />
<path fill="#000000" d=" M 420.78 111.59 C 425.90 116.27 429.53 122.29 433.11 128.17 C 428.27 123.24 423.73 117.89 420.78 111.59 Z" />
<path fill="#000000" d=" M 416.20 113.81 C 420.69 121.05 425.20 128.29 429.32 135.76 C 427.75 135.53 424.62 135.07 423.05 134.84 C 420.57 127.89 418.51 120.81 416.20 113.81 Z" />
<path fill="#000000" d=" M 420.67 116.81 C 426.55 122.12 430.94 128.84 435.04 135.56 C 427.85 131.64 424.05 123.91 420.67 116.81 Z" />
<path fill="#ffffff" d=" M 388.11 120.55 C 394.52 123.98 399.42 129.46 404.96 134.06 C 410.90 138.84 415.52 144.92 420.08 150.97 C 416.64 149.50 412.94 148.59 409.67 146.76 C 401.87 138.54 396.09 128.62 388.11 120.55 Z" />
<path fill="#ffffff" d=" M 275.71 133.70 C 284.23 133.48 290.46 127.52 296.19 122.00 C 294.41 136.93 290.79 151.72 284.70 165.50 C 281.46 173.75 279.75 182.59 275.56 190.47 C 268.80 203.92 264.69 218.53 257.85 231.94 C 247.15 249.91 236.66 268.00 226.03 286.02 C 218.12 298.19 208.26 308.90 199.37 320.34 C 195.65 324.91 192.14 329.76 187.46 333.42 C 169.95 346.99 152.46 360.85 132.91 371.44 C 125.64 363.71 123.42 353.14 120.31 343.34 C 136.31 335.26 150.57 323.78 161.85 309.85 C 171.30 298.63 182.99 289.31 190.64 276.64 C 203.43 257.24 215.94 237.42 224.86 215.90 C 231.18 203.34 238.19 190.93 241.21 177.05 C 246.40 161.62 249.77 145.65 251.07 129.41 C 258.91 132.38 267.32 133.90 275.71 133.70 Z" />
<path fill="#000000" d=" M 482.76 124.73 C 494.68 126.90 505.32 133.87 513.49 142.62 C 508.80 142.03 504.00 141.97 499.38 140.99 C 493.27 136.23 488.01 130.41 482.76 124.73 Z" />
<path fill="#000000" d=" M 434.68 125.95 C 437.18 128.60 439.70 131.27 442.21 133.93 C 440.82 133.93 439.44 133.92 438.07 133.90 C 436.85 131.29 435.72 128.64 434.68 125.95 Z" />
<path fill="#ffffff" d=" M 221.10 150.10 C 231.60 145.26 239.83 136.75 248.29 129.09 C 244.58 144.77 240.98 160.60 234.46 175.40 C 229.98 188.09 224.71 200.47 218.84 212.57 C 214.22 224.71 206.91 235.51 200.93 246.98 C 193.76 259.14 186.55 271.48 176.88 281.87 C 170.27 289.65 163.68 297.45 157.63 305.68 C 148.29 318.40 135.06 327.40 122.13 336.07 C 119.25 337.78 115.76 337.49 112.55 337.41 C 118.37 328.45 126.04 320.88 131.85 311.91 C 150.20 284.32 167.28 255.50 178.23 224.09 C 182.03 213.41 187.68 203.39 190.19 192.27 C 192.97 179.29 194.38 166.06 197.17 153.08 C 205.15 152.25 213.42 152.63 221.10 150.10 Z" />
<path fill="#ffffff" d=" M 142.40 152.36 C 146.73 144.97 152.85 138.89 157.95 132.05 C 158.45 136.18 160.53 139.71 162.46 143.26 C 154.04 153.25 143.99 161.81 134.86 171.16 C 136.77 164.68 139.11 158.29 142.40 152.36 Z" />
<path fill="#000000" d=" M 467.61 141.67 C 474.84 144.38 482.52 147.29 487.49 153.53 C 493.13 161.12 495.27 170.45 499.14 178.93 C 502.89 187.49 506.74 196.36 506.06 205.98 C 506.92 217.12 502.32 227.61 498.77 237.91 C 492.71 250.98 485.82 265.52 472.15 272.18 C 458.50 278.94 449.42 292.04 436.00 299.12 C 433.35 300.98 430.50 298.57 427.91 297.82 C 443.18 292.74 455.13 281.36 465.70 269.69 L 459.53 268.27 C 473.20 260.22 485.15 247.94 488.56 231.96 C 486.71 232.62 484.87 233.31 483.03 233.99 C 486.48 226.69 491.71 219.90 492.40 211.59 C 493.10 206.04 493.59 200.48 494.01 194.91 C 492.73 195.61 491.47 196.33 490.20 197.03 C 490.59 189.23 492.52 180.87 488.34 173.69 C 484.41 167.65 481.14 161.10 476.31 155.68 C 472.63 151.55 466.73 151.17 461.73 149.83 C 462.65 152.37 463.64 154.87 464.66 157.38 C 461.73 158.26 458.54 158.49 455.84 160.03 C 450.38 167.41 451.43 177.00 448.14 185.24 C 449.76 184.50 451.38 183.74 453.00 182.98 C 450.29 192.37 447.64 201.80 447.78 211.69 C 448.89 211.53 450.00 211.37 451.12 211.22 C 447.28 219.26 443.42 227.43 441.62 236.21 C 440.44 242.37 436.19 247.36 434.52 253.36 C 431.97 265.84 422.79 275.60 415.86 285.88 C 409.20 292.73 405.33 301.90 397.20 307.40 C 404.13 296.41 413.73 287.31 419.74 275.73 C 425.97 263.56 433.79 252.13 437.78 238.92 C 441.51 225.23 445.65 211.39 445.00 197.01 C 445.68 179.25 443.97 159.25 454.88 143.97 C 460.52 146.17 466.14 148.45 471.91 150.30 C 470.41 147.46 468.89 144.62 467.61 141.67 Z" />
<path fill="#ffffff" d=" M 242.19 164.36 C 242.92 159.34 243.92 154.33 245.77 149.58 C 245.39 154.68 243.91 159.58 242.19 164.36 Z" />
<path fill="#000000" d=" M 505.75 150.11 C 515.59 156.15 526.04 162.19 532.63 172.01 C 526.52 170.24 518.09 170.67 514.99 164.01 C 511.91 159.36 508.82 154.75 505.75 150.11 Z" />
<path fill="#ffffff" d=" M 73.08 174.44 C 76.68 166.33 81.56 158.66 88.20 152.71 C 85.09 161.09 79.58 168.38 73.08 174.44 Z" />
<path fill="#000000" d=" M 465.29 152.69 C 469.38 153.82 473.30 155.63 476.57 158.40 C 480.16 161.08 479.46 166.13 480.38 170.03 C 476.87 162.85 468.77 159.73 465.29 152.69 Z" />
<path fill="#ffffff" d=" M 412.01 156.66 C 415.01 161.29 418.38 165.92 419.48 171.44 C 421.65 182.25 425.28 193.40 421.97 204.40 C 419.53 198.84 416.20 193.33 416.56 187.04 C 416.29 176.74 413.20 166.84 412.01 156.66 Z" />
<path fill="#000000" d=" M 463.23 159.02 C 469.39 160.41 475.32 164.17 477.75 170.20 C 484.60 187.46 485.01 206.67 482.89 224.88 C 481.83 234.66 477.20 243.66 471.45 251.48 C 455.98 268.65 439.28 284.77 420.74 298.60 C 412.89 303.44 405.29 308.94 396.53 312.03 C 402.95 304.62 410.99 298.83 417.86 291.86 C 430.34 279.32 444.95 268.55 454.23 253.18 C 457.80 246.62 462.27 240.37 463.77 232.92 C 465.86 225.58 466.82 217.99 468.39 210.54 C 470.31 201.17 472.22 191.25 469.45 181.86 C 468.57 181.92 466.81 182.03 465.93 182.09 C 463.03 187.91 462.03 194.37 461.58 200.81 C 459.89 216.76 455.69 232.45 448.82 246.95 C 445.44 253.71 441.00 259.86 437.42 266.52 C 432.34 276.69 423.36 284.04 414.72 291.07 C 423.50 279.74 432.76 268.55 438.15 255.09 C 442.96 242.94 449.30 231.36 452.69 218.69 C 455.43 206.42 454.40 193.74 455.31 181.30 C 455.58 173.18 460.01 166.20 463.23 159.02 Z" />
<path fill="#000000" d=" M 453.17 173.68 C 453.59 168.28 455.73 162.76 460.82 160.17 C 458.62 164.85 456.53 169.68 453.17 173.68 Z" />
<path fill="#ffffff" d=" M 232.44 187.59 C 235.32 179.84 238.36 172.12 242.06 164.72 C 240.85 171.84 238.38 178.66 236.44 185.59 C 233.47 195.17 228.02 203.69 223.94 212.80 C 214.50 234.95 202.17 255.77 188.51 275.56 C 183.16 283.38 176.96 290.57 170.34 297.33 C 164.21 303.61 158.83 310.62 152.30 316.51 C 163.20 300.56 176.87 286.82 188.36 271.35 C 199.00 255.03 208.86 238.20 217.80 220.90 C 222.46 209.70 227.81 198.80 232.44 187.59 Z" />
<path fill="#ffffff" d=" M 106.15 213.50 C 106.95 195.87 116.38 180.63 124.70 165.67 C 125.98 169.77 127.24 173.88 128.60 177.96 C 118.58 188.13 113.84 201.78 106.15 213.50 Z" />
<path fill="#ffffff" d=" M 131.08 170.51 C 133.05 171.12 130.96 174.38 129.43 173.27 C 128.52 172.18 129.78 170.42 131.08 170.51 Z" />
<path fill="#000000" d=" M 484.02 171.91 C 490.84 178.74 490.46 190.11 486.58 198.41 C 485.43 192.16 484.55 185.87 483.16 179.68 C 482.44 177.06 483.31 174.42 484.02 171.91 Z" />
<path fill="#000000" d=" M 453.30 175.00 C 455.15 175.08 454.59 179.00 452.74 178.46 C 451.74 177.57 452.14 175.58 453.30 175.00 Z" />
<path fill="#ffffff" d=" M 72.32 175.43 C 75.03 175.07 72.65 179.84 70.79 178.56 C 70.05 177.39 71.27 175.93 72.32 175.43 Z" />
<path fill="#000000" d=" M 520.55 174.40 C 531.90 181.22 541.32 190.97 548.42 202.10 C 541.99 198.64 535.60 195.08 529.08 191.82 C 525.23 186.63 523.89 179.93 520.55 174.40 Z" />
<path fill="#ffffff" d=" M 189.28 181.91 C 191.19 182.10 190.29 185.90 188.48 185.24 C 187.48 184.32 188.07 182.35 189.28 181.91 Z" />
<path fill="#ffffff" d=" M 182.50 205.58 C 183.93 199.06 185.98 192.66 188.68 186.55 C 187.81 193.19 186.28 199.94 182.50 205.58 Z" />
<path fill="#ffffff" d=" M 64.14 191.11 C 65.44 191.78 65.43 192.46 64.11 193.14 C 62.81 192.47 62.82 191.79 64.14 191.11 Z" />
<path fill="#000000" d=" M 452.42 193.45 C 452.43 198.61 453.46 204.23 450.42 208.79 C 450.55 203.61 451.22 198.50 452.42 193.45 Z" />
<path fill="#ffffff" d=" M 417.23 199.83 C 418.61 199.08 419.81 201.48 418.62 202.33 C 417.20 203.11 415.99 200.68 417.23 199.83 Z" />
<path fill="#000000" d=" M 532.19 198.59 C 541.52 208.09 549.24 219.26 555.01 231.27 C 549.27 225.13 544.07 218.00 536.05 214.70 C 534.71 209.34 533.42 203.97 532.19 198.59 Z" />
<path fill="#000000" d=" M 486.10 201.22 C 487.86 200.89 489.62 200.55 491.38 200.19 C 490.94 208.22 490.52 216.78 485.72 223.60 C 485.84 216.14 485.99 208.67 486.10 201.22 Z" />
<path fill="#ffffff" d=" M 53.41 217.50 C 54.97 212.77 56.49 207.98 58.75 203.52 C 58.04 208.52 56.12 213.26 53.41 217.50 Z" />
<path fill="#ffffff" d=" M 409.33 224.34 C 411.79 217.50 414.30 210.68 416.55 203.76 C 417.88 218.14 415.70 233.37 407.69 245.64 C 407.56 238.53 406.66 231.11 409.33 224.34 Z" />
<path fill="#ffffff" d=" M 171.10 229.24 C 174.23 221.15 177.55 213.06 182.18 205.69 C 181.14 212.07 177.95 217.77 175.82 223.81 C 168.64 245.73 157.42 266.02 145.79 285.84 C 134.91 302.58 125.36 320.78 110.26 334.20 C 116.92 322.51 126.53 312.84 133.12 301.10 C 146.73 277.67 159.14 253.55 171.10 229.24 Z" />
<path fill="#ffffff" d=" M 89.36 253.47 C 87.90 237.53 89.95 221.32 96.52 206.66 C 96.65 215.21 98.04 223.76 97.79 232.30 C 95.67 239.59 92.29 246.47 89.36 253.47 Z" />
<path fill="#ffffff" d=" M 52.19 219.50 C 53.70 219.39 53.63 221.89 52.20 221.90 C 50.69 221.98 50.81 219.56 52.19 219.50 Z" />
<path fill="#ffffff" d=" M 46.10 238.77 C 46.78 233.75 48.72 229.04 50.95 224.54 C 51.20 229.73 49.79 235.01 46.10 238.77 Z" />
<path fill="#000000" d=" M 443.23 235.57 C 444.23 232.80 445.54 230.15 447.17 227.71 C 446.19 230.48 444.87 233.13 443.23 235.57 Z" />
<path fill="#000000" d=" M 542.22 230.37 C 550.24 239.10 554.28 250.35 558.97 261.03 C 561.86 267.53 563.94 274.34 565.99 281.15 C 561.95 274.62 557.74 268.15 552.39 262.60 C 544.44 253.99 543.95 241.38 542.22 230.37 Z" />
<path fill="#000000" d=" M 478.12 245.09 C 479.93 241.89 482.00 238.80 484.72 236.30 C 481.18 245.76 475.16 254.31 467.11 260.46 C 470.66 255.25 474.97 250.57 478.12 245.09 Z" />
<path fill="#ffffff" d=" M 384.82 263.81 C 389.39 258.90 393.53 253.60 398.21 248.78 C 392.60 260.46 384.99 271.61 374.44 279.36 C 375.89 273.08 380.77 268.53 384.82 263.81 Z" />
<path fill="#ffffff" d=" M 78.67 266.12 C 80.83 260.89 83.33 255.67 87.30 251.55 C 86.38 257.36 82.38 261.84 78.67 266.12 Z" />
<path fill="#ffffff" d=" M 82.33 272.81 C 80.65 266.88 84.79 262.49 87.98 258.24 C 87.22 263.47 84.64 268.13 82.33 272.81 Z" />
<path fill="#ffffff" d=" M 71.21 284.95 C 69.99 276.20 74.04 268.04 75.81 259.68 C 76.82 265.39 79.56 270.50 81.83 275.76 C 82.83 280.32 80.97 284.72 80.31 289.17 C 78.85 296.00 78.09 302.99 76.20 309.74 C 73.27 301.80 71.35 293.44 71.21 284.95 Z" />
<path fill="#000000" d=" M 445.96 300.94 C 462.12 288.21 478.59 275.74 496.50 265.52 C 504.70 272.64 506.39 283.85 509.69 293.66 C 494.36 301.46 480.45 312.24 469.55 325.58 C 462.35 334.01 454.29 341.65 446.99 349.99 C 435.46 364.63 426.20 380.86 416.88 396.95 C 409.67 408.63 405.67 421.91 398.74 433.75 C 391.88 445.68 389.23 459.27 385.13 472.25 C 381.50 483.70 380.27 495.71 378.93 507.59 C 371.09 504.62 362.68 503.10 354.29 503.30 C 345.77 503.52 339.54 509.48 333.81 515.00 C 335.44 501.24 338.66 487.62 343.90 474.78 C 348.13 465.63 349.69 455.46 354.44 446.53 C 362.84 429.91 367.05 411.29 377.70 395.80 C 386.17 380.98 395.06 366.40 403.57 351.60 C 409.59 342.46 416.42 333.88 423.53 325.56 C 430.73 317.14 436.62 307.27 445.96 300.94 Z" />
<path fill="#000000" d=" M 456.29 270.22 C 458.19 270.54 460.09 270.85 462.01 271.16 C 452.63 280.01 442.96 289.01 430.92 294.10 C 439.50 286.27 449.08 279.46 456.29 270.22 Z" />
<path fill="#000000" d=" M 553.43 281.47 C 559.48 297.77 563.11 314.90 564.97 332.16 C 561.73 327.76 557.91 323.79 554.89 319.25 C 552.74 306.75 553.78 294.07 553.43 281.47 Z" />
<path fill="#ffffff" d=" M 361.14 283.11 C 362.44 283.78 362.43 284.46 361.11 285.14 C 359.81 284.47 359.82 283.79 361.14 283.11 Z" />
<path fill="#ffffff" d=" M 358.14 285.13 C 359.65 285.57 358.58 287.84 357.25 287.26 C 355.73 286.81 356.83 284.61 358.14 285.13 Z" />
<path fill="#ffffff" d=" M 342.51 294.78 C 346.01 292.28 349.65 289.94 353.59 288.18 C 350.25 290.93 346.39 292.92 342.51 294.78 Z" />
<path fill="#ffffff" d=" M 68.54 289.32 C 70.22 293.88 70.57 298.93 66.13 301.90 C 66.65 297.65 67.40 293.43 68.54 289.32 Z" />
<path fill="#000000" d=" M 411.24 292.24 C 413.06 291.50 413.63 294.50 411.92 294.92 C 410.09 295.64 409.57 292.69 411.24 292.24 Z" />
<path fill="#000000" d=" M 482.10 315.14 C 491.07 307.68 500.39 300.30 511.38 296.05 C 499.70 303.45 488.78 311.91 477.80 320.30 C 479.12 318.49 480.39 316.61 482.10 315.14 Z" />
<path fill="#ffffff" d=" M 294.52 304.10 C 304.93 297.83 317.60 296.83 329.46 297.37 C 318.06 300.54 306.35 303.29 294.52 304.10 Z" />
<path fill="#000000" d=" M 519.73 302.78 C 522.05 300.18 525.31 298.88 528.66 298.19 C 525.94 300.19 522.95 301.78 519.73 302.78 Z" />
<path fill="#000000" d=" M 401.78 313.21 C 409.48 307.82 417.97 303.74 425.87 298.67 C 426.97 299.57 428.08 300.47 429.20 301.38 C 420.68 306.55 411.58 311.11 401.78 313.21 Z" />
<path fill="#000000" d=" M 507.87 300.93 C 510.75 299.22 514.24 299.50 517.45 299.59 C 511.62 308.55 503.96 316.12 498.15 325.09 C 480.26 352.05 463.46 380.12 452.59 410.73 C 449.46 419.32 445.59 427.63 442.32 436.17 C 437.30 451.69 436.43 468.12 432.81 483.97 C 422.24 484.71 410.71 484.14 401.78 490.76 C 394.77 496.09 388.01 501.76 381.71 507.91 C 385.46 491.68 389.41 475.41 396.13 460.12 C 399.95 447.75 405.77 436.16 411.16 424.43 C 413.74 418.15 416.51 411.93 420.10 406.15 C 430.24 388.10 439.86 369.34 454.05 354.04 C 460.32 346.60 466.61 339.18 472.37 331.32 C 481.70 318.60 494.93 309.60 507.87 300.93 Z" />
<path fill="#ffffff" d=" M 70.46 300.14 C 72.45 304.42 73.47 309.05 74.63 313.61 C 72.76 311.48 70.56 309.44 69.65 306.68 C 69.46 304.47 70.15 302.30 70.46 300.14 Z" />
<path fill="#000000" d=" M 490.85 340.83 C 499.07 327.24 507.71 313.34 519.73 302.78 C 512.27 315.38 502.21 326.22 495.06 339.03 C 482.29 361.27 470.68 384.16 459.20 407.08 C 455.90 415.37 452.61 423.74 447.82 431.31 C 448.81 425.18 451.80 419.69 453.91 413.93 C 462.57 387.91 476.15 363.86 490.85 340.83 Z" />
<path fill="#ffffff" d=" M 65.10 304.80 C 68.35 309.23 71.54 313.77 75.62 317.49 C 76.71 330.15 76.45 342.85 76.57 355.53 C 70.50 339.22 66.89 322.08 65.10 304.80 Z" />
<path fill="#ffffff" d=" M 247.71 312.74 C 260.51 310.43 273.24 307.25 286.33 307.03 C 276.45 309.59 266.54 311.97 256.76 314.86 C 253.55 316.05 250.57 313.86 247.71 312.74 Z" />
<path fill="#000000" d=" M 578.41 311.78 C 580.97 310.27 583.57 308.83 586.31 307.65 C 590.80 331.77 588.61 356.46 585.28 380.58 C 577.86 406.82 570.72 433.82 556.27 457.25 C 545.84 472.09 537.14 488.32 524.35 501.35 C 514.18 511.64 502.73 520.56 491.05 529.05 C 482.01 536.10 471.07 540.14 460.22 543.46 C 454.17 545.87 447.94 547.78 441.63 549.36 C 442.92 545.85 443.53 542.15 443.56 538.42 C 455.38 535.82 464.95 528.22 474.83 521.75 C 485.46 514.62 494.15 505.07 504.24 497.24 C 520.28 484.88 532.10 468.08 543.39 451.50 C 551.90 436.41 561.25 421.63 567.34 405.32 C 571.24 394.35 574.86 383.18 577.15 371.75 C 579.59 351.87 579.38 331.74 578.41 311.78 Z" />
<path fill="#ffffff" d=" M 53.12 308.73 C 53.93 312.94 54.88 317.13 55.81 321.32 C 55.11 321.55 53.72 322.02 53.03 322.26 C 53.05 317.73 53.07 313.24 53.12 308.73 Z" />
<path fill="#000000" d=" M 566.06 310.07 C 568.26 314.92 568.09 320.51 567.00 325.63 C 566.10 320.49 565.65 315.28 566.06 310.07 Z" />
<path fill="#ffffff" d=" M 63.94 326.93 C 61.74 322.08 61.91 316.49 63.00 311.37 C 63.90 316.50 64.35 321.72 63.94 326.93 Z" />
<path fill="#ffffff" d=" M 242.94 319.33 C 243.93 317.75 244.93 316.18 245.93 314.61 C 247.73 315.20 249.53 315.82 251.32 316.44 C 248.56 317.49 245.76 318.44 242.94 319.33 Z" />
<path fill="#000000" d=" M 570.87 314.24 C 576.51 327.78 573.30 342.86 571.49 356.90 C 568.44 373.67 564.54 390.29 559.35 406.53 C 556.26 417.04 550.13 426.27 544.47 435.53 C 532.06 455.84 516.60 474.07 500.58 491.59 C 482.92 508.08 464.48 525.03 441.25 533.15 C 443.44 523.29 452.49 517.75 458.01 509.99 C 461.14 506.18 463.02 501.58 465.09 497.17 C 466.33 497.53 467.58 497.89 468.83 498.26 C 468.80 502.43 468.68 506.58 468.67 510.76 C 478.13 502.01 486.75 491.98 492.09 480.14 C 494.17 474.93 497.28 470.27 501.47 466.52 C 501.19 470.68 500.86 474.81 500.66 478.98 C 510.35 470.10 516.59 458.16 520.99 445.94 C 526.32 434.39 523.04 420.47 530.48 409.63 C 530.80 417.92 530.63 426.24 529.61 434.49 C 530.22 434.66 531.45 435.00 532.06 435.16 C 541.22 423.06 542.17 407.35 543.51 392.79 C 543.66 387.27 547.78 383.12 550.43 378.59 C 550.52 381.35 550.69 386.87 550.78 389.63 C 560.44 375.88 557.49 357.60 565.93 343.39 C 567.98 333.76 569.14 323.94 570.87 314.24 Z" />
<path fill="#000000" d=" M 574.15 315.68 C 574.86 315.45 576.28 314.98 576.99 314.75 C 576.92 319.25 576.90 323.77 576.83 328.28 C 575.92 324.07 574.98 319.89 574.15 315.68 Z" />
<path fill="#ffffff" d=" M 118.61 341.05 C 130.04 333.26 141.70 325.78 152.14 316.66 C 149.99 319.94 147.24 322.77 144.09 325.11 C 136.07 331.10 128.08 337.48 118.61 341.05 Z" />
<path fill="#000000" d=" M 378.68 320.56 C 381.44 319.51 384.23 318.55 387.06 317.67 C 386.06 319.24 385.06 320.81 384.07 322.39 C 382.26 321.79 380.47 321.18 378.68 320.56 Z" />
<path fill="#000000" d=" M 373.24 322.14 C 376.45 320.94 379.42 323.13 382.29 324.26 C 369.49 326.57 356.75 329.74 343.67 329.97 C 353.55 327.41 363.46 325.02 373.24 322.14 Z" />
<path fill="#000000" d=" M 450.55 349.57 C 459.74 340.02 468.13 329.63 477.81 320.57 C 466.82 336.44 453.11 350.16 441.64 365.65 C 431.00 381.97 421.14 398.80 412.20 416.10 C 408.62 424.50 404.86 432.82 401.10 441.14 C 396.42 451.40 393.13 462.25 387.93 472.28 C 389.02 466.00 391.34 460.03 392.84 453.85 C 395.36 444.28 400.54 435.75 404.80 426.91 C 416.75 399.38 431.92 373.12 450.55 349.57 Z" />
<path fill="#ffffff" d=" M 202.00 335.24 C 209.76 329.60 218.92 326.00 228.22 323.79 C 220.32 328.77 212.47 334.07 203.94 337.88 C 202.30 338.99 202.58 336.06 202.00 335.24 Z" />
<path fill="#000000" d=" M 555.12 323.59 C 556.84 325.80 559.30 327.63 560.40 330.29 C 560.55 332.50 559.86 334.66 559.55 336.84 C 557.58 332.60 556.39 328.06 555.12 323.59 Z" />
<path fill="#ffffff" d=" M 209.81 337.90 C 217.54 333.32 224.94 327.98 233.47 324.97 C 227.22 332.22 219.37 337.86 212.66 344.66 C 200.35 357.00 186.09 367.63 176.57 382.48 C 173.72 387.34 170.94 392.23 168.41 397.26 C 164.64 406.59 163.66 416.68 161.61 426.46 C 159.69 435.82 157.77 445.75 160.55 455.14 C 161.43 455.08 163.19 454.97 164.07 454.91 C 166.07 450.50 167.66 445.86 167.84 440.97 C 169.92 419.66 175.24 398.13 186.96 379.97 C 190.71 374.30 193.54 368.07 197.55 362.57 C 202.84 356.46 208.83 350.94 215.17 345.93 C 206.58 357.37 197.20 368.46 191.85 381.91 C 185.53 398.13 175.79 413.65 175.57 431.57 C 174.60 441.90 175.99 452.46 173.52 462.64 C 171.84 467.97 169.07 472.89 166.77 477.98 C 160.60 476.58 154.67 472.83 152.25 466.80 C 145.40 449.54 144.99 430.32 147.10 412.11 C 147.93 402.46 153.13 394.10 158.14 386.11 C 173.71 368.38 191.01 352.16 209.81 337.90 Z" />
<path fill="#000000" d=" M 553.78 326.48 C 556.46 334.75 558.63 343.30 558.81 352.05 C 560.01 360.80 555.96 368.96 554.19 377.32 C 553.67 369.72 546.77 363.80 548.06 356.03 C 550.19 346.22 551.64 336.28 553.78 326.48 Z" />
<path fill="#ffffff" d=" M 229.10 332.38 C 230.78 332.78 229.68 335.33 228.22 334.94 C 226.55 334.54 227.67 332.04 229.10 332.38 Z" />
<path fill="#000000" d=" M 300.58 339.79 C 311.89 336.31 323.66 333.77 335.48 332.89 C 325.13 339.24 312.41 339.98 300.58 339.79 Z" />
<path fill="#ffffff" d=" M 101.55 339.13 C 104.11 336.95 107.03 335.19 110.26 334.20 C 107.93 336.72 104.82 338.24 101.55 339.13 Z" />
<path fill="#ffffff" d=" M 194.00 337.88 C 196.65 336.01 199.50 338.42 202.09 339.18 C 186.82 344.26 174.86 355.63 164.30 367.31 L 170.47 368.73 C 156.79 376.78 144.84 389.06 141.44 405.04 C 143.29 404.37 145.13 403.69 146.97 403.01 C 143.51 410.31 138.28 417.09 137.60 425.41 C 136.88 430.94 136.42 436.52 135.99 442.09 C 137.26 441.38 138.53 440.67 139.80 439.97 C 139.34 447.97 137.43 456.68 142.05 463.91 C 146.48 469.61 148.37 477.19 154.16 481.83 C 157.92 485.53 163.44 485.86 168.27 487.17 C 167.35 484.63 166.35 482.12 165.34 479.62 C 168.23 478.71 171.47 478.52 174.16 476.97 C 179.62 469.58 178.57 460.00 181.86 451.75 C 180.26 452.49 178.66 453.25 177.07 454.02 C 179.45 444.58 181.73 435.07 182.36 425.32 C 181.20 425.48 180.04 425.64 178.88 425.80 C 182.07 419.22 184.70 412.38 187.77 405.75 C 185.21 421.37 183.44 437.14 184.01 453.00 C 184.57 466.73 183.51 481.54 175.12 493.03 C 169.48 490.83 163.86 488.55 158.09 486.69 C 159.59 489.54 161.10 492.38 162.39 495.33 C 156.84 493.28 151.21 491.05 146.48 487.44 C 141.76 483.86 139.20 478.39 136.82 473.14 C 131.86 460.97 126.37 448.46 126.98 435.01 C 126.51 424.14 129.53 413.63 131.01 402.97 C 132.59 393.97 138.62 386.77 142.77 378.87 C 146.72 370.94 155.17 366.92 162.27 362.25 C 173.68 355.21 182.06 344.13 194.00 337.88 Z" />
<path fill="#ffffff" d=" M 225.13 336.58 C 227.01 337.53 224.30 340.64 222.78 339.56 C 222.07 338.19 223.78 336.56 225.13 336.58 Z" />
<path fill="#000000" d=" M 561.40 347.64 C 559.74 343.04 559.45 337.96 563.97 335.08 C 563.54 339.34 562.58 343.52 561.40 347.64 Z" />
<path fill="#000000" d=" M 570.65 371.85 C 573.42 360.89 573.90 349.52 576.61 338.55 C 577.36 351.01 575.96 363.44 574.46 375.77 C 570.70 388.29 567.40 401.04 561.86 412.93 C 555.22 427.97 546.24 441.78 537.82 455.85 C 521.86 481.01 498.58 500.11 475.71 518.69 C 464.45 525.62 454.03 535.43 440.20 536.42 C 452.08 530.51 464.53 525.46 474.85 516.81 C 487.17 506.20 500.30 496.33 510.64 483.66 C 518.59 473.96 527.02 464.64 534.64 454.68 C 542.22 442.29 550.66 430.40 557.38 417.51 C 563.74 402.94 567.04 387.26 570.65 371.85 Z" />
<path fill="#ffffff" d=" M 218.10 342.11 C 219.84 341.47 220.11 344.22 218.56 344.54 C 216.83 345.21 216.53 342.41 218.10 342.11 Z" />
<path fill="#000000" d=" M 276.51 348.78 C 280.01 346.28 283.65 343.94 287.59 342.18 C 284.25 344.93 280.39 346.92 276.51 348.78 Z" />
<path fill="#ffffff" d=" M 167.99 365.84 C 177.37 356.98 187.04 347.99 199.09 342.90 C 190.50 350.73 180.92 357.54 173.71 366.78 C 171.81 366.45 169.90 366.14 167.99 365.84 Z" />
<path fill="#ffffff" d=" M 208.65 358.65 C 211.24 355.13 213.89 351.62 217.20 348.74 C 214.20 354.09 209.89 358.60 207.10 364.08 C 203.29 371.53 199.25 378.87 195.26 386.22 C 195.81 375.54 203.02 367.19 208.65 358.65 Z" />
<path fill="#000000" d=" M 272.13 349.95 C 275.48 349.42 272.16 354.22 271.31 351.08 C 271.52 350.80 271.92 350.23 272.13 349.95 Z" />
<path fill="#000000" d=" M 269.14 352.11 C 270.44 352.78 270.43 353.45 269.11 354.14 C 267.81 353.47 267.82 352.79 269.14 352.11 Z" />
<path fill="#ffffff" d=" M 64.07 355.74 C 68.01 362.35 72.22 368.84 77.60 374.41 C 85.55 382.94 85.89 395.50 87.89 406.40 C 84.43 402.05 80.63 397.84 78.49 392.63 C 73.06 380.61 67.08 368.67 64.07 355.74 Z" />
<path fill="#000000" d=" M 231.79 388.22 C 237.34 376.55 245.00 365.56 255.38 357.68 C 254.06 363.94 249.18 368.51 245.19 373.19 C 240.61 378.10 236.46 383.40 231.79 388.22 Z" />
<path fill="#000000" d=" M 541.97 378.76 C 542.80 373.56 545.36 368.90 547.67 364.24 C 548.15 369.81 545.85 374.95 541.97 378.76 Z" />
<path fill="#000000" d=" M 542.73 385.51 C 543.93 379.81 547.55 375.00 551.24 370.63 C 549.61 376.18 546.21 380.97 542.73 385.51 Z" />
<path fill="#ffffff" d=" M 145.27 400.70 C 148.52 391.03 155.30 383.23 163.13 376.92 C 159.96 381.08 156.43 384.98 153.48 389.31 C 150.99 393.27 148.82 397.54 145.27 400.70 Z" />
<path fill="#000000" d=" M 532.14 405.22 C 533.96 397.68 537.73 390.71 540.65 383.53 C 542.09 399.47 540.06 415.69 533.46 430.35 C 533.26 421.95 532.57 413.59 532.14 405.22 Z" />
<path fill="#ffffff" d=" M 187.90 397.96 C 189.56 395.54 191.21 393.12 192.88 390.73 C 192.26 394.16 191.53 397.61 190.82 401.04 C 189.84 400.01 188.87 398.98 187.90 397.96 Z" />
<path fill="#000000" d=" M 213.45 433.24 C 212.24 418.90 214.00 403.40 222.59 391.44 C 222.44 398.52 223.29 405.91 220.67 412.66 C 218.20 419.49 215.70 426.32 213.45 433.24 Z" />
<path fill="#ffffff" d=" M 183.08 409.41 C 184.00 406.62 185.19 403.93 186.71 401.43 C 185.81 404.22 184.64 406.92 183.08 409.41 Z" />
<path fill="#ffffff" d=" M 74.96 405.73 C 79.80 410.62 83.99 416.38 89.92 420.07 C 96.64 423.45 96.07 432.06 97.93 438.42 C 88.37 429.07 80.77 417.73 74.96 405.73 Z" />
<path fill="#ffffff" d=" M 138.63 436.84 C 139.09 428.83 139.28 420.13 144.53 413.57 C 144.28 420.95 144.01 428.33 143.83 435.72 C 142.09 436.08 140.36 436.45 138.63 436.84 Z" />
<path fill="#000000" d=" M 501.40 459.04 C 511.42 448.86 516.16 435.22 523.85 423.50 C 523.04 441.13 513.62 456.37 505.30 471.33 C 504.01 467.22 502.75 463.11 501.40 459.04 Z" />
<path fill="#ffffff" d=" M 177.49 443.54 C 177.57 438.38 176.66 432.82 179.52 428.20 C 180.12 433.44 178.89 438.55 177.49 443.54 Z" />
<path fill="#000000" d=" M 441.27 450.41 C 442.18 443.80 443.79 437.09 447.83 431.63 C 446.10 438.04 443.77 444.27 441.27 450.41 Z" />
<path fill="#000000" d=" M 208.03 432.60 C 210.47 438.15 213.80 443.66 213.44 449.96 C 213.70 460.26 216.82 470.15 217.96 480.35 C 210.49 471.73 209.28 460.29 207.37 449.57 C 205.84 443.93 206.96 438.19 208.03 432.60 Z" />
<path fill="#000000" d=" M 211.23 434.83 C 212.61 434.08 213.81 436.48 212.62 437.33 C 211.20 438.10 209.99 435.68 211.23 434.83 Z" />
<path fill="#ffffff" d=" M 81.80 434.90 C 88.10 438.47 94.45 441.95 100.92 445.19 C 104.78 450.37 106.11 457.09 109.43 462.63 C 98.32 455.53 88.62 446.25 81.80 434.90 Z" />
<path fill="#ffffff" d=" M 144.44 464.34 C 139.84 456.72 139.55 446.58 143.43 438.59 C 144.58 445.33 145.65 452.09 147.18 458.76 C 147.98 461.09 146.10 463.00 144.44 464.34 Z" />
<path fill="#000000" d=" M 441.20 451.80 C 443.10 452.03 442.04 455.73 440.31 455.08 C 439.28 454.15 439.90 452.14 441.20 451.80 Z" />
<path fill="#ffffff" d=" M 176.25 458.71 C 178.45 457.45 178.23 462.44 176.22 461.94 C 175.26 461.16 175.44 459.53 176.25 458.71 Z" />
<path fill="#000000" d=" M 500.08 463.51 C 502.05 464.12 499.95 467.37 498.43 466.27 C 497.51 465.18 498.78 463.42 500.08 463.51 Z" />
<path fill="#ffffff" d=" M 169.18 476.83 C 171.37 472.14 173.47 467.32 176.83 463.32 C 176.40 468.72 174.26 474.24 169.18 476.83 Z" />
<path fill="#ffffff" d=" M 97.38 464.99 C 103.48 466.76 111.91 466.33 115.01 472.99 C 118.07 477.62 121.18 482.24 124.25 486.87 C 114.26 481.05 103.99 474.78 97.38 464.99 Z" />
<path fill="#000000" d=" M 467.54 493.74 C 475.96 483.75 486.01 475.19 495.14 465.84 C 493.23 472.32 490.88 478.71 487.60 484.64 C 483.26 492.03 477.15 498.11 472.05 504.95 C 471.53 500.80 469.48 497.30 467.54 493.74 Z" />
<path fill="#ffffff" d=" M 149.62 466.97 C 153.12 474.15 161.23 477.26 164.71 484.31 C 160.62 483.18 156.69 481.36 153.43 478.60 C 149.84 475.93 150.53 470.85 149.62 466.97 Z" />
<path fill="#000000" d=" M 384.23 487.42 C 384.61 482.32 386.08 477.41 387.81 472.64 C 387.07 477.66 386.07 482.67 384.23 487.42 Z" />
<path fill="#000000" d=" M 209.93 485.99 C 213.39 487.33 216.89 488.55 220.29 490.04 C 227.81 498.27 233.82 507.75 241.13 516.17 C 229.34 507.74 218.18 498.00 209.93 485.99 Z" />
<path fill="#ffffff" d=" M 116.41 494.42 C 121.13 494.96 125.95 495.00 130.64 495.87 C 136.43 501.04 142.04 506.51 147.30 512.25 C 135.30 510.19 124.77 503.01 116.41 494.42 Z" />
<path fill="#ffffff" d=" M 208.47 501.08 C 209.27 500.73 210.07 500.38 210.87 500.03 C 212.66 510.61 218.76 519.98 219.87 530.69 C 214.18 521.58 212.04 511.05 208.47 501.08 Z" />
<path fill="#ffffff" d=" M 200.63 501.25 C 202.22 501.48 205.39 501.92 206.98 502.15 C 209.41 509.18 211.46 516.34 213.48 523.51 C 209.04 516.18 204.86 508.70 200.63 501.25 Z" />
<path fill="#000000" d=" M 445.05 514.01 C 450.88 510.08 455.34 504.46 461.33 500.74 C 456.23 510.65 448.06 518.48 440.25 526.25 C 435.71 530.86 430.62 534.92 425.21 538.46 C 426.12 533.93 426.10 529.08 427.90 524.80 C 432.92 520.23 439.41 517.71 445.05 514.01 Z" />
<path fill="#ffffff" d=" M 194.96 501.44 C 202.14 505.36 205.95 513.09 209.33 520.19 C 203.45 514.88 199.06 508.15 194.96 501.44 Z" />
<path fill="#ffffff" d=" M 187.79 503.07 C 189.17 503.07 190.55 503.08 191.93 503.10 C 193.15 505.71 194.28 508.36 195.32 511.05 C 192.79 508.38 190.30 505.73 187.79 503.07 Z" />
<path fill="#ffffff" d=" M 196.86 508.75 C 201.63 513.77 206.18 519.18 209.30 525.40 C 203.92 520.91 200.03 514.94 196.86 508.75 Z" />
<path fill="#ffffff" d=" M 210.96 523.47 C 212.14 525.36 213.14 527.36 214.01 529.43 C 212.81 527.54 211.77 525.55 210.96 523.47 Z" />
<path fill="#000000" d=" M 383.29 543.30 C 395.09 538.82 406.12 532.41 418.21 528.67 C 407.49 539.41 395.92 550.20 380.96 554.48 C 381.72 550.76 382.53 547.02 383.29 543.30 Z" />
<path fill="#000000" d=" M 205.50 533.99 C 212.69 533.04 218.22 537.77 223.98 541.05 C 227.95 543.41 232.35 544.90 236.43 547.07 C 225.19 545.41 215.97 537.90 205.50 533.99 Z" />
<path fill="#ffffff" d=" M 263.11 538.49 C 267.60 542.91 270.43 548.62 273.15 554.24 C 268.93 549.62 265.44 544.30 263.11 538.49 Z" />
<path fill="#000000" d=" M 299.54 542.73 C 313.68 543.49 327.74 545.80 341.76 547.80 C 330.33 551.39 318.66 554.49 306.79 556.27 C 298.55 556.11 290.46 554.21 282.44 552.43 C 287.98 548.95 293.51 545.33 299.54 542.73 Z" />
<path fill="#ffffff" d=" M 256.50 542.76 C 260.47 543.94 264.45 545.66 266.90 549.19 C 262.34 549.28 258.55 546.74 256.50 542.76 Z" />
<path fill="#000000" d=" M 360.15 546.22 C 366.24 545.91 372.23 544.72 378.28 544.15 C 366.66 552.72 352.55 557.06 338.58 559.96 C 341.59 555.91 344.05 551.30 347.95 548.02 C 351.73 546.33 356.11 546.58 360.15 546.22 Z" />
<path fill="#ffffff" d=" M 240.83 547.85 C 241.49 547.16 242.15 546.48 242.83 545.82 C 243.54 547.29 244.24 548.78 244.95 550.27 C 243.57 549.47 242.20 548.66 240.83 547.85 Z" />
<path fill="#000000" d=" M 248.56 549.19 C 257.99 551.12 266.40 556.39 273.09 563.21 C 267.53 560.52 262.70 556.55 257.09 553.94 C 254.15 552.55 251.25 551.04 248.56 549.19 Z" />
<path fill="#ffffff" d=" M 275.67 552.63 C 279.45 554.47 282.75 557.25 284.55 561.13 C 281.09 558.86 277.92 556.12 275.67 552.63 Z" />
<path fill="#ffffff" d=" M 175.99 559.02 C 183.14 558.79 190.49 557.41 197.48 559.58 C 177.60 562.98 156.26 567.06 136.60 560.42 C 149.69 558.68 162.88 560.24 175.99 559.02 Z" />
<path fill="#ffffff" d=" M 232.30 560.67 C 234.76 560.55 237.23 560.55 239.70 560.67 C 237.27 561.39 234.73 561.39 232.30 560.67 Z" />
<path fill="#ffffff" d=" M 167.57 565.83 C 178.92 565.01 190.09 561.45 201.50 562.03 C 190.71 564.95 178.65 570.48 167.57 565.83 Z" />
<path fill="#ffffff" d=" M 219.66 562.35 C 222.40 561.75 225.16 561.26 227.92 560.77 C 227.95 561.59 227.99 563.23 228.01 564.05 C 225.23 563.46 222.42 562.87 219.66 562.35 Z" />
<path fill="#ffffff" d=" M 229.54 562.27 C 230.41 561.12 232.38 562.58 231.46 563.73 C 230.58 564.86 228.62 563.40 229.54 562.27 Z" />
<path fill="#ffffff" d=" M 188.20 568.48 C 193.02 566.30 198.21 565.00 203.43 564.20 C 198.85 567.08 193.81 569.32 188.20 568.48 Z" />
<path fill="#000000" d=" M 239.69 564.25 C 250.58 566.54 261.62 568.04 272.49 570.46 C 261.27 570.80 249.75 569.61 239.69 564.25 Z" />
<path fill="#000000" d=" M 215.47 565.19 C 222.29 565.78 228.93 567.62 235.42 569.76 C 228.54 569.62 221.39 569.03 215.47 565.19 Z" />
<path fill="#ffffff" d=" M 184.84 571.42 C 192.23 571.26 199.44 569.38 205.98 565.96 C 206.01 567.40 206.03 568.85 206.05 570.31 C 199.34 571.95 192.51 573.10 185.64 573.87 C 185.44 573.26 185.04 572.03 184.84 571.42 Z" />
<path fill="#ffffff" d=" M 178.69 569.61 C 181.60 569.20 184.48 568.81 187.42 568.62 C 184.51 569.01 181.60 569.32 178.69 569.61 Z" />
<path fill="#ffffff" d=" M 191.39 581.03 C 197.99 576.99 205.41 574.48 211.80 570.06 C 212.29 570.69 213.26 571.96 213.74 572.59 C 205.93 574.39 199.92 583.31 191.39 581.03 Z" />
<path fill="#ffffff" d=" M 213.74 572.59 C 214.12 572.35 214.88 571.88 215.26 571.64 C 210.34 577.40 204.73 582.52 198.25 586.49 C 198.20 585.62 198.08 583.89 198.03 583.02 C 203.27 579.55 208.51 576.08 213.74 572.59 Z" />
<path fill="#ffffff" d=" M 189.14 574.94 C 192.90 574.78 196.66 574.64 200.42 574.53 C 197.08 576.12 193.68 577.58 190.31 579.10 C 189.92 577.70 189.53 576.32 189.14 574.94 Z" />
<path fill="#ffffff" d=" M 250.44 587.10 C 256.60 583.69 263.42 581.74 270.28 580.30 C 264.29 583.77 257.92 589.26 250.44 587.10 Z" />
</svg>
