<?xml version="1.0" encoding="UTF-8" standalone="no"?>
<!-- Created with Inkscape (http://www.inkscape.org/) -->

<svg
   xmlns:dc="http://purl.org/dc/elements/1.1/"
   xmlns:cc="http://creativecommons.org/ns#"
   xmlns:rdf="http://www.w3.org/1999/02/22-rdf-syntax-ns#"
   xmlns:svg="http://www.w3.org/2000/svg"
   xmlns="http://www.w3.org/2000/svg"
   xmlns:sodipodi="http://sodipodi.sourceforge.net/DTD/sodipodi-0.dtd"
   xmlns:inkscape="http://www.inkscape.org/namespaces/inkscape"
   width="789.71173"
   height="641.47101"
   id="svg2406"
   sodipodi:version="0.32"
   inkscape:version="0.48.4 r9939"
   version="1.0"
   sodipodi:docname="buses.svg"
   inkscape:output_extension="org.inkscape.output.svg.inkscape">
  <defs
     id="defs2408">
    <inkscape:perspective
       sodipodi:type="inkscape:persp3d"
       inkscape:vp_x="0 : 372.04724 : 1"
       inkscape:vp_y="0 : 1000 : 0"
       inkscape:vp_z="1052.3622 : 372.04724 : 1"
       inkscape:persp3d-origin="526.18109 : 248.03149 : 1"
       id="perspective2415" />
    <inkscape:perspective
       id="perspective2424"
       inkscape:persp3d-origin="372.04724 : 350.78739 : 1"
       inkscape:vp_z="744.09448 : 526.18109 : 1"
       inkscape:vp_y="0 : 1000 : 0"
       inkscape:vp_x="0 : 526.18109 : 1"
       sodipodi:type="inkscape:persp3d" />
    <inkscape:perspective
       id="perspective3161"
       inkscape:persp3d-origin="372.04724 : 350.78739 : 1"
       inkscape:vp_z="744.09448 : 526.18109 : 1"
       inkscape:vp_y="0 : 1000 : 0"
       inkscape:vp_x="0 : 526.18109 : 1"
       sodipodi:type="inkscape:persp3d" />
    <inkscape:perspective
       id="perspective3220"
       inkscape:persp3d-origin="372.04724 : 350.78739 : 1"
       inkscape:vp_z="744.09448 : 526.18109 : 1"
       inkscape:vp_y="0 : 1000 : 0"
       inkscape:vp_x="0 : 526.18109 : 1"
       sodipodi:type="inkscape:persp3d" />
    <inkscape:perspective
       id="perspective3183"
       inkscape:persp3d-origin="372.04724 : 350.78739 : 1"
       inkscape:vp_z="744.09448 : 526.18109 : 1"
       inkscape:vp_y="0 : 1000 : 0"
       inkscape:vp_x="0 : 526.18109 : 1"
       sodipodi:type="inkscape:persp3d" />
  </defs>
  <sodipodi:namedview
     inkscape:document-units="mm"
     pagecolor="#ffffff"
     bordercolor="#666666"
     borderopacity="1.0"
     inkscape:pageopacity="0.0"
     inkscape:pageshadow="2"
     inkscape:zoom="0.61399264"
     inkscape:cx="673.55965"
     inkscape:cy="463.79577"
     inkscape:current-layer="layer1"
     id="namedview2410"
     showgrid="false"
     inkscape:window-width="1280"
     inkscape:window-height="750"
     inkscape:window-x="-8"
     inkscape:window-y="-8"
     units="mm"
     inkscape:window-maximized="0" />
  <metadata
     id="metadata2412">
    <rdf:RDF>
      <cc:Work
         rdf:about="">
        <dc:format>image/svg+xml</dc:format>
        <dc:type
           rdf:resource="http://purl.org/dc/dcmitype/StillImage" />
      </cc:Work>
    </rdf:RDF>
  </metadata>
  <g
     inkscape:label="Layer 1"
     inkscape:groupmode="layer"
     id="layer1"
     transform="translate(-133.67404,-55.981517)">
    <path
       style="fill:#dc241f;fill-opacity:1;stroke:none;stroke-width:0;stroke-miterlimit:4;stroke-dasharray:none;stroke-opacity:1;fill-rule:evenodd"
       d="M 394.84375 0 C 217.70642 4.4464432e-014 74.125 143.61267 74.125 320.75 C 74.125 497.88733 217.70642 641.46875 394.84375 641.46875 C 571.98108 641.46875 715.59375 497.88733 715.59375 320.75 C 715.59375 143.61267 571.98108 -8.8871211e-014 394.84375 0 z M 394.84375 113.4375 C 509.33107 113.4375 602.15625 206.26268 602.15625 320.75 C 602.15625 435.23732 509.33107 528.03125 394.84375 528.03125 C 280.35643 528.03125 187.5625 435.23732 187.5625 320.75 C 187.5625 206.26268 280.35643 113.4375 394.84375 113.4375 z "
       transform="translate(133.67404,55.981517)"
       id="path2446" />
    <rect
       style="fill:#dc241f;fill-opacity:1;stroke:none;stroke-width:0;stroke-miterlimit:4;stroke-dasharray:none;stroke-opacity:1"
       id="rect3220"
       width="789.71173"
       height="130.73314"
       x="133.67404"
       y="311.35046" />
    <path
       style="fill:#ffffff;stroke:none"
       d="M 678.83075,374.55167 L 678.83075,374.55167 z M 483.56474,409.0793 C 488.65616,407.62229 492.15879,405.51059 496.26808,401.42063 C 499.41125,398.29225 500.20749,397.22982 501.74292,394.11558 C 504.80364,387.90764 504.78697,388.06844 504.95488,363.13938 L 505.10279,341.17794 L 498.36688,341.17794 L 491.63098,341.17794 L 491.62337,360.07054 C 491.61404,383.2836 491.38721,385.26853 488.17604,390.23684 C 485.54174,394.31259 481.24364,396.70122 475.8609,397.08082 C 470.65097,397.44824 465.81322,395.61397 462.61739,392.05944 C 460.71427,389.94271 460.10618,388.90535 458.89517,385.70968 C 458.10966,383.63685 458.07893,382.86985 457.96019,362.37217 L 457.83743,341.17794 L 451.14243,341.17794 L 444.44742,341.17794 L 444.44742,362.43432 C 444.44742,385.32155 444.54414,386.71123 446.49744,391.88932 C 447.84806,395.46977 449.85153,398.45257 453.0376,401.62638 C 457.23749,405.81011 461.98369,408.32251 468.23101,409.66902 C 471.86297,410.45183 479.84074,410.14502 483.56474,409.0793 z M 542.95446,409.62361 C 549.34367,408.31971 554.21056,404.84304 556.89936,399.66204 C 558.76799,396.06141 559.32956,393.52701 559.31835,388.7451 C 559.30697,383.8976 558.38109,380.46501 556.15657,377.02325 C 553.54029,372.97535 550.98013,371.08309 542.45878,366.89901 C 538.23912,364.8271 534.0822,362.6142 533.2212,361.98145 C 529.40179,359.1746 529.5776,354.47501 533.56985,352.6624 C 535.45802,351.80511 538.70029,351.69932 540.45718,352.43769 C 541.63254,352.93166 544.29292,355.56273 545.17155,357.10012 C 545.55452,357.77024 545.9353,357.63021 550.73384,355.05461 C 553.56698,353.53392 556.11571,352.14372 556.3977,351.96526 C 556.8089,351.70504 556.72188,351.26965 555.95814,349.76592 C 553.16286,344.2623 547.99662,340.95889 540.63545,339.96824 C 530.25846,338.57171 520.6369,343.86298 518.0467,352.39068 C 516.84169,356.3579 517.14653,361.21347 518.82591,364.80223 C 521.31023,370.11109 523.59045,372.04817 533.43723,377.21474 C 537.12569,379.15008 541.04477,381.42883 542.1463,382.27865 C 546.51499,385.64908 547.34532,391.03299 544.07147,394.76169 C 542.39422,396.67197 540.29595,397.54934 537.38012,397.55961 C 532.94984,397.5752 529.56144,395.67418 526.89061,391.67458 C 526.02602,390.37984 525.20482,389.3205 525.06576,389.3205 C 524.92669,389.3205 522.3568,390.70148 519.3549,392.38935 C 515.93465,394.31244 513.89377,395.68637 513.88852,396.06935 C 513.87489,397.0629 517.49625,401.91823 519.70187,403.86356 C 522.23973,406.10195 527.837,408.92418 531.14241,409.63205 C 534.52393,410.35624 539.38161,410.35276 542.95446,409.62361 z M 651.13138,409.62361 C 660.99708,407.61023 666.93392,400.71752 667.56473,390.54436 C 668.00378,383.4642 665.81178,377.57201 661.12433,373.23216 C 658.76134,371.04437 657.34376,370.18586 650.67697,366.90499 C 646.43461,364.81722 642.25912,362.59649 641.39812,361.97003 C 636.20758,358.19343 638.75393,351.9189 645.47711,351.9189 C 646.53452,351.9189 647.95517,352.15233 648.63409,352.43763 C 650.05836,353.03614 652.17288,355.07588 652.99251,356.64194 C 653.30305,357.23527 653.76292,357.66682 654.01445,357.60096 C 654.26597,357.53508 656.84842,356.20274 659.7532,354.64019 C 665.70334,351.43948 665.52745,351.75573 663.30001,348.26296 C 655.68915,336.32877 633.41311,337.20352 627.34523,349.67485 C 623.48637,357.60599 625.78852,366.89363 632.93458,372.22406 C 634.01988,373.03361 637.92747,375.28037 641.61812,377.21684 C 645.30877,379.15332 649.21565,381.4076 650.30008,382.22635 C 654.66611,385.52273 655.5225,391.0327 652.24839,394.76169 C 650.57114,396.67197 648.47287,397.54934 645.55704,397.55961 C 641.08546,397.57534 637.68825,395.64731 635.0101,391.57385 L 633.4117,389.14268 L 631.09093,390.42088 C 623.95179,394.35285 622.07479,395.5095 622.06638,395.98202 C 622.04853,396.98409 625.56339,401.77158 627.73523,403.70342 C 630.39702,406.07105 635.94149,408.90866 639.31933,409.63205 C 642.70085,410.35624 647.55853,410.35276 651.13138,409.62361 z M 417.65412,408.0133 C 421.72003,406.89868 424.26513,405.51834 426.91651,402.98985 C 429.45641,400.56766 430.67355,398.69863 431.75165,395.5651 C 435.00398,386.11202 430.51164,375.33178 422.10658,372.41991 C 421.20758,372.10845 420.24005,371.76939 419.95649,371.66643 C 419.64448,371.55313 420.29051,370.90816 421.59298,370.03263 C 424.17186,368.29908 426.22857,365.5392 427.05176,362.70753 C 427.89933,359.79199 427.5971,354.41101 426.41366,351.34632 C 425.23583,348.29619 421.98025,345.00522 418.64449,343.49272 C 414.18719,341.47168 411.59775,341.17794 398.23907,341.17794 L 386.1393,341.17794 L 386.1393,375.16251 L 386.1393,409.1471 L 400.42863,408.98266 C 413.44685,408.83283 414.97914,408.7466 417.65412,408.0133 z M 399.94913,388.21551 L 399.94913,379.15494 L 405.45045,379.15494 C 409.08942,379.15494 411.56263,379.33878 412.75626,379.69801 C 416.43408,380.80488 418.51079,383.34993 418.97769,387.32255 C 419.43772,391.23659 417.71759,394.33807 414.18357,395.96666 C 412.22594,396.8688 411.48992,396.97214 405.99091,397.11696 L 399.94913,397.27609 L 399.94913,388.21551 z M 399.94913,360.16644 L 399.94913,353.06973 L 404.26469,353.07814 C 408.94957,353.08729 410.84584,353.62663 412.48667,355.41666 C 415.02954,358.19075 414.54367,363.56081 411.56189,365.63775 C 409.75146,366.89879 408.03836,367.26315 403.91974,367.26315 L 399.94913,367.26315 L 399.94913,360.16644 z M 615.15214,402.74671 L 615.15214,396.41721 L 599.61609,396.41721 L 584.08004,396.41721 L 584.08004,387.78607 L 584.08004,379.15494 L 595.78004,379.15494 L 607.48001,379.15494 L 607.48001,373.01724 L 607.48001,366.87954 L 595.78004,366.87954 L 584.08004,366.87954 L 584.08004,359.97463 L 584.08004,353.06973 L 598.27348,353.06973 L 612.46689,353.06973 L 612.46689,347.12383 L 612.46689,341.17794 L 591.36856,341.17794 L 570.27023,341.17794 L 570.27023,375.12708 L 570.27023,409.07621 L 592.71119,409.07621 L 615.15214,409.07621 L 615.15214,402.74671 z"
       id="path3212"
       sodipodi:nodetypes="cccsscccccsssscccccsssccssssssssssssssssssssssssccsssssssssssssssscccsssccsssssssscccccccccsssccccccsscccccccccccccccccccccccccccc" />
  </g>
</svg>
