<?xml version="1.0" encoding="UTF-8" standalone="no"?>
<!-- Created with Inkscape (http://www.inkscape.org/) -->

<svg
   xmlns:dc="http://purl.org/dc/elements/1.1/"
   xmlns:cc="http://creativecommons.org/ns#"
   xmlns:rdf="http://www.w3.org/1999/02/22-rdf-syntax-ns#"
   xmlns:svg="http://www.w3.org/2000/svg"
   xmlns="http://www.w3.org/2000/svg"
   xmlns:sodipodi="http://sodipodi.sourceforge.net/DTD/sodipodi-0.dtd"
   xmlns:inkscape="http://www.inkscape.org/namespaces/inkscape"
   width="930.55811"
   height="766.71558"
   id="svg3061"
   version="1.1"
   inkscape:version="0.48.2 r9819"
   sodipodi:docname="AJAX.svg">
  <defs
     id="defs3063" />
  <sodipodi:namedview
     id="base"
     pagecolor="#ffffff"
     bordercolor="#666666"
     borderopacity="1.0"
     inkscape:pageopacity="0.0"
     inkscape:pageshadow="2"
     inkscape:zoom="0.35"
     inkscape:cx="-110.61224"
     inkscape:cy="400.5081"
     inkscape:document-units="px"
     inkscape:current-layer="layer1"
     showgrid="false"
     inkscape:window-width="1280"
     inkscape:window-height="1004"
     inkscape:window-x="-8"
     inkscape:window-y="-8"
     inkscape:window-maximized="1"
     fit-margin-top="0"
     fit-margin-left="0"
     fit-margin-right="0"
     fit-margin-bottom="0" />
  <metadata
     id="metadata3066">
    <rdf:RDF>
      <cc:Work
         rdf:about="">
        <dc:format>image/svg+xml</dc:format>
        <dc:type
           rdf:resource="http://purl.org/dc/dcmitype/StillImage" />
        <dc:title />
      </cc:Work>
    </rdf:RDF>
  </metadata>
  <g
     inkscape:label="Layer 1"
     inkscape:groupmode="layer"
     id="layer1"
     transform="translate(-39.897953,-166.15474)">
    <polygon
       transform="matrix(14.717965,0,0,14.924488,-2002.6172,79.428534)"
       points="192.214,41.049 191.931,40.972 191.936,40.954 "
       id="polygon9" />
    <polygon
       transform="matrix(14.717965,0,0,14.924488,-2002.6172,79.428534)"
       points="192.203,41.077 191.934,40.962 192.211,41.059 "
       id="polygon11" />
    <rect
       style="fill:none"
       x="2.9853613"
       y="438.82507"
       width="1005.4579"
       height="220.73318"
       id="rect17" />
    <path
       style="fill:none;stroke:none"
       inkscape:connector-curvature="0"
       d="m 921.91623,549.50511 c 0,233.38913 -186.57965,422.6016 -416.73919,422.6016 -230.15955,0 -416.768651,-189.21247 -416.768651,-422.6016 0,-233.40405 186.609101,-422.60178 416.768651,-422.60178 230.15954,0 416.73919,189.1828 416.73919,422.60178"
       id="path19" />
    <path
       style="fill:#009ee0;stroke:none"
       inkscape:connector-curvature="0"
       d="m 749.9368,549.50511 c 0,136.58892 -109.33976,247.38831 -244.0533,247.38831 -134.71355,0 -243.95028,-110.79939 -243.95028,-247.38831 0,-136.5889 109.23673,-247.3883 243.95028,-247.3883 134.71354,0 244.0533,110.78447 244.0533,247.3883 M 505.8835,166.15474 c -208.8185,0 -378.0751,171.60175 -378.0751,383.35037 0,211.74864 169.2566,383.36519 378.0751,383.36519 208.80378,0 378.0751,-171.61655 378.0751,-383.36519 0,-211.74862 -169.28605,-383.35037 -378.0751,-383.35037"
       id="path21" />
    <rect
       style="fill:#00275b;stroke:none"
       x="39.897953"
       y="472.06171"
       width="930.55811"
       height="155.09528"
       id="rect23" />
    <path
       style="fill:#ffffff;stroke:none"
       inkscape:connector-curvature="0"
       d="m 270.49907,583.33893 c -7.84468,5.14895 -16.89623,7.68611 -26.91916,7.68611 -12.05401,0 -21.94448,-4.02962 -29.89218,-12.07391 -7.90356,-8.0443 -11.86268,-17.96909 -11.86268,-29.86389 0,-11.50679 3.95912,-21.23756 12.00985,-29.14754 7.99185,-7.9249 18.00007,-11.86496 29.96578,-11.86496 9.11042,0 18.00007,2.38792 26.68368,7.0742 v 15.71549 c -8.38925,-5.70116 -16.83736,-8.55174 -25.30019,-8.55174 -8.09488,0 -14.73268,2.58195 -19.94284,7.67119 -5.21017,5.16388 -7.81525,11.61126 -7.81525,19.35706 0,7.82043 2.44319,14.29766 7.52089,19.47646 5.01882,5.13403 11.65663,7.71596 19.53073,7.71596 9.05155,0 17.67628,-2.99982 26.02137,-8.93977 v 15.74534 z"
       id="path25" />
    <polygon
       transform="matrix(14.717965,0,0,14.924488,-2002.6172,79.428534)"
       style="fill:#ffffff;stroke:none"
       points="156.014,28.825 157.163,30.852 158.32,28.825 159.506,28.825 157.688,31.92 157.688,34.173 156.644,34.173 156.644,31.92 154.8,28.825 "
       id="polygon27" />
    <path
       style="fill:#ffffff;stroke:none"
       inkscape:connector-curvature="0"
       d="m 413.072,583.33893 c -7.84467,5.14895 -16.89622,7.68611 -27.06633,7.68611 -11.93627,0 -21.88563,-4.02962 -29.80389,-12.07391 -7.90354,-8.0443 -11.90682,-17.96909 -11.90682,-29.86389 0,-11.50679 4.1063,-21.23756 12.054,-29.14754 8.08017,-7.9249 18.08838,-11.86496 29.99521,-11.86496 9.03684,0 17.98537,2.38792 26.71312,7.0742 v 15.71549 c -8.41868,-5.70116 -16.86679,-8.55174 -25.41793,-8.55174 -8.03601,0 -14.67382,2.58195 -19.89869,7.67119 -5.21016,5.16388 -7.84468,11.61126 -7.84468,19.35706 0,7.82043 2.5315,14.29766 7.60919,19.47646 5.04826,5.13403 11.58304,7.71596 19.58961,7.71596 8.94853,0 17.61741,-2.99982 25.9625,-8.93977 v 15.74534 z"
       id="path29" />
    <polygon
       transform="matrix(14.717965,0,0,14.924488,-2002.6172,79.428534)"
       style="fill:#ffffff;stroke:none"
       points="165.928,28.825 165.928,33.195 168.156,33.195 168.156,34.173 164.881,34.173 164.881,28.825 "
       id="polygon31" />
    <polygon
       transform="matrix(14.717965,0,0,14.924488,-2002.6172,79.428534)"
       style="fill:#ffffff;stroke:none"
       points="172.102,28.825 172.102,29.754 169.827,29.754 169.827,30.87 171.706,30.87 171.706,31.81 169.827,31.81 169.827,33.223 172.307,33.223 172.307,34.173 168.781,34.173 168.781,28.825 "
       id="polygon33" />
    <polygon
       transform="matrix(14.717965,0,0,14.924488,-2002.6172,79.428534)"
       style="fill:#ffffff;stroke:none"
       points="176.122,31.815 176.122,34.173 175.08,34.173 175.08,28.825 176.122,28.825 176.122,30.87 178.562,30.87 178.562,28.825 179.605,28.825 179.605,34.173 178.562,34.173 178.562,31.815 "
       id="polygon35" />
    <rect
       style="fill:#ffffff;stroke:none"
       x="655.46222"
       y="509.62708"
       width="15.365557"
       height="79.816162"
       id="rect37" />
    <path
       style="fill:#ffffff;stroke:none"
       inkscape:connector-curvature="0"
       d="M 747.61137,589.44304 H 729.5377 l -21.70901,-31.80408 h -7.09405 v 31.80408 h -15.30668 v -79.81616 h 25.4032 c 8.34509,0 14.83572,2.13421 19.64849,6.31306 4.85693,4.19378 7.32955,9.83524 7.32955,17.01392 0,4.89522 -1.41293,9.25318 -3.94442,12.86491 -2.6198,3.68634 -6.25513,6.38768 -11.03847,8.23832 l 24.78506,35.38595 z m -46.862,-66.26472 v 20.99875 h 7.35898 c 4.54784,0 8.00656,-1.04471 10.55278,-3.02966 2.53148,-1.89542 3.70893,-4.6266 3.70893,-8.10401 0,-3.05952 -1.08914,-5.47728 -3.39986,-7.26822 -2.16353,-1.70139 -5.32791,-2.59686 -9.43422,-2.59686 h -8.78661 z"
       id="path39" />
    <polygon
       transform="matrix(14.717965,0,0,14.924488,-2002.6172,79.428534)"
       style="fill:#ffffff;stroke:none"
       points="190.735,28.825 190.735,29.754 188.452,29.754 188.452,30.87 190.337,30.87 190.337,31.81 188.452,31.81 188.452,33.223 190.934,33.223 190.934,34.173 187.412,34.173 187.412,28.825 "
       id="polygon41" />
  </g>
</svg>
