<?xml version="1.0" encoding="UTF-8" standalone="no"?>
<!DOCTYPE svg PUBLIC "-//W3C//DTD SVG 1.0//EN" "http://www.w3.org/TR/2001/REC-SVG-20010904/DTD/svg10.dtd">
<svg
   xmlns:svg="http://www.w3.org/2000/svg"
   xmlns="http://www.w3.org/2000/svg"
   version="1.0"
   width="499.99997"
   height="404.99997"
   id="svg33083">
  <defs
     id="defs33085" />
  <g
     transform="translate(-649.92304,-253.79454)"
     id="layer1">
    <path
       d="M -232.33509,60.466938 A 88.893425,91.923882 0 1 1 -410.12194,60.466938 A 88.893425,91.923882 0 1 1 -232.33509,60.466938 z"
       transform="matrix(1.8836128,0,0,1.8215156,1504.9932,346.15306)"
       id="path33894"
       style="fill:none;fill-opacity:1;fill-rule:nonzero;stroke:#dc241f;stroke-width:37.854702;stroke-miterlimit:4;stroke-dasharray:none;stroke-opacity:1" />
    <path
       d="M 649.92304,494.25013 L 1149.923,494.25013 L 1149.923,417.24997 L 649.92304,417.24997 L 649.92304,494.25013 z"
       id="path15248"
       style="fill:#0019a8;fill-opacity:1;fill-rule:nonzero;stroke:none" />
    <path
       d="M 756.78584,476.23823 L 764.15569,476.23823 L 764.15569,435.23239 L 756.78584,435.23239 L 756.78584,463.32625 L 735.61964,435.23239 L 728.22031,435.23239 L 728.22031,476.23823 L 735.61964,476.23823 L 735.61964,448.67499 L 756.78584,476.23823"
       id="path15250"
       style="fill:#ffffff;fill-rule:nonzero;stroke:none" />
    <path
       d="M 836.91083,476.23823 L 836.91083,468.01348 L 819.42954,468.01348 L 819.42954,458.43268 L 832.57736,458.43268 L 832.57736,450.53219 L 819.42954,450.53219 L 819.42954,443.33923 L 836.38019,443.33923 L 836.38019,435.23239 L 812.0597,435.23239 L 812.0597,476.23823 L 836.91083,476.23823"
       id="path15252"
       style="fill:#ffffff;fill-rule:nonzero;stroke:none" />
    <path
       d="M 772.01758,435.24406 L 772.01758,476.22895 L 786.8699,476.19762 C 797.65935,476.19763 806.32833,466.99022 806.32833,455.61117 C 806.32833,444.32057 797.87685,435.24406 787.05791,435.24406 L 772.01758,435.24406 z M 786.80723,442.76423 C 793.58749,442.76423 799.0275,448.5656 799.0275,455.61117 C 799.0275,462.74519 793.39949,468.48945 786.61923,468.48945 L 779.47508,468.52079 L 779.47508,442.79556 L 786.80723,442.76423 z"
       id="path15254"
       style="fill:#ffffff;fill-rule:nonzero;stroke:none" />
    <path
       d="M 685.41623,458.75695 L 685.41623,435.23239 L 692.78608,435.23239 L 692.81556,459.55289 C 692.81556,465.89096 697.3259,470.5487 703.01543,470.5487 C 708.70495,470.5487 713.30373,465.50773 713.30373,459.55289 L 713.30373,435.23239 L 720.6441,435.23239 L 720.67358,458.87486 C 720.67358,469.66432 712.83207,477.71219 703.01543,477.71219 C 693.19878,477.71219 685.41623,469.04525 685.41623,458.75695"
       id="path15256"
       style="fill:#ffffff;fill-rule:nonzero;stroke:none" />
    <path
       d="M 843.6158,435.30673 L 843.6158,476.29162 L 851.01063,476.29162 L 851.01063,459.9666 L 855.42873,459.9666 L 867.02231,476.29162 L 875.01249,476.29162 L 863.10556,458.4939 C 867.08528,456.43034 869.77971,452.45932 869.77971,447.68367 C 869.77971,440.87393 864.24386,435.30673 857.43411,435.30673 L 843.6158,435.30673 z M 851.10463,442.54489 L 857.43411,442.57622 C 860.26413,442.57622 862.54155,444.85364 862.54155,447.68367 C 862.54155,450.48421 860.26414,452.75978 857.43411,452.75978 L 851.10463,452.75978 L 851.10463,442.54489 z"
       id="path15258"
       style="fill:#ffffff;fill-rule:nonzero;stroke:none" />
    <path
       d="M 968.92053,434.33538 C 957.62993,434.33538 948.49075,443.94475 948.49075,455.73651 C 948.49076,467.55774 957.62993,477.13764 968.92053,477.13764 C 980.21113,477.13763 989.35031,467.55774 989.35031,455.73651 C 989.3503,443.94475 980.21113,434.33538 968.92053,434.33538 z M 968.92053,442.41955 C 976.02506,442.41955 981.76748,448.36667 981.76748,455.73651 C 981.76748,463.13584 976.02506,469.11613 968.92053,469.11613 C 961.84548,469.11613 956.10492,463.13584 956.10492,455.73651 C 956.10492,448.36667 961.84548,442.41955 968.92053,442.41955 z"
       id="path15260"
       style="fill:#ffffff;fill-rule:nonzero;stroke:none" />
    <path
       d="M 1067.8524,476.23823 L 1075.2812,476.23823 L 1075.2812,435.23239 L 1067.8524,435.23239 L 1067.8524,463.32625 L 1046.6568,435.23239 L 1039.2869,435.23239 L 1039.2869,476.23823 L 1046.6568,476.23823 L 1046.6568,448.67499 L 1067.8524,476.23823"
       id="path15262"
       style="fill:#ffffff;fill-rule:nonzero;stroke:none" />
    <path
       d="M 1084.4804,435.24406 L 1084.4804,476.22895 L 1099.3014,476.19762 C 1110.1203,476.19763 1118.7285,466.99022 1118.7285,455.61117 C 1118.7285,444.32057 1110.3064,435.24406 1099.458,435.24406 L 1084.4804,435.24406 z M 1099.2074,442.76423 C 1106.0171,442.76423 1111.459,448.5656 1111.459,455.61117 C 1111.459,462.74519 1105.8623,468.48945 1099.082,468.48945 L 1091.8752,468.52079 L 1091.8752,442.79556 L 1099.2074,442.76423 z"
       id="path15264"
       style="fill:#ffffff;fill-rule:nonzero;stroke:none" />
    <path
       d="M 995.12673,458.75695 L 995.12673,435.23239 L 1002.526,435.23239 L 1002.585,459.55289 C 1002.585,465.89096 1007.0954,470.5487 1012.7849,470.5487 C 1018.4449,470.5487 1023.0143,465.50773 1023.0143,459.55289 L 1022.9848,435.23239 L 1030.4136,435.23239 L 1030.4431,458.87486 C 1030.4431,469.66432 1022.5426,477.71219 1012.7849,477.71219 C 1002.9682,477.71219 995.12673,469.04525 995.12673,458.75695"
       id="path15266"
       style="fill:#ffffff;fill-rule:nonzero;stroke:none" />
    <path
       d="M 916.8434,435.30673 L 916.8434,476.29162 L 924.26956,476.29162 L 924.26956,459.9666 L 928.65632,459.9666 L 940.24991,476.29162 L 948.27142,476.29162 L 936.36449,458.4939 C 940.34421,456.43034 942.97597,452.45932 942.97597,447.68367 C 942.97597,440.87393 937.50278,435.30673 930.69303,435.30673 L 916.8434,435.30673 z M 924.33223,442.54489 L 930.69303,442.57622 C 933.49357,442.57622 935.76912,444.85364 935.76914,447.68367 C 935.76914,450.48421 933.49358,452.75978 930.69303,452.75978 L 924.33223,452.75978 L 924.33223,442.54489 z"
       id="path15268"
       style="fill:#ffffff;fill-rule:nonzero;stroke:none" />
    <path
       d="M 882.07326,454.57087 C 882.07326,444.5184 894.01241,437.29594 909.63649,445.34382 L 909.63649,437.29594 C 895.1621,430.86944 874.82133,434.23009 874.82133,454.89514 C 874.82133,475.5602 897.01931,483.25432 910.13764,471.87528 L 910.13764,452.35992 L 896.16441,452.35992 L 896.16441,459.43498 L 902.76779,459.43498 L 902.76779,468.51463 C 890.76968,473.37872 882.07326,465.832 882.07326,454.57087"
       id="path15270"
       style="fill:#ffffff;fill-rule:nonzero;stroke:none" />
  </g>
</svg>