<?xml version="1.0" encoding="UTF-8" standalone="no"?>
<svg xmlns="http://www.w3.org/2000/svg" width="1780.2175" height="1645.3129" id="svg2">
	<defs id="defs4" />
	<g transform="translate(719.46996,426.433)">
		<path style="fill:#000000"
			d="m 178.7143,1217.4844 c -2.475,-0.7033 -6.6568,-2.3614 -9.2928,-3.6848 l -4.7928,-2.4061 -5.0113,-5.2987 -5.0113,-5.2987 -2.4804,-5.4179 -2.4804,-5.4178 -1.4481,-6.8348 -1.4482,-6.8348 -0.017,-9.3717 -0.017,-9.3716 1.5505,-10.6284 c 1.8816,-12.8981 4.6176,-24.94 8.0951,-35.6283 l 2.6028,-8 3.5371,-6.8213 3.5372,-6.8213 4.4544,-4.9544 4.4545,-4.9544 4.4899,-2.6313 4.4899,-2.6312 7.1443,-0.4417 7.1443,-0.4416 5.8301,2.2004 5.8301,2.2004 5.1699,5.1763 5.1699,5.1762 3.1496,5.972 3.1496,5.9719 2.4982,8 2.4981,8 1.5294,10 c 0.8412,5.5 1.8268,14.95 2.1902,21 l 0.6607,11 -1.1163,9.9652 c -0.6139,5.4809 -1.8133,12.6809 -2.6654,16 l -1.549,6.0348 -3.1338,6.4002 -3.1337,6.4002 -4.7689,4.896 -4.7688,4.896 -5.7699,2.6669 -5.77,2.6668 -10,0.2731 -10,0.2731 -4.5,-1.2787 z m 22.8144,-10.2884 5.2071,-2.5948 3.4675,-4.2317 3.4676,-4.2317 2.3864,-5.4235 c 1.3125,-2.9829 3.2347,-8.5735 4.2717,-12.4235 l 1.8853,-7 -0.046,-20 -0.046,-20 -1.7592,-8.8724 -1.7591,-8.8724 -2.8503,-7.8101 -2.8504,-7.8101 -3.1647,-4.5998 -3.1648,-4.5998 -3.6797,-2.4068 c -2.0239,-1.3238 -4.9202,-2.7088 -6.4363,-3.0778 l -2.7566,-0.6709 -3.3799,0.6341 -3.3799,0.634 -4.6469,4.0903 -4.6468,4.0903 -4.403,9.1357 -4.4031,9.1357 -2.5378,9.5 c -1.3957,5.225 -3.4493,15.125 -4.5634,22 l -2.0257,12.5 0.015,10.5 0.015,10.5 1.4673,6.2226 c 0.8069,3.4224 2.4734,8.3724 3.7033,11 l 2.236,4.7774 4.5855,4.6012 4.5855,4.6012 4.4465,1.5698 4.4464,1.5699 5.5536,0.079 5.5537,0.079 5.2071,-2.5948 z m 54.3726,7.9116 0.313,-3.7722 4.4455,-0.7535 4.4455,-0.7536 1.2637,-1.2687 1.2636,-1.2688 -2.2229,-59.6129 -2.2229,-59.6129 -1.3587,-1.6371 -1.3587,-1.6371 -2.9023,0 -2.9023,0 -0.9753,-2.5651 c -0.5363,-1.4108 -0.9752,-3.1819 -0.9752,-3.9357 l 0,-1.3705 10.5021,-0.3144 10.5021,-0.3143 0,2.2269 0,2.227 2.25,1.4411 c 2.2786,1.4595 35.8835,13.859 41.0637,15.1517 l 2.8138,0.7021 -0.6762,-6.3744 -0.6761,-6.3744 -1.4106,-2.25 -1.4107,-2.25 -3.8675,0 -3.8676,0 -0.4077,-3.4925 -0.4078,-3.4925 3.0484,-0.4925 c 4.0885,-0.6605 25.7777,-3.5225 26.6948,-3.5225 l 0.7268,0 0.3133,3.25 0.3134,3.25 -4,1.5227 -4,1.5227 -0.3111,2.6726 -0.3112,2.6727 8.0851,57.3046 8.0851,57.3047 2.0868,1.75 2.0869,1.75 4.2798,0 4.2798,0 0.396,3.3922 0.396,3.3921 -12.2608,1.6431 c -6.7435,0.9037 -15.1974,1.9173 -18.7866,2.2524 l -6.5258,0.6094 0,-3.5333 0,-3.5333 3.4286,-0.6432 3.4287,-0.6433 2.0785,-1.718 2.0786,-1.7181 -5.783,-46.7258 -5.783,-46.7258 -0.9742,-0.9013 c -0.5358,-0.4957 -3.4492,-1.6859 -6.4742,-2.645 -3.025,-0.959 -12.8328,-4.4441 -21.795,-7.7446 -8.9623,-3.3004 -16.4977,-5.7981 -16.7455,-5.5503 -0.2478,0.2477 0.9209,25.615 2.5971,56.3716 l 3.0476,55.9212 0.9084,2.2103 0.9084,2.2103 4.9536,0.6571 4.9536,0.6572 0.5722,2.1325 c 0.3148,1.1729 0.5784,2.6567 0.5859,3.2973 l 0.014,1.1647 -7.25,0.5511 c -3.9875,0.3032 -12.5659,0.8116 -19.063,1.1299 l -11.813,0.5787 0.313,-3.7723 z m -166.187,-8.8198 -6.5,-1.4712 -6.1587,-3.0306 -6.1587,-3.0306 -5.3919,-5.8239 -5.3919,-5.824 -2.2074,-5.7682 -2.2073,-5.7681 -1.116,-7.1402 -1.1161,-7.1402 0.6174,-8.8105 0.6174,-8.8104 1.9777,-9.6896 c 1.0877,-5.3292 3.3966,-13.9645 5.131,-19.1895 l 3.1533,-9.5 4.261,-8.5 4.261,-8.5 4.7543,-6.3231 4.7543,-6.3231 5.1559,-3.8927 c 2.8357,-2.141 7.1603,-4.7637 9.6103,-5.8283 l 4.4544,-1.9356 5.0428,-0.664 5.0429,-0.6639 6.7556,1.1765 6.7557,1.1764 1.8631,-1.6861 1.863,-1.686 2.7466,0.3249 2.7467,0.325 2.8215,9 c 1.5518,4.95 2.8306,9.5133 2.8418,10.1406 l 0.02,1.1406 -3.4986,0.4084 -3.4986,0.4085 -3.2514,-3.4212 -3.2514,-3.4211 -4,-1.8559 -4,-1.856 -5.5,-0.012 -5.5,-0.012 -5.2867,2.4612 -5.2866,2.4613 -4.9504,5.0823 -4.9504,5.0824 -3.9594,6.6966 c -7.3428,12.4191 -13.6027,31.4376 -15.9847,48.5639 l -1.0818,7.7775 0.015,7.6777 0.015,7.6776 1.5288,6.4865 1.5288,6.4864 2.4494,4.1796 2.4494,4.1796 4.1477,3.5503 4.1478,3.5503 4.9268,1.6365 4.9269,1.6364 7.6824,-0.3684 7.6824,-0.3685 4.5,-2.2114 c 2.475,-1.2163 5.6635,-3.2964 7.0856,-4.6224 l 2.5855,-2.4108 3.9145,3.3918 3.9144,3.3918 -4.3323,3.9551 -4.3324,3.9551 -5.5101,2.0616 -5.5102,2.0616 -7.1575,0.4635 -7.1575,0.4635 -6.5,-1.4711 z m -109.2184,-29.993 -5.7183,-1.4433 -6.1581,-3.1086 -6.1582,-3.1086 -4.8822,-4.5667 -4.8822,-4.5668 -2.9805,-6.105 -2.9805,-6.105 -0.9605,-6.9274 -0.9605,-6.9274 1.006,-8.0726 1.0059,-8.0726 2.8997,-8.6754 2.8997,-8.6753 6.9399,-13.8534 6.9399,-13.8534 6.0067,-8.9712 6.0066,-8.9713 7.0216,-6.7706 7.0215,-6.7705 5.826,-2.6762 5.8259,-2.6763 5.5,-0.3947 5.5,-0.3947 5.9188,2.2265 5.9188,2.2265 4.4019,4.0575 4.4018,4.0575 2.4284,4.1436 2.4283,4.1437 2.001,7.8238 2.001,7.8238 -0.01,10.0901 -0.01,10.09 -1.5062,10 -1.5062,10 -2.9379,11 c -3.4842,13.0453 -7.6249,23.4123 -12.6652,31.7095 l -3.6743,6.0486 -5.2686,5.2686 -5.2686,5.2686 -6.3306,3.0792 -6.3306,3.0793 -6.5,0.4967 -6.5,0.4967 -5.7184,-1.4432 z m 16.7295,-11.5094 4.2809,-2.0723 5.1406,-5.1406 5.1407,-5.1407 3.4121,-5.6169 c 6.9037,-11.3648 13.9733,-33.4633 16.5819,-51.8326 l 1.1799,-8.3085 -0.4825,-11.1915 -0.4825,-11.1915 -2.1387,-5.5515 -2.1386,-5.5515 -3.2525,-3.0785 c -1.7888,-1.6932 -4.2353,-3.5825 -5.4367,-4.1985 l -2.1842,-1.12 -4.1056,0 -4.1056,0 -4.1649,2.1248 -4.165,2.1248 -5.7099,5.7099 -5.7098,5.7098 -5.5932,8.5807 -5.5932,8.5807 -6.3854,13.1189 -6.3854,13.1188 -2.6092,8.2158 -2.6091,8.2158 -0.8694,7 -0.8695,7 0.8543,6.2235 0.8543,6.2236 2.1328,4.5374 2.1329,4.5375 4.8012,4.3167 4.8012,4.3166 4.8335,1.6673 4.8335,1.6673 4.8651,-0.4615 4.8651,-0.4614 4.2809,-2.0724 z m 551.7389,-14.718 -3.25,-0.4033 0,-1.1593 c 0,-0.6377 1.4539,-4.8486 3.2309,-9.3578 l 3.2309,-8.1984 4.0566,-0.6083 4.0565,-0.6083 3.4625,1.749 3.4626,1.749 5.5,-0.064 5.5,-0.064 4.1345,-2.1172 4.1344,-2.1173 3.1542,-3.1541 c 1.7348,-1.7348 4.0663,-4.9421 5.1811,-7.1274 l 2.027,-3.9732 0.9984,-5.6682 0.9985,-5.6681 -1.5225,-7.3017 -1.5225,-7.3018 -3.5627,-7.4072 -3.5627,-7.4072 -5.7289,-6.2058 -5.7288,-6.2058 -5.9216,-3.839 -5.9216,-3.8391 -8.0784,-2.594 -8.0784,-2.594 -11.2975,-0.5369 -11.2976,-0.5369 -1.5846,-3.0643 -1.5847,-3.0644 1.1539,-0.3846 c 0.6346,-0.2115 3.8207,-2.1655 7.0803,-4.3422 l 5.9266,-3.9576 2.0518,-3.3199 2.0518,-3.3199 0,-2.5501 c 0,-1.4026 -0.2795,-3.2787 -0.6212,-4.169 l -0.6212,-1.6188 -2.8291,-1.463 -2.8292,-1.463 -2.2339,0 -2.234,0 -4.3333,2.0977 -4.3333,2.0978 -4.2192,5.4022 -4.2193,5.4023 -3.894,0 -3.894,0 0.6199,-3.75 c 0.3409,-2.0625 0.6247,-5.6045 0.6308,-7.8712 l 0.011,-4.1211 4.75,-0.648 4.75,-0.648 4.4054,-2.9841 4.4054,-2.9842 4.0873,-1.1006 4.0874,-1.1006 4.7151,0.4531 4.7151,0.453 3.5432,2.7026 3.5432,2.7025 1.499,2.8986 1.4989,2.8987 0,4.4492 0,4.4491 -3.463,5.1461 -3.4631,5.146 1.2131,0.3719 c 0.6671,0.2046 4.588,1.1297 8.713,2.0558 l 7.5,1.6839 9.5,4.524 9.5,4.524 8,8.1603 8,8.1603 3.3546,5.6856 c 1.845,3.127 4.545,8.511 6,11.9643 l 2.6454,6.2788 0,11.5 0,11.5 -2.7155,5.7955 -2.7155,5.7955 -5.8439,5.8439 -5.8439,5.8439 -6.1803,3.1198 -6.1804,3.1198 -6.2602,1.476 c -3.4432,0.8118 -7.8353,1.501 -9.7603,1.5315 l -3.5,0.055 -3.4622,2.9593 c -1.9042,1.6277 -3.9292,2.8874 -4.5,2.7994 -0.5708,-0.088 -2.5003,-0.3416 -4.2878,-0.5634 z m -653.60499,-10.7991 -5.8551,-1.4789 -7.0729,-3.7166 -7.0728,-3.7167 -5.3442,-5.2176 -5.3442,-5.2176 -3.2279,-6.8151 -3.2279,-6.815 0.063,-11.5 0.063,-11.5 2.6681,-8.0527 2.6681,-8.0527 4.8135,-9.4473 c 2.6474,-5.196 7.4821,-13.4551 10.7439,-18.3536 l 5.9304,-8.9062 7.3716,-7.8361 7.3715,-7.836 7.3311,-4.9033 7.3311,-4.9034 5.3223,-1.8064 5.32229,-1.8064 7.5,0.01 7.5,0.01 6.5,2.8701 6.5,2.8701 4.5,0.1888 c 2.475,0.1039 5.5125,0.2489 6.75,0.3223 l 2.2499,0.1328 0,11.1166 0,11.1167 -2.25,-0.603 c -1.2375,-0.3317 -2.9692,-0.6091 -3.8481,-0.6166 l -1.5981,-0.014 -1.842,-4.0848 -1.842,-4.0848 -3.9554,-3.3857 -3.9554,-3.3856 -3.4458,-1.1373 -3.4458,-1.1372 -6.7251,0.38 -6.725,0.38 -6.8235,3.3592 -6.82349,3.3592 -8.6335,8.6185 -8.6335,8.6185 -5.2962,8 -5.2962,8 -5.4172,11 -5.4173,11 -2.0132,7.91 -2.0132,7.9099 0,7.6619 0,7.6619 1.5751,4.6227 1.5751,4.6227 3.8195,4.3391 3.8195,4.3392 4.8554,2.6297 4.8554,2.6297 5.75,1.0527 5.75,1.0526 5.7437,-1.0618 c 3.159,-0.5839 6.8669,-1.6503 8.2397,-2.3696 l 2.4962,-1.3079 2.75589,4.1536 c 1.5158,2.2845 2.7579,4.4588 2.7602,4.8318 0,0.3729 -2.5535,1.6351 -5.67969,2.8048 l -5.684,2.1266 -6.066,0.4234 -6.066,0.4234 -5.855,-1.4789 z m -92.7447,-55.1087 c -8.4702,-5.8472 -15.4929,-10.7023 -15.606,-10.7891 -0.1132,-0.087 0.8071,-1.4281 2.045,-2.9806 l 2.2507,-2.8227 3.9402,2.1118 c 2.1671,1.1615 4.7198,2.1118 5.6726,2.1118 l 1.7324,0 3.9071,-5.25 c 9.8791,-13.2749 64.5054,-92.36373 64.9382,-94.01853 l 0.4866,-1.8607 -3.2004,-3.302 -3.2003,-3.3019 2.3168,-2.5981 2.3168,-2.5981 12.7031,8.618 12.7032,8.6179 -0.9197,1.5967 c -0.5058,0.8782 -1.3051,2.1695 -1.7763,2.8696 l -0.8566,1.2728 -3.7502,-1.5669 -3.7503,-1.567 -1.6766,0.5554 -1.6766,0.5554 -33.4386,49.95203 -33.4386,49.952 1.4027,2.6211 1.4028,2.6211 2.7251,1.9404 2.7251,1.9405 -1.6893,2.9688 c -0.929,1.6329 -1.9591,2.9717 -2.2889,2.9752 -0.3298,0 -7.5298,-4.7778 -16,-10.6249 z m 875.26129,-6.5825 -2.0801,-3.2854 3.4592,-3.5426 3.4593,-3.5426 0,-2.1472 0,-2.1471 -20.6833,-28.8107 c -11.3758,-15.8459 -25.5962,-35.67323 -31.6009,-44.06073 -6.0046,-8.3875 -11.2538,-15.25 -11.6648,-15.25 -0.411,0 -1.5589,1.8 -2.551,4 l -1.8037,4 -3.9276,0 -3.9276,0 0.5576,-2.75 c 0.3067,-1.5125 1.2517,-7.25 2.1001,-12.75 l 1.5424,-10 3.1771,-2.6357 3.1772,-2.6356 38.7663,51.88563 38.7663,51.8857 2.2859,0 2.286,0 3.2742,-1.9962 c 4.2669,-2.6016 4.7004,-2.5429 7.2058,0.9756 l 2.1161,2.9718 -13.298,9.8727 c -7.314,5.43 -14.4812,10.6338 -15.9272,11.564 l -2.6292,1.6912 -2.0801,-3.2853 z m -485.6616,-25.4482 c -65.7938,-5.357 -118.7309,-19.6245 -196,-52.82543 -76.109,-32.7024 -133.72269,-71.7878 -187.61079,-127.2762 -101.9583,-104.98603 -163.9373,-247.94142 -173.948,-401.21357 l -1.2068,-18.47705 0.5594,-33.02295 0.5595,-33.02295 2.0565,-19 c 6.598,-60.96018 20.3897,-115.6486 42.6405,-169.08304 3.5798,-8.59672 7.1704,-16.91003 7.9792,-18.47402 0.8088,-1.56399 1.4705,-3.45224 1.4705,-4.19612 l 0,-1.3525 -12.25,-2.44716 -12.25,-2.44716 -25,0.24375 -25,0.24375 -14,2.12802 -14,2.12803 -12,0.0201 c -6.6,0.0111 -15.8219,-0.0612 -20.4931,-0.16065 l -8.4931,-0.18078 -2.0069,0.97871 c -1.1038,0.53829 -5.8319,2.61397 -10.5069,4.61263 -4.675,1.99866 -10.525,4.89091 -13,6.42722 -2.475,1.53631 -6.525,3.85682 -9,5.15669 -2.475,1.29987 -6.1789,3.64068 -8.2308,5.20179 l -3.7309,2.83838 -4.7063,6.18116 -4.7062,6.18116 -1.8129,4.76073 -1.8129,4.76072 0,13.48928 0,13.48927 -1.0314,0 c -0.5673,0 -1.2904,-0.675 -1.607,-1.5 l -0.5756,-1.5 -1.3673,0 -1.3674,0 -1.6009,3.09595 c -1.4456,2.79542 -10.515,15.57005 -15.551,21.90409 l -1.9876,2.5 0.5481,-2.68996 c 0.5485,-2.69237 3.9965,-8.92663 10.1266,-18.31004 4.1657,-6.37651 5.0358,-8.49503 6.8766,-16.74304 l 1.5049,-6.74305 -1.0766,-5.25695 c -0.592,-2.89133 -1.2786,-6.31002 -1.5256,-7.59709 l -0.4492,-2.34014 -5.2083,0.54132 c -2.8646,0.29772 -6.5583,0.67578 -8.2083,0.84013 l -3,0.29882 0,-1.48653 0,-1.48652 2.9943,-1.43513 2.9943,-1.43513 7.5057,-8.04098 c 4.1281,-4.42254 10.2122,-10.78901 13.5202,-14.14772 l 6.0145,-6.10675 6.9855,-3.81045 c 3.842,-2.09574 9.2355,-5.23978 11.9855,-6.98673 2.75,-1.74696 6.4625,-3.76813 8.25,-4.49149 l 3.25,-1.31521 0,-1.31129 0,-1.31129 -1.75,-0.51551 c -0.9625,-0.28353 -4.675,-1.04714 -8.25,-1.6969 l -6.5,-1.18139 -9.0187,-0.12049 -9.0187,-0.12049 -6.4813,3.17963 c -7.554,3.70587 -14.5341,6.32189 -24.9813,9.36259 l -7.5,2.18289 -4.1505,2.31205 c -9.0086,5.01838 -13.0013,8.04203 -28.1415,21.31131 l -15.722,13.77915 -5.993,3.79647 c -3.2962,2.08806 -6.893,4.57039 -7.993,5.51629 l -2,1.71983 -4.5,1.27802 -4.5,1.27801 -4.5,3.21731 -4.5,3.2173 -4.7895,1.77236 -4.7895,1.77237 -2.9351,2.46973 -2.9351,2.46974 -14.7814,1.27776 -14.7815,1.27775 -4.7507,2.10149 -4.75078,2.10148 -5.74323,4.41968 c -3.15877,2.43083 -7.76819,6.61728 -10.24316,9.30324 -2.47497,2.68595 -7.0934,7.04239 -10.26318,9.68098 l -5.76325,4.79743 -0.57893,-1.50868 -0.57894,-1.50868 2.84212,-4.22965 2.84212,-4.22965 5.5,-4.43736 5.5,-4.43735 5.21487,-7.62175 5.21488,-7.62174 0.0351,-2.38293 0.0351,-2.38292 -6.16899,-5.81575 -6.16899,-5.81575 -2.84373,-1.17792 -2.84373,-1.17791 -0.54684,-2.62341 c -0.30077,-1.44288 -0.96534,-3.29841 -1.47682,-4.12341 -0.51148,-0.825 -1.82448,-3.14959 -2.91779,-5.16576 l -1.98781,-3.66576 1.07517,-3.08424 1.07517,-3.08424 4.27903,0 4.27903,0 2.10286,4.75 2.10286,4.75 2.27028,1.55846 c 1.24866,0.85715 6.77029,3.28267 12.27029,5.39004 l 9.99999,3.83158 10.0271,0.48112 10.027,0.48113 3.8999,-2.64651 c 2.1449,-1.45558 5.0577,-2.92166 6.4729,-3.25795 1.4152,-0.33629 5.2731,-1.84669 8.5731,-3.35643 11.6732,-5.34046 15.0594,-6.74521 20.5,-8.50446 l 5.5,-1.77843 5.6213,-3.59928 5.6214,-3.59927 15.1156,-14.5 15.1157,-14.5 0.013,-2.12756 0.013,-2.12755 -1.25,-1.03304 -1.25,-1.03304 -7.7495,-1.59801 -7.7494,-1.59801 -9.7506,-3.64678 -9.7505,-3.64678 -11.346,-5.96261 -11.3461,-5.96262 -4.9039,0.618 c -2.6972,0.3399 -7.1864,0.90337 -9.9761,1.25216 l -5.0722,0.63416 -2.3703,3.75488 c -1.3037,2.06518 -4.2442,7.29231 -6.5345,11.61584 -2.2903,4.32353 -4.8609,8.64846 -5.7125,9.61096 -1.7181,1.94185 -3.7956,2.27541 -4.7323,0.75981 l -0.612,-0.99018 5.303,-9.96821 5.3029,-9.9682 -1.279,-1.79161 c -0.7035,-0.98539 -1.5523,-2.6129 -1.8863,-3.61671 l -0.6072,-1.82509 -5.1137,0.6988 -5.1138,0.6988 -4.9777,2.39588 -4.9778,2.39589 -1.27223,-0.48821 -1.27224,-0.4882 0,-2.34429 0,-2.3443 2.74997,-2.53987 c 1.5125,-1.39693 4.9967,-4.05287 7.7427,-5.9021 l 4.9927,-3.36224 7.5073,-1.232 c 4.129,-0.6776 9.854,-1.25584 12.7222,-1.28498 l 5.2148,-0.053 1.0352,-1.93426 c 0.5693,-1.06383 1.0351,-3.04212 1.0351,-4.3962 l 0,-2.46195 -3.4894,-7.35379 -3.4894,-7.353789 -0.5199,-8 -0.5198,-8 -1.4993,-5.1835 -1.4994,-5.1835 -2.4914,-2.96085 -2.4914,-2.96086 0,-1.60565 0,-1.60564 3.345,0 3.345,0 1.494,1.75 c 0.8216,0.9625 3.2539,4.9 5.405,8.75 l 3.911,7 0.5,2.77815 0.5,2.77815 2.3355,-1.64475 2.3356,-1.64476 1.9374,-4.51987 c 1.0656,-2.48593 3.5661,-7.15846 5.5566,-10.3834 l 3.6192,-5.86352 1.2509,0 1.2508,0 0.5285,1.37709 0.5284,1.37709 -5.8169,15.59249 -5.8169,15.59249 -0.7051,7.020989 -0.7051,7.021 2.5114,4.25943 c 1.3812,2.34268 3.7889,5.4474 5.3505,6.89937 l 2.8392,2.63995 7,3.01839 7,3.01839 9,1.6942 9,1.69419 15.5,0.83945 15.5,0.83944 11.5,1.57418 c 6.325,0.8658 14.875,2.2085 19,2.98379 l 7.5,1.4096 10.5,0.59491 c 5.775,0.32721 15.1444,1.30377 20.8208,2.17015 l 10.3207,1.57524 0.5602,-0.56016 0.5601,-0.56016 -1.6309,-3.43688 -1.6308,-3.43689 0,-3.46401 0,-3.46401 -2.0487,-2.60442 -2.0486,-2.60441 -1.2452,-4.78045 -1.2451,-4.78044 -5.1902,-7.68107 c -2.8546,-4.22459 -5.6145,-7.943359 -6.1332,-8.263929 -0.5187,-0.32057 -1.4856,-2.26409 -2.1486,-4.31893 l -1.2055,-3.73607 -7.2867,-10 c -4.0077,-5.5 -9.2356,-12.03358 -11.6175,-14.51906 l -4.3307,-4.51906 -10,-2.21113 c -5.5,-1.21613 -11.575,-2.45167 -13.5,-2.74566 -1.925,-0.29398 -4.1281,-0.93248 -4.8957,-1.41888 l -1.3958,-0.88436 0.6144,-1.60093 0.6143,-1.60092 3.137,0 c 1.7254,0 5.8382,0.69992 9.1395,1.55539 l 6.0025,1.55538 1.9337,-0.30538 1.9337,-0.30539 -4.0418,-7.93434 -4.0418,-7.93433 0,-3.23388 c 0,-1.77863 0.2731,-3.94568 0.607,-4.81566 l 0.607,-1.58179 1.846,0 1.846,0 1.0414,3.75 c 0.5728,2.0625 1.0439,4.35629 1.047,5.0973 0,0.74102 1.8753,4.9411 4.1605,9.33351 l 4.1548,7.9862 9.4184,4.66649 9.4183,4.6665 1.4268,-1.94113 1.4268,-1.94113 0.06,-9.55887 c 0.033,-5.25738 0.4179,-11.58387 0.8558,-14.05887 2.0954,-11.84209 3.3755,-17.6277 4.2041,-19 0.4981,-0.825 1.7398,-3.30941 2.7593,-5.52092 l 1.8537,-4.0209196 5.5047,-5.72907997 5.5048,-5.72908003 1.629,0 1.629,0 0,1.80383 0,1.80384 -3.5906,3.44616 -3.5905,3.44617 -2.8241,5.5522796 c -1.5532,3.05375 -3.5616,8.08958 -4.4631,11.19072 l -1.6392,5.63844 1.4747,6.80928 c 0.811,3.7451 1.9464,8.15928 2.5229,9.80928 0.5766,1.65 2.2405,7.275 3.6977,12.5 3.1236,11.20036 7.1777,21.56054 9.0428,23.10841 0.7303,0.60612 2.0122,2.47383 2.8486,4.15045 l 1.5208,3.04842 0.01,3.59636 0.01,3.59636 3.4925,10.264449 c 1.9209,5.64544 3.4926,10.72246 3.4926,11.28226 0,0.55979 1.3573,4.53739 3.0162,8.83909 l 3.0162,7.82129 4.7395,4.89645 c 2.6067,2.69306 5.6369,6.0336 6.7338,7.42343 1.0969,1.38983 3.4258,3.53593 5.1755,4.7691 l 3.1812,2.24214 11.3034,2.03536 11.3035,2.03536 6.5153,-0.69018 6.5154,-0.69018 8,-2.49654 8,-2.49654 18.1469,-0.61775 18.1468,-0.61774 2.1032,-1.90499 2.1031,-1.90499 0,-2.77991 c 0,-5.13924 -2.4451,-9.29763 -15.1222,-25.7183 -1.9921,-2.5805 -5.2467,-7.92731 -7.2323,-11.88182 l -3.6102,-7.190009 -2.5646,-1.80999 c -1.4096,-0.99549 -6.3628,-4.73499 -11.0063,-8.30999 -4.6434,-3.575 -9.5723,-7.30851 -10.953,-8.29668 l -2.5105,-1.79669 0,-2.95331 0,-2.95332 2.3114,0 2.3115,0 2.4048,2.25 c 1.3226,1.2375 4.15,3.7125 6.2831,5.5 l 3.8784,3.25 1.5304,0 1.5304,0 -0.6158,-3.07873 c -0.3386,-1.6933 -2.4884,-6.91189 -4.7773,-11.59686 l -4.1615,-8.51813 1.4023,-0.88783 c 0.7712,-0.4883 1.6617,-0.89472 1.9788,-0.90314 0.5643,-0.015 11.9235,18.38004 11.9235,19.30891 0,0.25925 1.8407,3.50134 4.0906,7.20464 2.2498,3.70329 4.7437,8.58441 5.542,10.84692 0.7982,2.26251 3.3057,7.041039 5.5722,10.618939 2.2665,3.5779 5.9445,9.43028 8.1733,13.00528 2.2288,3.575 5.9117,8.75 8.1842,11.5 2.2725,2.75 5.3748,7.3214 6.894,10.15867 l 2.7621,5.15866 9.964,2.73269 9.9639,2.73269 7.0083,3.35864 c 3.8546,1.84726 7.56,3.35865 8.2343,3.35865 l 1.2259,0 4.369,-8.25 c 6.4647,-12.2075 19.3932,-33.82149 27.3067,-45.65183 l 6.9579,-10.401829 -0.8152,-5.59817 c -0.4484,-3.07899 -0.8418,-9.42317 -0.8742,-14.09817 l -0.059,-8.5 0.7621,-2.72257 0.7622,-2.72256 3.2378,0.5591 c 1.7808,0.3075 3.8004,0.73103 4.4879,0.94118 l 1.25,0.38208 0,8.53139 0,8.53138 0.8325,0 c 0.4579,0 4.6406,-4.8375 9.295,-10.75 13.5397,-17.19949 26.1791,-31.47502 44.1683,-49.8859 l 16.7958,-17.18946957 -0.8361,-0.51672 c -0.4598,-0.2842 -5.5429,-1.71011003 -11.2958,-3.16869003 l -10.4597,-2.65197 -5.6773,-0.48765 -5.6774,-0.48765 -9.8226,3.67895 c -5.4025,2.02342 -12.88,5.18984 -16.6166,7.03649 l -6.7939,3.35754 -0.586,-1.52716 -0.586,-1.52717 2.8,-2.92254997 2.7999,-2.92255003 4.58,-1.63682 c 2.5189,-0.90026 6.4862,-2.37075 8.8162,-3.26776 l 4.2363,-1.63092 0.4719,-1.22274 0.4718,-1.2227504 -6.4252,-1.98455 c -3.5339,-1.09151 -7.7678,-2.67877 -9.4086,-3.52726 l -2.9832,-1.5427 -2.5126,0 -2.5127,0 -5.263,-2.07449 -5.263,-2.07449 -14.274,-0.57835 -14.274,-0.57835 0,-0.75634 0,-0.75635 6.8946,-1.23214 6.8947,-1.23214 17.1053,0.49381 17.1054,0.49382 0,-1.16466 c 0,-0.64056 -0.851,-2.93668 -1.8912,-5.10249 -1.5114,-3.14729 -5.1948,-15.49521 -7.272,-24.37844 l -0.3368,-1.44061 1.6574,-0.36488 1.6574,-0.36488 2.0865,5.57669 c 1.1475,3.06718 3.1793,7.7332 4.5149,10.36894 l 2.4284,4.79226 4.0525,3.66117 4.0525,3.66116 2.7752,0.58181 c 1.5264,0.31999 4.5752,0.9692 6.7752,1.44268 2.2,0.47349 8.5,1.60029 14,2.50402 5.5,0.90372 15.625,2.95584 22.5,4.56025 6.875,1.60442 14.6625,3.38473 17.3056,3.95625 l 4.8055,1.03913 12.1945,-9.79301 c 6.7069,-5.38616 15.2319,-11.95817 18.9444,-14.60447 l 6.75,-4.81146 0,-1.22794 c 0,-2.08428 -6.7203,-30.22672 -11.3659,-47.596499 l -4.4129,-16.500002 -4.4863,-11.52719 c -2.4675,-6.33996 -5.5995,-13.76496 -6.9602,-16.5 -1.3606,-2.73505 -3.1855,-6.54781 -4.0553,-8.47281 -0.8697,-1.925 -3.6875,-8 -6.2617,-13.5 -2.5741,-5.5 -5.468,-12.25 -6.4308,-15 -2.4097,-6.88296 -7.7187,-18.07711 -10.7346,-22.63443 l -2.5064,-3.78757 -5.2846,-4.07701 c -2.9065,-2.24236 -7.514,-5.15254 -10.2389,-6.46707 l -4.9544,-2.39006 -6.1611,-1.11723 -6.1612,-1.11722 -13.8668,0.2723 -13.8669,0.27231 -1.626,-1.34946 c -0.8943,-0.7422 -1.626,-1.76731 -1.626,-2.27803 l 0,-0.92858 3.4679,-1.44898 3.4678,-1.44897 4.4072,0 c 2.4239,0 5.8134,-0.28125 7.5321,-0.625 l 3.125,-0.625 0,-1.42688 c 0,-0.78479 -1.0052,-3.17338 -2.2337,-5.30799 l -2.2337,-3.8811 0.7377,-0.73763 0.7376,-0.73762 2.4034,2.25786 c 1.3218,1.24182 3.4571,4.24425 4.7451,6.67205 l 2.3417,4.41419 5.001,1.37731 c 6.0158,1.65681 18.703,4.62608 19.7509,4.62242 l 0.75,-0.003 0,-1.59571 c 0,-0.87764 -0.6354,-2.79014 -1.412,-4.25 -0.7766,-1.45986 -3.5087,-7.12508 -6.0713,-12.58938 -2.5626,-5.4643 -6.7389,-13.1143 -9.2806,-17 l -4.6213,-7.06491 -4.2362,-9.31019 -4.2363,-9.31018 -3.4793,-4.18982 c -1.9136,-2.30439 -8.8647,-9.70231 -15.4468,-16.43981 l -11.9675,-12.25 -1.8655,0 -1.8655,0 -7.3124,3.61313 -7.3124,3.61312 -0.6958,-0.69577 -0.6957,-0.69577 3.1257,-2.79282 c 1.7191,-1.53605 3.5975,-2.96136 4.1743,-3.16736 0.5767,-0.20599 1.1948,-0.96397 1.3736,-1.68441 l 0.325,-1.30947 -7.2726,-2.33988 c -3.9999,-1.28694 -8.4017,-3.07976 -9.7818,-3.98406 l -2.5094,-1.64417 0.5909,-0.95607 0.5909,-0.95607 3.441,0 3.441,0 0,-0.97149 c 0,-0.53431 -1.0964,-3.45048 -2.4363,-6.48036 l -2.4363,-5.50887 0.9072,-0.56069 0.9072,-0.56068 2.2293,2.56391 c 1.2261,1.41015 3.3767,4.91296 4.7791,7.78403 l 2.5498,5.22011 5.7321,1.11434 c 6.7968,1.32131 14.6409,4.13203 16.8466,6.03656 0.8683,0.74973 2.0917,1.36314 2.7187,1.36314 l 1.14,0 -0.6247,-8.25 -0.6247,-8.25 -4.344,-5.10781 c -4.3287,-5.08984 -5.1002,-6.80681 -3.5022,-7.79442 l 0.8418,-0.52026 4.1668,4.1256 4.1669,4.1256 2.4913,-1.33333 2.4914,-1.33334 0,-3.65102 0,-3.65102 -3.5278,-4.12143 -3.5278,-4.12144 -1.9722,-0.62595 -1.9722,-0.62597 0,-1.43261 0,-1.43261 1.6624,0 1.6625,0 4.6452,2.98084 c 2.5549,1.63945 5.7102,4.11445 7.0119,5.5 1.3016,1.38554 2.8959,2.51916 3.5429,2.51916 l 1.1762,0 4.3995,-5.53614 c 2.4197,-3.04487 5.3884,-6.18987 6.5973,-6.98888 l 2.1978,-1.45275 0.5443,0.8806 0.5442,0.88061 -6.0215,8.105 -6.0215,8.105 -3.4657,6.75328 -3.4657,6.75328 0,2.60203 0,2.60204 5.5157,11.23875 5.5158,11.23875 5.3087,5.65921 c 2.9197,3.11257 6.3182,7.12172 7.5523,8.90922 l 2.2437,3.25 1.6819,-0.011 1.6819,-0.011 5.4288,-11.23901 c 6.9579,-14.40463 11.4608,-22.0577 15.8129,-26.87487 l 3.4785,-3.85036 -0.5699,-2.27073 -0.5699,-2.27073 -5.0351,-3.83986 -5.0352,-3.83985 0.554,-0.89631 c 0.9336,-1.51059 3.075,-1.0258 9.9276,2.24752 l 6.5815,3.14382 2.4634,-1.12238 2.4634,-1.12238 0,-7.88189 0,-7.8819 -2.5385,-3.74069 -2.5385,-3.74069 1.1609,-1.39885 1.161,-1.39886 2.7225,0 2.7226,0 1.6076,1.77635 1.6075,1.77635 1.2975,6.85053 1.2974,6.85052 1.2775,0.49067 1.2775,0.49067 7.3342,-5.61754 c 4.034,-3.08963 7.7621,-5.61753 8.2849,-5.61753 0.5227,0 2.8871,-0.9357 5.2542,-2.07932 l 4.3037,-2.07933 2.3841,0.59838 2.3841,0.59837 0,0.96656 0,0.96655 -5.75,2.93695 c -3.1625,1.61532 -9.5748,5.5593 -14.2496,8.76439 l -8.4997,5.82745 -1.6803,3.5 c -1.9258,4.01148 -14.101,37.49327 -15.8182,43.5 l -1.1434,4 -0.7942,10 -0.7942,10 0.8255,6 0.8255,6 2.9329,9.52735 c 1.6131,5.24005 4.1493,12.41734 5.636,15.94954 l 2.703,6.42218 5.4902,6.05047 5.4902,6.05046 5.0012,10.5 c 2.7507,5.775 5.9117,12.25107 7.0244,14.39126 1.1126,2.14019 3.3127,7.70669 4.889,12.37001 1.5763,4.66332 3.2677,8.98725 3.7585,9.60875 0.4909,0.62149 1.4515,2.92998 2.1347,5.12998 1.3981,4.50219 11.8705,28.58457 15.1054,34.73643 0.5022,0.95504 0.9131,2.34779 0.9131,3.09501 l 0,1.35858 1.9175,1.73535 1.9176,1.73535 2.3324,-0.33036 2.3325,-0.33036 5,-10.14141 c 9.5074,-19.28372 14.3963,-31.05743 15.4435,-37.19203 1.1712,-6.86082 6.66139,-26.8258 9.12049,-33.16656 2.6317,-6.78564 5.0904,-15.45229 8.0854,-28.5 l 2.2955,-10 -0.1875,-5.13875 c -0.103,-2.82631 -1.1286,-9.80131 -2.2789,-15.5 l -2.0916,-10.36125 -2.5564,-6.16275 -2.5564,-6.16276 0.672,-1.08724 0.6719,-1.08725 1.5094,0 1.5095,0 4.3058,4.49393 4.3058,4.49393 2.8757,5.50369 c 1.5817,3.02704 3.1652,5.50477 3.5188,5.50607 1.221,0.005 1.8037,-3.0622 3.4258,-18.03053 l 1.6281,-15.02396 -0.5588,-4.22156 c -0.3073,-2.32186 -1.2309,-11.2415 -2.0524,-19.8214 -0.8215,-8.57991 -1.961,-18.47991 -2.5321,-22 -0.5712,-3.5201 -1.0489,-9.10017 -1.0617,-12.40017 l -0.023,-6 -1.4487,-6 -1.4488,-6 -0.036,-8.19098 -0.036,-8.19099 -0.8576,-0.53002 -0.8576,-0.53002 -8.418,2.07817 -8.4181,2.07817 -3.72429,-1.55614 -3.7244,-1.55614 0.01,-1.30102 0.01,-1.30103 2.5007,-1.15993 2.5007,-1.15992 2.74149,1.02971 2.7415,1.02971 3.75,-2.21856 c 2.0625,-1.22021 3.75,-2.5352 3.75,-2.9222 0,-0.387 -2.7513,-3.25942 -6.1139,-6.38315 l -6.1139,-5.67951 0.5789,-1.50876 0.579,-1.50876 7.7244,3.5201 c 4.2483,1.93606 10.8687,5.53187 14.7119,7.99069 l 6.9871,4.47058 1.6897,0 1.6898,0 2.0779,-5 2.0779,-5 1.1492,0 1.1493,0 -0.7048,-5.25 c -0.3876,-2.8875 -1.2957,-6.68574 -2.018,-8.44053 l -1.3131,-3.19052 1.4113,-1.17135 1.4114,-1.17135 1.483,0.56905 1.4829,0.56906 0.6382,2.54282 0.6382,2.54282 2.3916,0 2.3916,0 0,4.34803 0,4.34803 -4.1053,12.40197 -4.1054,12.40197 -0.4934,6 -0.4935,6 3.4671,11.5 c 1.9069,6.325 4.2498,14.7625 5.2065,18.75 l 1.7394,7.25 0.8044,0 c 0.4423,0 5.4563,-2.93592 11.1422,-6.52427 l 10.338,-6.52427 4.7689,-5.72573 4.769,-5.72573 2.0935,-5.5 2.0935,-5.5 0.6376,-10 0.6375,-10 1.4705,0 1.4704,0 1.2648,2.5 1.2648,2.5 0.03,5.5 0.03,5.5 0.9225,1.45833 0.9224,1.45834 4.6011,-2.29789 4.6011,-2.29789 2.5067,1.64244 2.5067,1.64245 1.1281,2.476 1.1282,2.47601 -2.1671,2.7211 c -1.1919,1.49661 -2.9033,4.07111 -3.8032,5.72111 -0.8998,1.65 -3.8278,5.33556 -6.5066,8.19014 l -4.8706,5.19014 0,1.7096 0,1.70961 8.924,-0.63345 8.9239,-0.63344 3.1303,1.31621 3.1304,1.3162 -1.3043,0.97604 c -0.7174,0.53683 -5.3543,1.76202 -10.3043,2.72265 l -9,1.74661 -6,2.95352 -6,2.95352 -4,5.17626 c -2.2,2.84695 -5.9075,8.35554 -8.2389,12.24133 l -4.239,7.06506 -2.1591,6.5 -2.1591,6.5 -5.9639,11.29412 -5.964,11.29412 -5.8294,16.20588 c -6.9594,19.34754 -12.9967,34.51392 -19.9854,50.20588 -2.4709,5.54789 -6.3823,20.00154 -8.795,32.5 -1.1148,5.775 -3.6563,17.925 -5.6478,27 -5.7696,26.29217 -7.3486,34.69033 -9.0247,48.000002 -0.8658,6.875 -1.8437,14.637499 -2.1732,17.249999 l -0.5991,4.75 0.6299,0 c 0.3464,0 6.7091,-3.02978 14.1393,-6.73284 l 13.4962,-6.732839 0,-0.86279 c 0,-0.47453 0.841,-2.05726 1.8688,-3.51716 1.0279,-1.4599 2.1789,-3.77937 2.5579,-5.15437 0.8321,-3.018572 3.0992,-8.749802 6.1314,-15.500002 1.2353,-2.75 2.7834,-7.00916 3.4403,-9.4648 l 1.1944,-4.46481 1.9036,-2.42005 c 1.047,-1.33103 1.9036,-2.7832 1.9036,-3.22704 0,-0.44384 1.7865,-4.54566 3.97,-9.11514 l 3.97,-8.30816 3.0451,-3.32829 3.0452,-3.32829 1.2348,0.43204 1.2349,0.43203 -0.3475,1.89625 c -0.1911,1.04294 -2.7391,9.09626 -5.6621,17.89626 -9.2223,27.76391 -12.475,39.500002 -10.9476,39.500002 0.2293,0 4.8136,-1.74558 10.1871,-3.879072 5.3736,-2.13349 15.8451,-6.03225 23.2701,-8.66392 7.425,-2.63166 13.6184,-4.86699 13.7631,-4.96739 0.7186,-0.49849 -2.9082,-7.35411 -5.1969,-9.82366 -1.4339,-1.54721 -3.7311,-5.03135 -5.105,-7.74253 l -2.4979,-4.92942 -1.9817,-1.23755 c -1.0899,-0.68065 -1.9816,-1.56481 -1.9816,-1.96478 l 0,-0.72723 1.9041,0.71777 c 1.0472,0.39478 4.8816,3.41778 8.5209,6.71778 l 6.6169,6 2.9876,5.25 2.9876,5.25 1.1017,0 c 0.6059,0 6.2742,-1.61471 12.5961,-3.58825 l 11.4945,-3.58825 -0.5902,-34.16175 c -0.3246,-18.78896 -0.9866,-40.23675 -1.4711,-47.66175 l -0.8809,-13.5 -1.6336,-4.37573 -1.6336,-4.37572 0,-3.25183 0,-3.25183 1.5838,-1.31446 1.5838,-1.31445 1.6662,1.04102 c 0.9164,0.57256 3.3869,3.54258 5.49,6.60006 l 3.8238,5.55904 0.7392,5.34195 c 0.4065,2.93807 1.2211,6.24195 1.81,7.34195 0.589,1.1 1.3989,4.025 1.7997,6.5 0.4008,2.475 1.0396,5.07349 1.4195,5.77441 l 0.6908,1.27441 5.0909,-11.27441 c 2.8,-6.20092 6.5836,-15.32441 8.4079,-20.27441 1.8244,-4.95 4.5439,-11.25 6.0434,-14 1.4995,-2.75 4.3765,-8.43667 6.3933,-12.63705 l 3.6671,-7.63705 2.5231,-1.35032 2.5231,-1.35031 3.8695,4.48736 3.8695,4.48737 0,1.60757 c 0.001,0.88416 -2.4319,7.85916 -5.4076,15.5 -2.9756,7.64084 -6.8211,18.39243 -8.5455,23.89243 -3.2581,10.39156 -7.2416,20.96972 -9.7201,25.81168 l -1.4393,2.81167 -1.427,8.18833 c -1.7062,9.78968 -2.9535,15.22535 -6.2389,27.18832 l -2.4716,9 -0.1237,6.16181 c -0.068,3.38899 0.1014,6.38313 0.3764,6.65364 0.275,0.27051 9.275,-1.76763 20,-4.52919 10.725,-2.76157 21.1324,-5.42072 23.1276,-5.90923 l 3.6276,-0.88819 5.3724,-8.20248 c 4.8243,-7.36569 12.2449,-17.2943 21.0016,-28.09992 1.6997,-2.09746 5.4035,-5.62979 8.2306,-7.84963 2.8271,-2.21984 7.6152,-6.36992 10.6402,-9.2224 3.025,-2.85249 6.7908,-6.10348 8.3685,-7.22442 l 2.8685,-2.03809 3.1474,-6.42009 3.1474,-6.42009 2.8474,-1.36474 2.8474,-1.36474 2.4905,1.13472 2.4904,1.13473 3.2424,-0.60827 3.2424,-0.60827 1.6538,1.65385 1.6539,1.65386 0,1.98466 0,1.98465 -3,6.04654 c -1.65,3.3256 -3,6.62428 -3,7.33041 l 0,1.28388 3.25,0.70676 c 3.5933,0.78143 3.3132,0.78204 27.0748,-0.0589 l 16.8248,-0.59545 1.9252,1.74229 1.9252,1.7423 0,2.19002 0,2.19002 -1.8287,1.65499 -1.8288,1.65499 -2.8425,0 -2.8425,0 -1.7901,1.61999 -1.7901,1.61999 -7.7886,0.19291 -7.7887,0.1929 -5.0252,2.59005 c -2.7639,1.42452 -8.3889,3.59997 -12.5,4.83433 -4.1112,1.23435 -12.4248,4.02857 -18.4748,6.20938 l -11,3.9651 -3.6738,4.13767 c -2.0206,2.27573 -3.8909,4.92518 -4.1564,5.88768 l -0.4826,1.75 0.7375,0 c 0.4055,0 13.0759,-2.97044 28.1563,-6.60099 l 27.419,-6.60099 30.5,1.10051 30.5,1.10052 17.4018,1.59146 c 9.5709,0.8753 24.6459,2.6172 33.5,3.87089 8.854,1.2537 16.3723,2.12541 16.7072,1.93714 0.335,-0.18827 0.8999,-2.81745 1.2555,-5.84263 0.3555,-3.02518 1.2897,-7.87533 2.0759,-10.77812 0.7861,-2.90278 2.1375,-7.90211 3.0031,-11.1096 0.8655,-3.2075 2.007,-6.64137 2.5365,-7.63083 1.5902,-2.97127 3.8813,-10.27691 4.5594,-14.53861 l 0.6367,-4.00125 -2.2161,-9.49875 -2.2161,-9.49875 -3.0444,-6.27755 -3.0444,-6.27755 1.0238,-1.02379 1.0238,-1.02378 2.8986,3.45316 c 1.5943,1.89924 4.3866,5.29734 6.2052,7.55134 l 3.3064,4.09817 1.3683,0 1.3684,0 1.465,-4.75 c 0.8058,-2.6125 3.5396,-10.68105 6.0752,-17.93012 l 4.6102,-13.18012 0,-2.9591 0,-2.95909 1.9223,-2.36079 1.9223,-2.36078 1.0777,2.8151 1.0777,2.8151 0,3.54056 c 0,1.9473 -0.6321,6.08051 -1.4046,9.1849 -0.7725,3.10438 -1.7001,7.78184 -2.0612,10.39434 l -0.6567,4.75 1.1517,0 c 0.6335,0 3.4736,-1.95366 6.3113,-4.34146 l 5.1595,-4.34146 4.7612,-1.29163 4.7611,-1.29163 4.7357,-3.36691 c 2.6046,-1.8518 5.2995,-3.36691 5.9888,-3.36691 l 1.2532,0 0,1.32569 0,1.32568 -2.25,2.06401 c -1.2375,1.1352 -4.6275,3.25381 -7.5333,4.70802 -2.9058,1.45421 -7.7192,4.20225 -10.6964,6.10674 l -5.4131,3.46273 -2.4355,3.25356 c -3.7994,5.07546 -5.3637,8.71924 -7.5991,17.70097 l -2.0726,8.32736 -0.01,3.61262 -0.01,3.61262 -1.993,8.31335 c -1.0962,4.57234 -1.993,9.38328 -1.993,10.69098 l 0,2.37764 -1,0.61803 -1,0.61803 0,2.10324 c 0,1.15678 -1.4154,7.16019 -3.1454,13.34091 l -3.1454,11.23766 0.5597,1.45857 0.5597,1.45857 4.3357,0.68571 c 2.3846,0.37714 9.6011,1.84944 16.0365,3.27177 l 11.7009,2.58605 3.1259,-2.63025 c 1.7192,-1.44664 3.5367,-2.63026 4.0389,-2.63026 0.5022,0 3.9551,-1.93371 7.6733,-4.29714 3.7181,-2.36343 9.4602,-5.80526 12.7602,-7.64851 3.3,-1.84325 11.175,-7.04466 17.5,-11.55868 l 11.5,-8.20731 8,-4.25158 c 4.4,-2.33837 9.6536,-5.44075 11.6746,-6.89418 8.3501,-6.00503 22.8011,-18.30538 26.8037,-22.81469 l 4.2854,-4.82791 1.3266,-3.11849 1.3266,-3.11849 -0.6076,-3.88151 -0.6077,-3.88151 -2.6645,-3.5 c -1.4654,-1.925 -3.6721,-5.25365 -4.9038,-7.397 l -2.2393,-3.89699 0.943,-0.94302 0.943,-0.94302 5.6206,5.09001 5.6206,5.09002 1.881,0 1.881,0 0.5745,-2.25 c 0.316,-1.2375 2.8043,-5.33831 5.5295,-9.1129 l 4.955,-6.86291 2.8289,-1.74392 c 1.5559,-0.95915 3.6861,-2.70834 4.7339,-3.88709 l 1.9107,-2.1432 1.345,0 1.345,0 0,1.87756 0,1.87755 -1.4183,1.17706 c -1.7992,1.49575 -9.5787,14.32098 -9.5787,15.79646 0,0.60962 -1.575,4.39487 -3.5,8.41167 -1.925,4.0168 -3.5,7.86514 -3.5,8.55185 0,0.68672 -1.125,3.70808 -2.5,6.71414 l -2.5,5.46556 0,2.06407 0,2.06408 2.9732,0 2.9733,0 4.7767,-2.10284 c 2.6273,-1.15657 7.0268,-3.17854 9.7768,-4.49329 2.75,-1.31474 7.3624,-3.28685 10.2498,-4.38247 l 5.2497,-1.99202 12.3094,-8.45692 12.3093,-8.45693 4.4409,-4.96733 c 5.552,-6.21017 12.2993,-14.93545 13.8407,-17.8982 l 1.1706,-2.25 1.3564,0 1.3564,0 0.6501,2.59023 0.6501,2.59023 -4.2917,9.54336 -4.2917,9.54336 -5.9576,5.98494 c -3.2767,3.29172 -7.6796,7.07192 -9.7841,8.40043 -2.1045,1.32852 -4.711,3.30018 -5.7923,4.38147 l -1.966,1.96598 0,1.4121 0,1.4121 3.8248,0.6462 3.8248,0.64619 10.4252,-2.43722 10.4252,-2.43723 6.9451,-3.25222 6.9451,-3.25222 4.5549,0.88115 4.5549,0.88115 0,1.40457 0,1.40458 -5.4676,1.85848 -5.4675,1.85847 -0.8321,1.48695 -0.8322,1.48695 -1.285,0 c -0.7068,0 -4.6219,1.63209 -8.7003,3.62687 -10.7993,5.28201 -20.4572,9.20345 -28.4153,11.53754 l -7,2.05309 -10.5,0.91916 c -5.775,0.50554 -11.4,1.07417 -12.5,1.26363 -1.1,0.18945 -2.583,0.40189 -3.2955,0.47209 -0.7125,0.0702 -2.4,1.23217 -3.75,2.58217 l -2.4545,2.45454 0,2.04207 0,2.04208 6.4609,6.65442 6.4608,6.65442 2.0959,4.45885 2.096,4.45885 -0.5965,0.59644 -0.5964,0.59644 -0.5683,-2.17321 -0.5683,-2.17321 -1.6421,-0.5236 c -0.9031,-0.28798 -4.06,-2.50873 -7.0153,-4.93501 l -5.3733,-4.41142 -5.6267,-1.81651 -5.6267,-1.8165 -7,-0.0316 -7,-0.0316 -21,9.32659 c -11.55,5.12962 -23.025,10.61186 -25.5,12.18276 -2.475,1.5709 -7.88,4.5803 -12.0112,6.68755 l -7.5111,3.83137 -7.7389,5.82442 -7.7388,5.82443 0,1.26302 0,1.26302 6.75,1.79745 c 10.2864,2.73916 37.0477,12.04014 53.25,18.50727 48.1171,19.20581 90.8124,43.221411 132.8571,74.730561 l 15.3571,11.50892 2.9797,-2.97976 2.9798,-2.97976 1.9448,-5.89392 c 1.0696,-3.24166 2.8634,-10.39392 3.9861,-15.89392 l 2.0414,-10 -0.6022,-4.5 -0.6021,-4.5 -2.107,-4.67577 -2.107,-4.675769 -2.2373,-0.56151 -2.2372,-0.56151 -1.0827,-2.76272 c -0.5955,-1.5195 -1.215,-4.29312 -1.3766,-6.163602 l -0.2939,-3.40088 1.125,-0.3908 1.1251,-0.39079 4.2638,4.09672 c 2.3451,2.253202 5.7368,5.220192 7.5371,6.593302 l 3.2732,2.49658 1.4822,3.704379 1.4822,3.70439 0.7253,6.7728 0.7253,6.77281 1.8146,0.97119 1.8147,0.97118 4.2514,0 4.2514,0 4.6819,-3.94787 c 2.5751,-2.17133 7.0036,-5.31673 9.841,-6.98977 2.8375,-1.67304 6.5002,-4.03341 8.1393,-5.24526 l 2.9802,-2.20337 1.1161,1.11609 1.1161,1.11609 -2.1229,2.98142 c -1.1677,1.63977 -2.123,3.42853 -2.123,3.97501 0,0.54648 -5.0625,5.72103 -11.25,11.499 l -11.25,10.50541 -3,4.20431 c -1.65,2.31238 -5.0949,6.58856 -7.6553,9.50263 -4.595,5.22971 -12.8447,16.98772 -12.8447,18.30702 1e-4,0.80008 6.5852,6.17929 7.5646,6.17929 0.3692,0 2.1619,-1.2375 3.9836,-2.75 6.2084,-5.15457 12.2088,-9.13214 19.6697,-13.03879 l 7.4523,-3.90217 27.801,-27.90452 c 28.6983,-28.805229 34.223,-34.924679 37.721,-41.781301 l 2.0485,-4.01532 -0.4815,-6.72912 -0.4815,-6.72912 -2.6478,-4.51815 -2.6478,-4.51815 -6.5636,-5.80668 c -3.61,-3.19367 -7.7684,-6.44886 -9.241,-7.23375 -3.8022,-2.02654 -18.0451,-6.07293 -21.3761,-6.07293 l -2.8014,0 0,-1.52475 0,-1.52475 2.5997,-0.98842 2.5998,-0.98842 9.4002,0.66077 9.4003,0.66077 -0.035,-1.3976 c -0.02,-0.76868 -0.6786,-2.5226 -1.4646,-3.8976 l -1.4291,-2.5 -0.035,-2.2927 -0.035,-2.2927 3.7671,-5.2073 c 2.0719,-2.86401 5.0718,-7.13951 6.6664,-9.50109 1.5945,-2.36159 3.3175,-4.55233 3.8288,-4.86833 l 0.9296,-0.57453 1.6269,1.62685 1.6268,1.62685 -1.9728,3.67654 -1.9728,3.67653 0.1504,6.15955 0.1504,6.15956 2.0214,3.90538 2.0214,3.90539 5.8282,5.5895 c 3.2055,3.07423 7.8995,7.23673 10.4312,9.25 l 4.603,3.6605 1.992,0 1.992,0 1.5371,-1.75 1.5371,-1.75 2.6179,-7.66797 2.6179,-7.66797 0,-3.01693 c 0,-1.65931 0.4592,-4.22477 1.0205,-5.70101 0.5613,-1.47624 1.4514,-5.72247 1.9781,-9.43605 l 0.9576,-6.75197 3.0103,-5.87905 c 2.6401,-5.15584 7.3099,-11.37905 8.5388,-11.37905 0.2334,0 0.9252,0.93594 1.5374,2.07987 l 1.1132,2.07988 0.3048,11.67012 c 0.1676,6.41857 0.6327,13.35763 1.0334,15.42013 l 0.7285,3.75 1.9987,0 1.9987,0 5.9414,-3.16671 5.9414,-3.16672 2.1986,-2.77083 c 1.2092,-1.52396 3.0071,-3.92394 3.9953,-5.33329 l 1.7967,-2.56245 1.9533,0 1.9533,0 0,3.94098 0,3.94099 -1,0.61803 -1,0.61803 -0.025,1.69099 -0.025,1.69098 -3.425,4.6674 -3.425,4.66741 -4.8002,3.28405 -4.8002,3.28406 -8.5791,9.04854 c -4.7185,4.9767 -10.231,10.90308 -12.25,13.16974 l -3.6709,4.1212 0,1.25661 0,1.25661 3.75,-0.62487 c 2.0625,-0.34368 5.4833,-0.9175 7.6017,-1.27516 l 3.8517,-0.65028 -0.3652,1.89623 -0.3652,1.89623 -6.4865,3.24945 c -3.5676,1.7872 -8.3586,3.97091 -10.6467,4.85269 l -4.1602,1.60323 -2.6727,2.7897 c -2.7706,2.89182 -5.2439,6.28242 -15.6886,21.507162 l -6.1743,8.999999 -5.6614,6 c -3.1137,3.3 -8.2022,9.375 -11.3077,13.5 -3.1055,4.125 -7.9027,10.10902 -10.6606,13.29782 -2.7579,3.18881 -5.0143,6.21218 -5.0143,6.71862 l 0,0.92079 1.75,-0.58998 c 8.244,-2.77933 26.6054,-10.36314 34.8308,-14.38613 5.5445,-2.71176 11.8445,-5.56083 14,-6.33127 4.6661,-1.66775 31.6099,-14.48716 39.4192,-18.75501 19.3875,-10.595359 59.3247,-26.107591 79.7842,-30.989401 l 8.2842,-1.97667 8.7158,-0.42323 c 4.7937,-0.23277 11.6408,-0.87819 15.2158,-1.43427 l 6.5,-1.01106 13,-0.0277 13,-0.0277 6.4035,-1.03899 6.4034,-1.039 1.0094,1.00939 1.0094,1.00939 -2.6229,0.99723 c -1.4426,0.54847 -3.4559,1.83017 -4.4739,2.84822 l -1.851,1.851 -9.939,3.22995 c -5.4664,1.77647 -10.8389,3.62308 -11.9389,4.10358 -1.1,0.48049 -3.8,1.31914 -6,1.86365 -2.2,0.54451 -7.7468,2.336712 -12.3262,3.982662 l -8.3263,2.99264 -2.4237,2.27701 c -1.3331,1.25235 -2.4238,2.76879 -2.4238,3.36985 l 0,1.092839 8.25,2.86477 c 4.5375,1.57562 15.7875,5.82502 25,9.44311 l 16.75,6.57836 0,1.21373 0,1.21373 5.3397,2.70375 c 2.9369,1.48707 7.4148,4.20963 9.951,6.05014 l 4.6113,3.34638 1.0842,2.02586 1.0842,2.02586 -1.9128,0 -1.9127,0 -1.3725,-1.66169 -1.3724,-1.66169 -5.116,-2.26646 -5.1161,-2.26646 -7.5654,-1.05225 c -8.8859,-1.23591 -15.3155,-2.613 -19.3211,-4.13814 -1.5848,-0.60342 -6.6159,-1.52211 -11.1804,-2.04154 l -8.299,-0.94442 -8.201,-2.81964 -8.201,-2.81963 -7.5647,-1.27381 -7.5648,-1.27381 -10.9352,2.06947 c -6.0144,1.1382 -14.6702,2.52778 -19.2351,3.08796 l -8.2998,1.01849 -1.6784,0.93927 -1.6784,0.93927 2.4782,0.96826 c 1.363,0.53254 6.9573,2.19703 12.4318,3.69887 5.4744,1.50183 16.2744,4.81731 24,7.36774 l 14.0464,4.63713 12,7.43811 c 6.6,4.09097 12.1875,7.57691 12.4167,7.74655 0.2291,0.16963 0.1053,0.61975 -0.2752,1.00026 l -0.6918,0.69183 -6.2249,-3.12163 -6.2248,-3.12164 -11,-1.69716 -11,-1.69716 -11,-3.82905 -11,-3.82906 -7.5,-1.09117 c -4.125,-0.60014 -10.65,-1.8038 -14.5,-2.6748 l -7,-1.58364 -12.5,0.0213 -12.5,0.0214 -13.5,5.06745 c -15.0986,5.66752 -24.9718,9.68187 -33.0554,13.44002 -2.9945,1.39221 -10.3946,4.63413 -16.4446,7.20426 -6.05,2.57014 -12.9076,5.53568 -15.2391,6.59009 -2.3315,1.05442 -4.4518,1.91712 -4.7117,1.91712 -0.4703,0 -6.2269,2.64733 -35.2992,16.2332504 l -15.25,7.12656 0,0.97924 c 0,0.53858 4.3961,5.52012 9.769,11.0700896 31.0245,32.04668 59.8398,70.77056 83.4091,112.090859 l 7.4153,13 2.9535,0.29473 2.9535,0.29473 5.6678,-5.05161 5.6677,-5.0516 5.4647,-10.74312 c 6.8348,-13.43673 8.9464,-19.673899 11.7038,-34.568879 l 2.1892,-11.82576 -0.509,-1.94657 -0.509,-1.94657 1.5064,-3.01977 1.5065,-3.01977 -0.3443,-5.7079 -0.3442,-5.70791 1.5,0 1.5,0 1.6582,5 c 0.912,2.75 1.9826,7.5875 2.3791,10.75 l 0.721,5.75 1.0242,0 c 0.5634,0 3.3812,-2.22913 6.262,-4.95361 l 5.2377,-4.95362 2.6555,-0.66648 2.6554,-0.66648 0.5378,0.53773 0.5377,0.53773 -9.9753,9.83236 -9.9753,9.83237 -2.9594,6 c -3.6111,7.32131 -4.9063,12.497689 -5.8176,23.249999 l -0.6993,8.25 1.669,0 c 0.9179,0 3.5057,-0.93701 5.7505,-2.08224 2.2448,-1.14523 7.0644,-3.11845 10.7102,-4.38493 3.6457,-1.26648 10.6097,-3.95003 15.4754,-5.96343 l 8.8468,-3.66074 6.6532,-4.109819 6.6532,-4.10982 6.824,-6.59451 c 7.812,-7.54919 9.2071,-9.7848 10.188,-16.32584 l 0.7055,-4.70498 -3.0318,-3.03184 -3.0319,-3.03185 -2.6426,0 c -1.4535,0 -3.5131,-0.46583 -4.5769,-1.03518 l -1.9343,-1.03519 0,-2.33909 c 0,-1.2865 0.6882,-4.2898 1.5294,-6.67399 l 1.5295,-4.33491 1.1728,-0.72484 1.1728,-0.72483 0.7978,0.49303 0.7977,0.49303 0,2.39393 c 0,1.31667 0.5288,3.5545 1.1751,4.97297 l 1.1751,2.57903 4.5765,3.28793 4.5766,3.28793 3.4983,5.1543 3.4984,5.15431 1.0268,0.0258 c 0.5648,0.0142 4.1527,-3.12421 7.9732,-6.97421 3.8205,-3.85 7.3914,-7 7.9353,-7 0.544,0 2.8929,-1.86854 5.2199,-4.15232 l 4.2309,-4.15232 2.4984,1.63698 2.4983,1.63698 3.1066,4.51534 c 1.7087,2.48344 3.468,4.51534 3.9097,4.51534 0.8676,0 7.326,-3.36707 13.3456,-6.95763 l 3.7447,-2.23365 0.5826,1.51832 0.5826,1.51832 -1.9172,1.91724 c -1.0545,1.05448 -4.5856,3.56427 -7.847,5.57732 l -5.9298,3.66008 -2.7303,0 -2.7303,0 -3.8422,-3.84222 -3.8422,-3.84222 -3.9279,3.66384 c -2.1603,2.01511 -4.5938,4.08161 -5.4077,4.59222 -0.814,0.51061 -3.6992,4.24037 -6.4115,8.28837 l -4.9316,7.35998 -7.2815,7.7403 -7.2815,7.74029 -10.5369,8.317349 c -5.7954,4.57455 -10.537,8.69192 -10.537,9.14972 l 0,0.83237 1.8434,0 c 3.0562,0 12.1238,-3.45609 21.6566,-8.25434 l 9,-4.53004 3,-2.82741 c 1.65,-1.55508 6.15,-4.903789 10,-7.441579 10.3557,-6.82614 22.0343,-16.3709 30.4631,-24.89722 l 7.4631,-7.54941 3.5369,-1.23978 c 1.9453,-0.68189 8.2619,-2.40886 14.0369,-3.83773 5.775,-1.42886 10.95,-2.94982 11.5,-3.37991 0.55,-0.43008 3.7116,-1.07653 7.0257,-1.43655 l 6.0256,-0.65458 1.8869,1.37967 1.8868,1.37966 -0.5729,1.49279 -0.5728,1.49278 -6.0622,0.63363 c -3.3343,0.34849 -9.2134,1.35034 -13.0649,2.22633 l -7.0026,1.59271 -8.4675,5.17549 c -7.8387,4.79112 -12.4238,8.27282 -21.4286,16.27168 l -3.4855,3.09619 0.6346,1.65381 0.6346,1.65381 3.7814,-0.0175 c 3.8548,-0.0178 17.1606,-2.03268 25.2814,-3.82833 2.475,-0.54726 7.4805,-1.30217 11.1234,-1.67756 l 6.6234,-0.68253 2.2433,1.20056 2.2432,1.20056 -1.3666,1.23884 c -0.7517,0.68136 -3.3917,1.8086 -5.8667,2.50496 -2.475,0.69637 -8.6086,3.24496 -13.6302,5.66354 -5.0216,2.41858 -9.6905,4.39742 -10.3754,4.39742 -0.6848,0 -6.2512,2.124889 -12.3698,4.721969 l -11.1246,4.72197 -16.7676,9.77254 c -9.2222,5.3749 -19.3472,11.14577 -22.5,12.82417 -3.1528,1.67839 -6.8574,3.66666 -8.2324,4.41837 -1.375,0.75171 -7.7797,3.93657 -14.2326,7.07746 l -11.7327,5.71071 0.4732,0.76562 c 0.2603,0.4211 1.715,1.07384 3.2327,1.45054 l 2.7594,0.68491 2.25,2.10018 2.25,2.10019 0,1.32568 0,1.32569 -1.0136,0 c -0.5574,0 -1.7949,-0.43034 -2.75,-0.95631 -0.955,-0.52598 -4.2807,-1.65098 -7.3903,-2.5 l -5.6548,-1.54359 -6.6785,0 -6.6785,0 -6.6676,2.87308 c -3.6672,1.58019 -8.9176,3.68268 -11.6676,4.67219 -2.75,0.98952 -5.5816,2.24256 -6.2924,2.78454 l -1.2924,0.98543 0.9277,0.92762 0.9276,0.92762 5.8647,0.66476 5.8648,0.66476 24,0 24,0 15,-5.82502 c 8.25,-3.20376 19.95,-8.23629 26,-11.18339 l 11,-5.35836 9,-1.66783 c 4.95,-0.91731 11.6361,-2.38326 14.8581,-3.25766 l 5.858,-1.58983 2.3877,-3.78233 2.3877,-3.78234 4.9394,-3.77662 c 2.7167,-2.07714 7.617,-5.68912 10.8895,-8.02662 l 5.9501,-4.25 1.6981,0 1.6981,0 -0.3444,1.03296 c -0.1893,0.56813 -4.5783,4.28063 -9.7533,8.25 -8.9254,6.84618 -12.0889,10.03043 -11.0235,11.09586 0.2611,0.2611 9.6952,0.62019 20.9646,0.79796 l 20.4899,0.32322 1.75,-0.85699 1.75,-0.85699 0,1.08131 0,1.08131 -3.1856,1.64736 -3.1857,1.64736 -9.5643,0.77799 -9.5644,0.77798 -2.5999,1.01852 -2.5999,1.01852 -8.4001,0.65474 -8.4001,0.65475 -2.5,0.94658 -2.5,0.94658 -4.7248,9.27141 -4.7247,9.2714 -7.2753,8.05113 c -4.0013,4.42812 -7.9134,9.24653 -8.6934,10.70758 l -1.4181,2.65645 0.6235,0.62354 0.6235,0.62355 16.7947,-1.19458 16.7946,-1.19457 6.1216,-1.3833 6.1216,-1.38329 10.8784,-5.62299 c 5.9831,-3.09265 11.5534,-6.1843 12.3784,-6.87035 0.825,-0.68604 6.0214,-3.79614 11.5475,-6.91134 l 10.0475,-5.66399 7.4525,-2.61197 7.4525,-2.61197 4,-0.14787 4,-0.14786 0.4229,1 0.4229,1 -4.4229,1.63381 -4.4229,1.63381 0,1.83438 0,1.83437 3.9456,2.21322 3.9456,2.21322 6.1363,1.0686 c 3.375,0.58772 7.7604,1.06859 9.7454,1.06859 l 3.6091,0 0.5725,0.92631 0.5724,0.9263 -5.5134,1.14459 -5.5135,1.1446 -5.4695,-1.13546 -5.4695,-1.13546 -6.2056,-3.10101 -6.2057,-3.10101 -7.5748,1.2493 -7.5749,1.24931 -6.0857,3.37333 c -8.3437,4.62492 -16.7471,10.35089 -17.7302,12.08109 l -0.8158,1.43589 8.3158,-0.5967 c 4.5738,-0.32819 11.6168,-1.0528 15.6512,-1.61026 l 7.3353,-1.01355 0.5382,0.53823 0.5383,0.53824 -0.5505,1.43462 -0.5505,1.43461 -13.3231,3.15692 c -7.3276,1.73631 -16.473,3.86987 -20.323,4.74125 -3.85,0.87137 -11.05,2.69858 -16,4.06046 -4.95,1.36189 -12.375,3.26148 -16.5,4.22132 -4.125,0.95984 -8.7375,2.24971 -10.25,2.86637 l -2.75,1.12121 0.029,1.27475 0.029,1.27475 7.1445,6.5 c 3.9294,3.575 10.14,9.3125 13.8011,12.75 l 6.6567,6.25 8.42,-0.0225 8.4199,-0.0225 12,-3.61389 12,-3.61388 7.3057,-0.44456 7.3057,-0.44457 6.9453,1.17148 6.9453,1.17147 2.1658,1.75372 2.1657,1.75372 -0.6215,1.61956 -0.6214,1.61956 -4.742,-2.09758 -4.7419,-2.09757 -9.2178,0.64794 -9.2178,0.64795 -3.8355,1.34359 c -2.1096,0.73898 -6.0856,1.66842 -8.8356,2.06543 l -5,0.72184 -8.25,4.47277 -8.25,4.47277 0,1.30632 c 0,1.75953 12.6067,24.15468 16.1932,28.76637 l 2.8599,3.67744 4.4771,1.70982 4.4771,1.70981 5.4964,-0.64598 5.4963,-0.64599 0,1.48568 0,1.48568 -2.4392,1.59825 -2.4393,1.59825 -8.3107,-0.43884 c -4.571,-0.24137 -9.7133,-0.8377 -11.4275,-1.3252 l -3.1168,-0.88635 -2.6332,-3.14436 -2.6333,-3.14435 0,-1.38453 c 0,-0.76148 -2.7435,-5.6268 -6.0966,-10.81182 l -6.0966,-9.4273 -7.1534,-7.38648 -7.1534,-7.38649 -7,-5.25661 c -3.85,-2.89113 -11.2301,-7.79943 -16.4003,-10.90733 l -9.4004,-5.65074 -1.8424,0 c -1.0133,0 -10.2832,-3.1812 -20.5997,-7.06933 l -18.7574,-7.06934 -6.5,-1.34744 -6.5,-1.34745 -7.5,-3.15572 -7.5,-3.15572 -14.5773,-3.92895 c -8.0175,-2.16092 -18.8175,-4.84322 -24,-5.96067 l -9.4227,-2.03172 -7.9189,-0.62807 -7.9188,-0.62807 0.5579,1.41124 c 0.3069,0.77618 3.3563,8.38624 6.7765,16.91124 3.4202,8.525 9.0964,24.16633 12.6139,34.7585 l 6.3954,19.2585 4.9508,19.2415 c 12.1024,47.03605 17.7241,85.22441 20.1535,136.90399 l 1.1336,24.11512 -1.138,24.54278 c -2.286,49.29901 -7.7582,86.98831 -19.2642,132.67961 l -5.0364,20 -6.7795,20.5 c -56.1879,169.90209 -179.821,300.15172 -349.5258,368.23175 -64.4367,25.8499 -137.3039,43.3259 -209.6822,50.2888 l -15.3178,1.4736 -20,-0.1652 c -11,-0.091 -21.8,-0.3117 -24,-0.4908 z m -0.4891,-306.93406 5.374,-1.5959 3.5575,-2.63677 c 1.9567,-1.4503 6.3301,-4.8947 9.7186,-7.6542 11.3011,-9.203 13.8118,-11.1029 17.839,-13.4987 2.2,-1.3088 8.05,-5.3765 13,-9.0393 17.6031,-13.0257 27.9122,-20.1958 36.8954,-25.6613 16.2107,-9.8627 25.985,-15.31802 35.6046,-19.87162 4.125,-1.9527 7.95,-4.109 8.5,-4.7917 1.2651,-1.5706 7.7537,-4.9418 18,-9.352 l 8,-3.4434 5,-0.8689 c 2.75,-0.4779 10.3571,-2.7153 16.9046,-4.9718 13.0925,-4.5123 35.5436,-11.0185 38.0216,-11.0185 l 1.5738,0 0,-1.6056 0,-1.6056 -8.5602,-11.1444 c -4.708,-6.1294 -10.3183,-13.3826 -12.4671,-16.1181 l -3.907,-4.9737 -2.4458,-7.5263 -2.4459,-7.5263 0.7981,-5.5 0.7981,-5.5 2.0271,-4.5 c 1.1149,-2.475 3.2453,-7.425 4.7342,-11 5.1611,-12.392 13.8336,-30.5146 16.0315,-33.5 1.2147,-1.65 3.1013,-4.8 4.1925,-7 l 1.9839,-4 1.2609,-13.31069 1.2608,-13.3107 -0.6653,-5.66077 -0.6653,-5.66077 -2.3839,-4.02853 c -1.3112,-2.2157 -4.0084,-5.60354 -5.9939,-7.52854 -1.9855,-1.925 -4.4455,-5.075 -5.4667,-7 l -1.8568,-3.5 0.8258,-5 c 0.4542,-2.75 0.8526,-5.5625 0.8854,-6.25 l 0.06,-1.25 -1.4578,0 -1.4578,0 -7.8877,7.25 c -7.1095,6.53475 -11.5948,10.22215 -23.1853,19.06082 l -3.6859,2.81082 -9.9128,-3.26974 c -5.452,-1.79836 -10.1377,-3.52239 -10.4127,-3.83118 -0.5393,-0.60553 -5.7891,-3.02072 -6.5661,-3.02072 -0.8934,0 0.9052,5.48197 2.2348,6.81153 0.7322,0.73223 1.3313,1.73326 1.3313,2.22451 0,0.49126 2.3804,5.07162 5.2898,10.17858 2.9094,5.10696 5.7416,10.41038 6.2939,11.78538 l 1.0042,2.5 -0.5439,3.41252 -0.544,3.41252 -1.143,-1.41252 c -0.6287,-0.77689 -2.2471,-3.66252 -3.5965,-6.41252 -1.3494,-2.75 -4.2462,-7.925 -6.4373,-11.5 -2.1912,-3.575 -6.4228,-11.225 -9.4036,-17 l -5.4196,-10.5 -1.5,-1.18151 c -0.825,-0.64984 -3.4988,-1.74499 -5.9418,-2.43367 l -4.4418,-1.25215 -3.0582,-3.45854 c -1.682,-1.9022 -3.8395,-4.63205 -4.7945,-6.06633 l -1.7363,-2.6078 0.5955,-1.88178 0.5955,-1.88178 -2.3284,-4.97133 -2.3285,-4.97133 1.7193,-1.25713 1.7192,-1.25714 0,-1.23887 c 0,-2.39451 -21.9774,-37.77433 -24.8726,-40.04064 -0.3513,-0.275 -1.8966,-2.1875 -3.434,-4.25 l -2.7952,-3.75 -1.4491,0 -1.4491,0 0.012,1.25 c 0.021,2.22844 2.7196,11.1331 4.7729,15.75 1.1007,2.475 2.3338,5.60401 2.7402,6.95336 l 0.7389,2.45336 -1.3936,-1.45336 c -0.7665,-0.79935 -1.9412,-2.69086 -2.6105,-4.20336 l -1.2169,-2.75 -0.9036,0 -0.9036,0 1.3382,3.75 c 0.7361,2.0625 1.3226,4.425 1.3033,5.25 l -0.035,1.5 -2.4089,-5 c -1.3249,-2.75 -2.679,-6.575 -3.009,-8.5 -0.3301,-1.925 -1.2356,-4.91801 -2.0123,-6.65113 l -1.4121,-3.15113 0,-3.59887 0,-3.59887 2,-2 2,-2 1.3521,0 c 0.7437,0 2.8812,1.0234 4.75,2.27423 l 3.3979,2.27423 13.6565,20.47577 13.6566,20.47577 5.7323,11 5.7322,11 4.0911,4.27207 4.091,4.27207 4.0202,1.87385 c 2.211,1.03062 8.0701,3.11555 13.0201,4.63318 4.95,1.51763 10.6696,3.58946 12.7102,4.60408 2.0406,1.01461 4.5665,1.84475 5.6131,1.84475 l 1.903,0 4.3869,-4.87378 c 6.3117,-7.01231 14.6395,-17.41098 21.3238,-26.62622 3.1916,-4.4 6.6987,-8.7875 7.7937,-9.75 l 1.9909,-1.75 3.9625,0 3.9625,0 -0.3339,-1.75 -0.3339,-1.75 -3.8767,-0.95991 -3.8767,-0.95991 -6.6628,-6.54009 c -7.1617,-7.02979 -14.4002,-16.29437 -16.2286,-20.77114 l -1.131,-2.76895 0.2127,-9.5 0.2128,-9.5 2.1857,-2.37888 2.1858,-2.37888 3.2179,-1.37112 3.2179,-1.37112 5.0321,0 5.0321,0 0,-0.92857 c 0,-0.51072 -0.7071,-1.63572 -1.5714,-2.5 l -1.5719,-1.57143 3.0482,0 3.0482,0 3.8465,4.8662 c 2.1156,2.67642 4.3956,6.19182 5.0667,7.81201 l 1.2202,2.94581 8.7066,0.0688 8.7065,0.0687 2.5,0.9787 c 2.1725,0.85048 6.8854,1.99868 15.8938,3.87222 l 2.3938,0.49785 -2.1438,1.50156 -2.1438,1.50157 0,1.8025 0,1.80251 4.085,4.64079 4.085,4.64079 1.415,0 1.415,0 0,1.11658 0,1.11657 -2.25,-0.53584 c -1.2375,-0.29471 -3.257,-0.84823 -4.4878,-1.23003 l -2.2379,-0.69419 -0.6181,1.61063 -0.618,1.61062 2.0326,4.10831 2.0326,4.1083 -2.1767,-1.90293 c -1.1972,-1.04661 -2.8881,-2.43598 -3.7575,-3.08748 l -1.5808,-1.18455 0.4437,5.73201 0.4437,5.732 0.7446,0.80748 c 0.4095,0.44412 4.5212,1.60806 9.1371,2.58653 l 8.3925,1.77905 12.0273,5.49607 12.0274,5.49606 7.2226,5.7948 c 3.9725,3.18714 7.2227,6.10262 7.2227,6.47884 0,0.37623 0.8838,1.63264 1.9639,2.79204 l 1.9639,2.108 0.6028,6.83056 0.6028,6.83057 -1.5667,-1.94113 c -0.8617,-1.06763 -1.5667,-2.58952 -1.5667,-3.38198 0,-3.76163 -7.2697,-12.97673 -13.2609,-16.80971 -4.9516,-3.16783 -16.4562,-9.36719 -17.3834,-9.36719 -1.4269,0 5.1717,6.12997 9.7862,9.09106 l 4.6891,3.00897 4.1562,6.87884 4.1563,6.87884 1.3377,5.07114 1.3378,5.07115 -0.6949,0 c -0.3822,0 -2.1927,-3.03745 -4.0234,-6.7499 -1.8307,-3.71244 -4.665,-8.43744 -6.2986,-10.5 l -2.9702,-3.7501 -1.1659,-0.0167 c -0.6413,-0.009 -4.5205,-2.03417 -8.6204,-4.5 -4.0999,-2.46583 -7.9249,-4.46604 -8.5,-4.44491 l -1.0456,0.0384 5,4.47085 5,4.47086 -3.8431,-1.56159 c -2.1137,-0.85887 -4.2711,-1.41888 -4.7943,-1.24448 l -0.9513,0.31709 2.8804,2.98522 c 1.5842,1.64186 3.2917,3.72926 3.7943,4.63866 0.5027,0.90939 5.2709,6.30939 10.596,12 10.0511,10.74111 15.3701,17.46142 16.7302,21.13819 l 0.7935,2.14521 -2.7397,7.53157 c -1.5069,4.14237 -3.2961,9.10658 -3.976,11.03158 -0.6798,1.925 -2.7557,7.55876 -4.6131,12.51947 l -3.3769,9.01943 0,2.5803 0,2.5803 5.5,9.1232 c 3.025,5.0178 5.5,9.4999 5.5,9.9601 0,0.8384 3.4728,5.1754 15.4248,19.2631 l 6.402,7.5459 3.3366,1.6521 c 5.3821,2.6649 20.924,9.3798 26.2682,11.3492 l 4.9316,1.8173 0.4017,-1.2052 0.4018,-1.2052 1.6022,0 1.6022,0 2.3144,-2.1743 c 1.273,-1.1959 2.3145,-2.5617 2.3145,-3.0352 l 0,-0.8609 -1.9343,1.0352 -1.9342,1.0352 -2.8433,0 -2.8432,0 -2.2225,-1.5567 c -1.2224,-0.8562 -2.2225,-1.9865 -2.2225,-2.5118 l 0,-0.9551 3.8543,0.6163 3.8543,0.6163 4.1144,-2.5973 4.1144,-2.5972 1.0733,2.0054 1.0733,2.0055 1.8922,-1.0127 c 1.0408,-0.557 2.2988,-1.0127 2.7956,-1.0127 l 0.9032,0 2.325,5.5 2.325,5.5 1.2541,0 1.2541,0 2.0813,-2.75 2.0812,-2.75 2.455,2.7509 2.4549,2.7508 -0.6088,5.1397 -0.6087,5.1397 3.5261,-0.6615 3.5261,-0.6615 2.7994,5.5329 2.7994,5.5329 4.7316,-0.6277 4.7316,-0.6276 1.6494,2.5174 1.6495,2.5174 -0.6713,7.4084 -0.6713,7.4084 4.1777,8.3724 4.1778,8.3724 -0.6449,3.8175 -0.645,3.8175 2.8379,0.02 2.8379,0.02 8.4519,2.9802 c 4.6486,1.6392 9.1056,2.9803 9.9045,2.9803 l 1.4525,0 -0.6265,-13.0989 -0.6266,-13.0989 1.3814,-3.3062 1.3814,-3.3061 5.1805,-4.095 5.1805,-4.0949 1.6877,0 c 0.9282,0 2.6878,-0.7005 3.9102,-1.5567 l 2.2225,-1.5567 0,-4.3707 0,-4.3707 -2.3818,-1.8735 c -1.3099,-1.0305 -4.1972,-2.4727 -6.4161,-3.205 l -4.0343,-1.3315 -4.7574,2.659 -4.7573,2.6589 -1.0099,-1.0099 c -0.5554,-0.5554 -0.8149,-1.1299 -0.5765,-1.2765 0.2383,-0.1467 2.544,-1.3676 5.1237,-2.7132 l 4.6903,-2.4466 8.5597,2.8443 8.5596,2.8443 0,3.6611 0,3.6611 1.3554,1.8537 1.3554,1.8536 1.6673,-0.6398 1.6673,-0.6398 0.6543,-1.7727 c 0.3599,-0.975 1.0343,-2.0302 1.4986,-2.3448 0.4642,-0.3147 1.7983,-3.0147 2.9645,-6 l 2.1204,-5.4279 0.4557,-4.2076 0.4557,-4.2075 -2.7433,-2.5425 -2.7433,-2.5424 -4.4374,0 -4.4373,0 0.4107,-1.25 0.4106,-1.25 3.7858,-0.3171 3.7859,-0.3171 1.7796,1.9101 c 0.9787,1.0506 2.9651,2.8427 4.4141,3.9825 l 2.6345,2.0723 0.134,3.5639 0.134,3.5638 -1.53,3.7708 c -2.4009,5.9168 -3.7925,10.7209 -3.7925,13.0918 l 0,2.179 1.7728,0 1.7728,0 5.4373,-3.5809 c 13.3868,-8.8163 17.34,-14.8664 13.7524,-21.0472 -0.6794,-1.1705 -1.825,-3.1955 -2.5456,-4.5 l -1.3104,-2.3719 2.5604,2.8058 2.5603,2.8057 0,1.3218 c 0,0.727 0.6138,1.8312 1.364,2.4538 l 1.364,1.132 -0.728,3.9811 -0.728,3.9811 -4.1335,4.7593 c -2.2734,2.6177 -5.1059,5.7719 -6.2944,7.0094 l -2.1609,2.25 1.4084,-0.022 c 0.7746,-0.012 3.3022,-0.8817 5.6168,-1.9325 l 4.2084,-1.9105 4.4366,-0.6653 4.4365,-0.6653 3.3551,-4.9851 c 1.8452,-2.7419 3.9463,-6.0816 4.6689,-7.4218 l 1.3139,-2.4365 0.8715,0.5385 0.8714,0.5386 -2.0759,4.693 c -1.1418,2.5811 -2.6877,5.3046 -3.4354,6.0523 -0.7477,0.7477 -1.3594,1.747 -1.3594,2.2206 0,0.4737 -0.9024,1.1476 -2.0054,1.4977 -1.103,0.3501 -3.353,1.7704 -5,3.1563 l -2.9946,2.5198 0,5.199 0,5.199 -6.75,4.4621 -6.75,4.4621 -15.2281,-0.19 -15.2281,-0.1899 -0.426,0.6899 c -0.2343,0.3795 -0.1317,6.9559 0.2281,14.6142 l 0.6541,13.9242 6.902,2.8258 6.902,2.8258 6.598,-0.012 6.598,-0.012 5.5,-1.4763 5.5,-1.4763 9.2801,-0.012 9.2802,-0.012 5.7198,-2.3725 c 3.146,-1.3049 7.4921,-2.6912 9.6581,-3.0807 l 3.9383,-0.7081 5.6939,-2.8743 5.694,-2.8743 15.5158,0.606 15.5159,0.6059 4.0323,-12.401 c 15.29,-47.0235 24.481,-93.9586 28.1792,-143.901 l 1.0737,-14.5 -0.012,-29 -0.012,-29 -1.5528,-18.96087 c -2.9239,-35.70886 -8.3643,-68.28561 -17.124,-102.53898 l -4.4754,-17.5 -6.8598,-20.5 c -7.6661,-22.90937 -15.5416,-42.87156 -23.63,-59.89508 l -5.4142,-11.39509 -6.7505,0.61044 -6.7506,0.61044 -15.5,3.47696 c -8.525,1.91232 -19.55,3.99031 -24.5,4.61774 -13.2345,1.67753 -24.4566,3.66736 -33.2308,5.8923 -4.2731,1.08355 -14.9692,3.35188 -23.7692,5.04074 -15.8391,3.03976 -19.286,3.84939 -29,6.8117 l -5,1.52476 -0.7347,1.10255 c -0.4041,0.6064 -0.7416,1.59668 -0.75,2.20063 l -0.015,1.0981 5.1148,1.6519 c 2.8132,0.90855 5.4776,1.65191 5.9208,1.65191 1.1238,0 16.6177,9.63546 21.4644,13.34843 2.2,1.68538 6.7812,5.62675 10.1804,8.75859 3.3992,3.13184 9.2492,8.15654 13,11.16599 l 6.8196,5.47173 8,4.57119 8,4.5712 6.0859,2.01177 6.0858,2.01177 6.9142,0.62433 c 7.1791,0.64826 12.4141,2.12711 12.4141,3.50687 l 0,0.79922 -2.8382,0.62337 c -1.561,0.34286 -7.7485,0.71278 -13.75,0.82205 l -10.9118,0.19868 -4.5,-3.24668 -4.5,-3.24667 -5.1278,-1.86505 -5.1279,-1.86506 2.8368,4.11914 2.8369,4.11913 17.5174,17.94026 c 9.6346,9.86714 17.314,18.14368 17.0654,18.3923 -0.8851,0.88505 -12.3488,-9.66194 -37.0008,-34.04186 l -25,-24.7241 -7.3407,-5.04068 c -4.0374,-2.77237 -9.2124,-6.54843 -11.5,-8.39125 -3.9967,-3.21963 -13.6538,-9.82217 -18.052,-12.34208 -3.6532,-2.09317 -16.9589,-7.99914 -20.6073,-9.14694 -10.3533,-3.25722 -40.3072,-7.5328 -64,-9.13528 l -14.5,-0.98071 -32.191,-0.0148 -32.191,-0.0148 -0.5798,0.93826 -0.5799,0.93827 4.3228,3.31173 c 5.9891,4.58826 16.8988,14.20058 23.9244,21.07931 l 5.8908,5.76758 -0.5945,0.96194 -0.5945,0.96195 -1.7037,-0.87686 c -0.937,-0.48228 -3.6161,-1.66641 -5.9536,-2.6314 -2.3375,-0.96499 -4.25,-2.09771 -4.25,-2.51716 0,-0.94592 -8.8017,-5.93362 -10.471,-5.93362 -0.6704,0 -2.0047,-0.86814 -2.9649,-1.9292 -0.9603,-1.06106 -3.339,-2.68515 -5.286,-3.60908 -1.9471,-0.92393 -6.0686,-3.21281 -9.1591,-5.0864 l -5.619,-3.40651 -9.5,-3.08604 -9.5,-3.08604 -6.6067,-0.85295 -6.6067,-0.85295 -14.3933,2.40424 c -7.9163,1.32234 -20.7196,3.55091 -28.4517,4.95239 l -14.0585,2.54813 -15.4415,4.62237 c -8.4929,2.5423 -19.7166,5.91742 -24.9416,7.50027 -5.225,1.58286 -13.1,3.76187 -17.5,4.84226 -4.4,1.08039 -14.525,4.2382 -22.5,7.01735 l -14.5,5.05301 -9.5,2.0386 c -5.225,1.12124 -13.0293,3.14517 -17.3429,4.49762 l -7.8429,2.45901 -5.9174,4.55336 -5.9175,4.55335 -5.7396,6.89175 c -9.3667,11.24673 -9.92,12.13202 -17.5827,28.12845 l -7.3515,15.34701 -7.1006,21 -7.1005,21 -1.4871,7 c -0.8179,3.85 -1.773,9.16417 -2.1224,11.80926 -0.3493,2.6451 -1.3265,7.3701 -2.1714,10.5 -0.8448,3.12991 -2.5842,10.19074 -3.8652,15.69074 -1.2811,5.5 -3.2549,13.91721 -4.3863,18.70492 -1.1314,4.7877 -2.0843,9.7377 -2.1175,11 -0.033,1.26229 -0.2824,4.54508 -0.5537,7.29508 -0.2712,2.75 -0.6811,10.85 -0.9109,18 -0.2298,7.15 -0.6874,14.09162 -1.017,15.42582 -0.3296,1.33419 -1.2941,10.10919 -2.1433,19.5 -0.8492,9.3908 -1.7662,19.32418 -2.0377,22.07418 -0.2715,2.75 -0.5416,6.575 -0.6002,8.5 -0.2112,6.9409 1.4637,43.5942 2.3452,51.3239 0.496,4.3483 1.1881,13.8167 1.5382,21.041 l 0.6365,13.1351 2.8939,17.5 c 3.6393,22.0072 4.5837,26.3672 6.9715,32.1854 l 1.923,4.6854 -0.016,2.3146 c -0.02,3.0207 7.4845,33.63786 11.2301,45.81456 l 2.9222,9.5 7.0416,14 7.0415,14 3.0702,2.74997 3.0703,2.75 3.6383,0 3.6384,0 5.374,-1.5959 z m -221.7722,-50.37717 2.5084,-1.9732 1.2466,-8.0134 1.2466,-8.0134 -0.5475,-2.0937 -0.5475,-2.0938 1.9531,-10.66972 c 1.0743,-5.8683 2.6166,-14.329 3.4274,-18.8015 l 1.4742,-8.1318 0,-5.6634 0,-5.6634 1.5505,-10.2048 c 0.8528,-5.6126 2.2872,-12.6798 3.1875,-15.7048 l 1.6369,-5.5 0.2531,-11 c 0.3578,-15.5441 3.3187,-42.9767 5.3866,-49.9062 l 1.1657,-3.9062 -0.4444,-4.0938 -0.4443,-4.0938 1.2671,-7.5204 1.2671,-7.5204 0.028,-22.50876 0.028,-22.50874 0.9694,-2.54981 0.9695,-2.54981 0.019,-23.92104 0.019,-23.92104 -0.9883,-7.5 c -1.135,-8.61355 -3.2151,-19.62183 -5.4799,-29 l -1.5697,-6.5 -6.0497,-12 c -5.9615,-11.82504 -12.2519,-21.98142 -15.831,-25.56051 -1.0056,-1.00556 -2.9774,-4.2572 -4.3818,-7.22585 l -2.5534,-5.39756 -4.7522,-5.43899 c -2.6137,-2.99144 -6.2787,-7.37067 -8.1444,-9.73162 l -3.3923,-4.29265 -5.4605,-4.17641 c -6.5704,-5.02538 -7.4932,-5.56682 -17.9693,-10.54223 l -8.21429,-3.90126 -6.7857,-1.52969 c -3.732,-0.84132 -9.4856,-2.06362 -12.7856,-2.71622 -3.3,-0.6526 -8.7,-1.76578 -12,-2.47373 -3.3,-0.70796 -9.375,-1.82879 -13.5,-2.49075 -4.125,-0.66196 -9.525,-1.61749 -12,-2.1234 -2.475,-0.50592 -13.95,-1.82145 -25.5,-2.9234 -11.55,-1.10196 -25.275,-2.4484 -30.5,-2.9921 l -9.5,-0.98855 -10,0.4222 -10,0.42221 -3,1.57409 c -1.65,0.86576 -3.5784,1.57687 -4.2852,1.58026 -0.7069,0.003 -2.365,0.71369 -3.6848,1.57846 -2.5811,1.69118 -6.7826,4.0108 -16.7308,9.23685 l -6.2992,3.30916 -4.1796,4.07993 -4.1796,4.07993 -3.177,-0.63541 -3.1771,-0.63541 -3.2831,1.55794 -3.2831,1.55794 -7.4428,7.18838 c -4.0936,3.95362 -8.2157,8.31339 -9.1603,9.68839 l -1.7174,2.5 0.4842,-2 c 0.2664,-1.1 1.0764,-3.59347 1.8,-5.54105 l 1.3158,-3.54104 3.25,-4.10286 c 1.7875,-2.25657 3.25,-4.65856 3.25,-5.33775 l 0,-1.2349 3.534,-3.9117 3.5339,-3.9117 -0.5013,-0.81117 c -0.2757,-0.44614 -2.6535,-1.62585 -5.284,-2.62156 -2.6304,-0.99571 -6.2405,-2.91236 -8.0224,-4.25923 l -3.2398,-2.44885 -1.3252,0.50851 -1.3251,0.50851 -3.6545,13.3524 c -9.4529,34.53837 -15.9357,72.93804 -18.7144,110.85239 l -1.0628,14.5 0,28 0,28 1.0346,14 c 4.4621,60.3814 16.2493,115.0763 37.0134,171.75 l 3.2059,8.75 13.7432,0 c 7.5587,0 25.2912,-0.2971 39.4054,-0.6603 l 25.6631,-0.6604 0,-2.2172 0,-2.2172 -1.3453,-1.1165 c -0.7399,-0.6141 -2.7649,-1.4004 -4.5,-1.7475 l -3.1547,-0.6309 0,-0.7258 c 0,-0.3992 0.4814,-2.1068 1.0699,-3.7948 l 1.0699,-3.0691 1.4301,-0.5487 1.4301,-0.5488 0,-3.3118 0,-3.3117 3.6061,-8.4697 c 4.1494,-9.7458 11.6486,-31.2337 14.4727,-41.4696 l 1.9313,-7 0.6006,-9 0.6005,-9 -2.1056,-4.8329 c -1.1581,-2.6581 -2.1056,-5.669 -2.1056,-6.691 l 0,-1.8581 -1.0568,-0.6531 -1.0569,-0.6532 -2.4431,0.6132 -2.4432,0.6132 0,1.981 0,1.9809 -2.8914,0 -2.8914,0 -1.6005,-4 -1.6005,-4 -1.8831,0 -1.8831,0 -0.5978,2.9891 -0.5978,2.989 0.5798,1.511 0.5798,1.5109 -1.107,0 c -0.6089,0 -2.0566,-0.9496 -3.2172,-2.1102 l -2.1102,-2.1102 0.5836,-3.6398 c 0.321,-2.0019 0.8768,-5.1023 1.2352,-6.8898 l 0.6516,-3.25 -2.1564,0 -2.1564,0 -0.5756,1.5 -0.5756,1.5 -1.834,0 -1.834,0 -0.5622,-0.9098 -0.5623,-0.9097 0.5575,-1.3403 c 0.3066,-0.7371 3.0102,-3.1402 6.0079,-5.3402 l 5.4505,-4 1.4487,-5 c 0.7968,-2.75 1.9535,-7.8899 2.5705,-11.422 l 1.1218,-6.42199 -0.665,-14.578 -0.665,-14.57801 -0.9797,-3.86495 -0.9797,-3.86495 -2.2221,-2.13505 c -1.2222,-1.17428 -6.2081,-5.87105 -11.0798,-10.43727 l -8.8577,-8.30223 -3.0431,0.30223 -3.0431,0.30222 -0.8036,3.12424 -0.8036,3.12424 -1.499,1.24405 -1.499,1.24405 -2.4292,-1.59165 -2.4291,-1.59165 -0.6782,-2.13673 -0.6782,-2.13673 2.9823,-2.72385 2.9822,-2.72385 0.7207,-2.27083 0.7208,-2.27083 -3.8507,-3.97765 c -2.1178,-2.18771 -5.0658,-4.61556 -6.551,-5.39523 l -2.7003,-1.41758 -2.3497,0 -2.3496,0 -1.2,-1.2 -1.2,-1.2 0,-3.2433 0,-3.24329 2.2225,-1.55671 2.2225,-1.5567 2.4487,0 2.4488,0 1.8287,1.65499 1.8288,1.65499 0,1.49202 0,1.49202 3.5679,4.35414 c 1.9623,2.39478 4.4781,4.84131 5.5907,5.43673 l 2.0228,1.08259 2.8444,-1.17818 2.8444,-1.17817 1.0129,-2.90557 1.0128,-2.90556 2.5735,0 2.5735,0 1.11,2.43623 1.11,2.43623 -0.6001,1.56377 -0.6,1.56377 -2.0314,0 -2.0314,0 0.023,3.25 0.023,3.25 5.8987,5.25 c 3.2442,2.8875 6.1025,5.25 6.3517,5.25 0.2492,0 0.4531,-1.20241 0.4531,-2.67201 l 0,-2.67202 1.7867,-1.30645 1.7867,-1.30646 2.225,0.55845 2.2251,0.55846 1.7888,-4.68401 1.7889,-4.684 -1.3143,-2.10444 c -1.694,-2.71252 -3.9555,-12.17242 -4.0013,-16.73752 l -0.036,-3.55 -1.0147,-1.01473 -1.0148,-1.01474 -1.6387,-7.43526 -1.6388,-7.43527 0.232,-9 0.2319,-9 1.4952,-3.16501 1.4951,-3.16501 3.7302,-2.58499 3.7301,-2.58499 3.762,0 3.762,0 1.9762,-1.05764 1.9762,-1.05765 4.7081,-0.10266 4.708,-0.10266 4,1.36501 c 2.2,0.75075 4.9,2.08981 6,2.97569 1.1,0.88587 3.143,2.31722 4.54,3.18077 l 2.5401,1.5701 4.2579,5.51907 4.2579,5.51906 2.3714,7.68575 2.3713,7.68575 -1.4814,5.15971 c -0.8147,2.83783 -2.1284,6.57771 -2.9192,8.31083 -0.7909,1.73312 -1.438,3.46931 -1.438,3.85821 0,0.38889 -2.1935,3.47088 -4.8744,6.84887 -2.681,3.37798 -6.2588,8.33245 -7.9508,11.00992 l -3.0763,4.86814 -2.4486,1.27037 -2.4487,1.27036 -4.7322,-0.53339 -4.7323,-0.53339 0.4837,1.39489 0.4837,1.39489 6.8979,-0.17306 c 3.7939,-0.0952 14.7768,-0.86395 24.4065,-1.70837 l 17.5084,-1.5353 4.4916,-1.46573 c 2.4703,-0.80615 8.3165,-2.37452 12.9915,-3.48527 l 8.5,-2.01954 1.372,1.94363 1.3719,1.94364 4.7019,0 c 2.586,0 8.9236,-0.72522 14.0837,-1.61159 l 9.3819,-1.61159 2.5443,2.97765 c 8.85059,10.35802 11.51899,13.89323 14.59639,19.33761 l 3.4479,6.10005 0,5.34492 0,5.34492 -1,0.61803 -1,0.61803 -0.076,-2.80901 c -0.042,-1.54496 -0.7181,-4.38402 -1.5029,-6.30902 l -1.4268,-3.5 0.4848,5 c 0.2667,2.75 0.7571,6.38142 1.09,8.06982 l 0.6051,3.06981 -2.4088,2.93019 -2.4089,2.93018 -0.1036,5.84202 c -0.057,3.21312 -0.3512,6.08974 -0.654,6.3925 l -0.5505,0.55048 -1.5241,-1.26494 -1.5242,-1.26495 -0.01,-3.12755 c 0,-1.72016 -0.4618,-4.77029 -1.01949,-6.77807 l -1.014,-3.6505 -1.4804,-0.56811 -1.4805,-0.56811 0,1.46861 0,1.46862 1,0 1,0 0,3.91923 0,3.91924 1.6014,6.33076 1.60129,6.33077 3.5562,6.814 3.5561,6.814 -2.1575,5.2053 c -1.1866,2.8629 -2.1575,5.9842 -2.1575,6.936 l 0,1.7307 -1.0314,0 -1.0314,0 -0.6223,-1.6218 -0.6224,-1.6218 1.77,-4.9221 1.7699,-4.9221 -0.593,-2.9653 -0.5931,-2.9652 -2.2112,-2.99085 -2.21119,-2.99085 -1.1111,0 -1.111,0 -1.2009,3.321 c -0.6605,1.8265 -1.2009,4.0782 -1.2009,5.0036 0,0.9255 -0.8068,3.1879 -1.7928,5.0277 l -1.7929,3.345 -3.8079,3.3434 -3.808,3.3435 -1.877,-2.4421 c -2.4623,-3.2037 -2.3952,-3.7851 0.5217,-4.5172 l 2.4432,-0.6132 1.0568,0.6532 1.0569,0.6531 0,-1.1546 c 0,-0.6351 0.945,-2.4818 2.1,-4.1038 l 2.1,-2.9492 0,-3.5219 c 0,-4.58212 -0.3728,-4.827 -3.5474,-2.32992 l -2.6522,2.08662 -0.042,2.6774 -0.042,2.6774 -3.4527,3.9101 -3.4528,3.9101 -2.0056,-1.8151 -2.0057,-1.8151 0,-1.4386 0,-1.4386 1.9801,-0.5178 1.9801,-0.5179 2.4728,-5.227 c 1.36,-2.87482 3.2386,-5.86217 4.1748,-6.63853 1.6379,-1.35837 4.3922,-6.85951 4.3922,-8.77246 0,-0.50882 -0.6695,-1.18204 -1.4878,-1.49604 l -1.4877,-0.57092 -2.5283,5.21393 -2.5282,5.21392 -3.4224,2.16306 c -1.8823,1.18969 -4.4626,2.47891 -5.734,2.86494 -1.2714,0.38603 -3.3124,1.6176 -4.5355,2.7367 l -2.2239,2.0349 -0.6526,-1.7007 -0.6526,-1.7007 2.3008,-2.44908 2.3008,-2.44912 2.0826,0 2.0827,0 3.1891,-3.47489 3.1891,-3.47489 1.1344,-3.77511 c 0.6239,-2.07631 1.3803,-7.00649 1.681,-10.95596 l 0.5466,-7.18085 -3.377,-0.61597 -3.3771,-0.61597 -14,0.29682 -14,0.29682 0.2656,3.33704 0.2656,3.33704 1.4936,1.49358 1.4936,1.49358 -0.5682,0.91938 -0.5682,0.91938 -2.441,0 -2.441,0 0,3.44098 0,3.44099 1,0.61803 c 0.55,0.33992 1,1.26648 1,2.05902 l 0,1.44098 -1.3787,0 -1.3787,0 -1.2426,-3 -1.2426,-3 -1.3787,0 -1.3787,0 0,1.44098 c 0,0.79254 -0.5094,1.75583 -1.1321,2.14064 l -1.132,0.69965 -3.118,-3.63368 -3.1179,-3.63368 -14.4717,-8.00695 -14.4716,-8.00696 -2.7784,0 -2.7783,0 0,1.62388 0,1.62388 7.25,6.76067 c 8.02,7.47874 18.8858,15.24575 25.1648,17.98821 2.2469,0.98134 4.9995,2.65956 6.1169,3.72937 l 2.0317,1.94512 1.9151,5.63427 1.9152,5.6343 -0.5777,0.5777 -0.5777,0.5777 -6.3692,-1.4604 -6.3691,-1.4603 -2.9812,-3.8372 c -3.678,-4.73406 -13.3238,-14.12826 -15.9942,-15.5771 l -1.9755,-1.07178 1.4755,2.11411 c 0.8115,1.16277 4.0449,5.84539 7.1853,10.40584 5.7777,8.39013 9.4292,12.42083 18.0401,19.91333 l 4.75,4.1331 0,1.4339 0,1.4339 -4.5,-0.6748 -4.5,-0.6748 0.022,1.3636 c 0.012,0.7499 0.9022,2.4885 1.9778,3.8635 1.0755,1.375 1.9655,2.8746 1.9777,3.3324 0.043,1.6171 6.168,14.8091 9.5726,20.6182 1.8973,3.2373 3.4497,6.5289 3.4497,7.3147 0,0.7858 0.9,2.4664 2,3.7347 l 2,2.306 0,-1.6339 0,-1.634 2.6687,-0.6698 2.6687,-0.6698 1.7524,2.1641 c 0.9638,1.1903 1.93,2.6971 2.1472,3.3484 l 0.3947,1.1842 3.1104,-1.2884 3.1104,-1.2884 2.0226,0.642 2.0226,0.6419 0.667,2.1017 0.6671,2.1017 -3.5443,3.0971 -3.5443,3.0972 -0.6338,3.1712 -0.6337,3.1712 1.5505,5.221 c 2.0126,6.7772 5.6466,12.9333 12.2452,20.7435 2.9307,3.4688 5.3286,6.6945 5.3286,7.1682 0,0.4737 0.2731,1.5731 0.607,2.4431 l 0.6069,1.5818 -2.1317,0 -2.1317,0 -0.9505,2.5 -0.9505,2.5 -2.5248,0 -2.5247,0 0,3.4768 0,3.4767 2.25,5.5219 2.25,5.5218 3,-0.015 3,-0.015 4,-2.446 c 2.2,-1.3454 4.9,-2.8768 6,-3.4033 1.1,-0.5265 4.7779,-3.6302 8.1731,-6.8971 l 6.17309,-5.94 3.0381,-0.6076 3.0381,-0.6076 0.588,0.9514 c 0.3234,0.5233 1.9372,1.301 3.5863,1.7284 l 2.9982,0.7769 2.0186,3.1881 2.0185,3.1881 -2.7639,2.3008 c -1.5202,1.2654 -4.7515,4.2146 -7.1807,6.5536 l -4.4168,4.2529 -8.13529,2.3508 c -4.4744,1.293 -10.3525,2.8863 -13.0623,3.5407 l -4.9269,1.1898 -3.8259,3.4565 -3.826,3.4565 -3.9741,0 -3.974,0 -1.404,-2.25 -1.404,-2.25 -0.563,-5.1742 -0.563,-5.1743 -2.3061,-5.8121 -2.3061,-5.812 -1.8255,-0.3516 -1.8255,-0.3515 -1.2448,1.7024 -1.2449,1.7025 -1.8314,-4.7955 c -1.0073,-2.6375 -3.5021,-7.7516 -5.5441,-11.3646 l -3.7126,-6.5691 -2.1533,-1.101 c -1.1843,-0.6056 -2.414,-1.3618 -2.7326,-1.6805 l -0.5794,-0.5794 5.0275,-2.1628 5.0276,-2.1628 0.068,-2.6567 c 0.037,-1.4613 0.1812,-3.7782 0.3195,-5.1489 l 0.2515,-2.4921 -3.8239,-0.9523 -3.8239,-0.9523 -2.0235,1.2637 c -1.1129,0.695 -2.1641,1.12 -2.336,0.9444 -0.7346,-0.7507 -5.4927,-15.3151 -5.4927,-16.8133 l 0,-1.6452 -7.3981,-14.4304 -7.3982,-14.4305 -0.8101,0 -0.8102,0 -2.1792,6 c -1.1986,3.3 -3.0933,9.15 -4.2105,13 -1.1172,3.85 -3.2171,10.3408 -4.6665,14.424 l -2.6353,7.4239 -0.8783,10.0761 -0.8784,10.076 0.8893,12.5 c 0.489,6.875 1.1832,14.1303 1.5426,16.1229 l 0.6533,3.6228 -1.1361,0.7022 -1.136,0.7021 -1.072,-3.075 c -0.5896,-1.6912 -1.4152,-3.075 -1.8348,-3.075 l -0.7629,0 -0.6148,5.1911 c -0.3382,2.8552 -0.5134,5.2826 -0.3893,5.3942 0.447,0.4025 17.6175,-1.4163 19.7448,-2.0914 l 2.1781,-0.6913 -0.6661,2.0987 -0.6661,2.0987 0.6348,2 0.6348,2 4.4573,0 4.4574,0 0.8606,2.25 0.8607,2.25 12.3646,2.3895 c 11.117,2.1484 24.1385,5.2448 39.8646,9.4797 3.025,0.81452 7.75,2.46142 10.5,3.65972 2.75,1.1982 8.15,3.0637 12,4.1456 l 6.99999,1.9669 4.6873,2.8815 4.6873,2.8814 7.3127,2.1417 c 7.0089,2.0527 10.767,3.4664 17.3127,6.5124 1.65,0.7678 3.9518,1.4063 5.1151,1.4188 l 2.1152,0.023 2.5084,-1.9731 z m 631.7613,-68.72222 0,-1.6953 -2.4383,-2.5547 c -2.5296,-2.6504 -3.7738,-4.3246 -11.9313,-16.0532 -2.6783,-3.8508 -5.1889,-7.0015 -5.5791,-7.0015 -0.3902,0 -1.6626,2.1375 -2.8276,4.75 l -2.1182,4.75 -0.638,7.7487 -0.6379,7.7487 1.3352,0.3913 c 3.4787,1.0195 17.7461,3.3806 21.0852,3.4892 l 3.75,0.1221 0,-1.6953 z m -163.0819,-1.3989 6.5819,-1.0941 4,-1.8406 4,-1.8406 33.0143,-0.6535 33.0143,-0.6534 17.8028,1.2211 17.8028,1.2211 0.9536,-0.9536 c 0.5244,-0.5244 1.8158,-3.3125 2.8696,-6.1957 l 1.9161,-5.2422 0.6835,-7.8353 0.6835,-7.8353 -2.4274,-1.5905 -2.4274,-1.5905 -8.4429,-1.5631 c -4.6435,-0.8596 -12.2678,-2.2081 -16.9428,-2.9966 -4.675,-0.7885 -13.3441,-2.3296 -19.2646,-3.4246 l -10.7645,-1.991 -5.2355,-2.5707 -5.2354,-2.5707 -5,-4.9402 c -2.75,-2.717 -6.3478,-6.1834 -7.9952,-7.703 -1.6474,-1.5195 -10.0424,-9.6253 -18.6555,-18.0128 l -15.6604,-15.25 -2.7264,0 -2.7263,0 -3.403,3.6082 c -1.8716,1.9844 -4.2657,5.2994 -5.3203,7.3664 -1.0545,2.0671 -3.0528,5.1078 -4.4407,6.7572 -1.3878,1.6494 -4.9338,7.672 -7.8798,13.3835 l -5.3565,10.3847 -1.2001,4.8204 -1.2,4.8203 0.6471,3.6797 0.6472,3.6796 2.7366,4.5 c 2.927,4.8132 3.6418,6.6031 6.9883,17.5 l 2.1498,7 3.4573,4.75 3.4573,4.75 1.1584,0 c 0.6371,0 4.1202,-0.4924 7.7403,-1.0942 z m 253.7063,-22.9058 c 0.2066,0 0.3756,-0.9 0.3756,-2 l 0,-2 -1.1283,0 c -1.5859,0 -11.8717,5.9841 -11.8717,6.9067 0,0.418 0.2731,1.033 0.6068,1.3668 l 0.6068,0.6068 5.5176,-2.4401 c 3.0347,-1.3421 5.6867,-2.4402 5.8932,-2.4402 z m -106.1244,-19 c -0.3399,-0.55 -1.0415,-1 -1.559,-1 -0.5176,0 -0.941,0.45 -0.941,1 l 0,1 1.559,0 1.559,0 -0.618,-1 z m -20.8958,-5.7292 -0.6042,-0.6041 0.079,1.9166 0.079,1.9167 0.5252,-1.3125 0.5252,-1.3125 -0.6041,-0.6042 z m 5.3155,-0.2708 1.1906,-2.5 -1.5551,1.9411 c -0.8554,1.0677 -1.5552,2.3802 -1.5552,2.9167 0,1.2705 0.4619,0.7032 1.9197,-2.3578 z m -18.935,-6.75 -0.015,-1.75 -0.7347,1.1001 c -0.4041,0.605 -1.4097,1.357 -2.2347,1.671 l -1.5,0.571 2.25,0.079 2.25,0.079 -0.015,-1.75 z m 8.4327,-1.1164 0.5354,-0.8663 -2.0075,-1.8168 -2.0076,-1.8168 -1.6488,1.6488 -1.6488,1.6488 2.43,0.971 c 3.1322,1.2515 3.6982,1.2817 4.3473,0.2313 z m 2.6284,-5.048 -1.1162,-2.0856 -1.0238,0 -1.0238,0 0.7147,1.25 c 2.2995,4.0217 4.5686,4.796 2.4491,0.8356 z m -91.2853,-73.8356 c 0.5943,-2.0625 1.7879,-8.025 2.6524,-13.25 0.8645,-5.225 1.8381,-10.45628 2.1634,-11.62507 l 0.5916,-2.12508 -5.3339,-5.83137 c -2.9337,-3.20725 -9.2271,-9.78846 -13.9854,-14.62492 l -8.6513,-8.79356 -1.1081,0 -1.1081,0 0.1434,4.25 c 0.2132,6.31747 -0.2902,13.84082 -1.1196,16.73283 l -0.7328,2.55529 0.7769,5.72503 0.7769,5.72502 5.5521,5.07429 5.552,5.07429 3.7101,5.18163 c 4.4055,6.15296 7.4577,9.68162 8.3742,9.68162 0.366,0 1.1518,-1.6875 1.7462,-3.75 z m -546.4378,-23.37617 0.5561,-2.12618 -1.6718,-6.37382 c -0.9194,-3.50561 -1.956,-6.37383 -2.3034,-6.37383 -0.6853,0 -1.90359,7.64124 -1.90359,11.93957 l 0,2.66043 1.19999,1.2 c 0.66,0.66 1.7325,1.2 2.3834,1.2 l 1.1833,0 0.556,-2.12617 z m -8.87829,-10.62383 c -0.3729,-2.6125 -1.068,-5.17 -1.5446,-5.68333 l -0.8665,-0.93334 -0.5976,0.59769 -0.5977,0.59769 1.081,2.0199 1.081,2.01991 0,3.06574 0,3.06574 1.0613,0 1.0613,0 -0.6782,-4.75 z m -10.6833,1.45473 4.261,-0.20473 -0.6826,-1.5 c -0.3754,-0.825 -0.7287,-3.38582 -0.7851,-5.69072 l -0.1025,-4.19071 -0.6987,-0.69873 -0.6988,-0.69874 -3.5916,2.7395 -3.5917,2.73949 1.6624,1.83694 1.6624,1.83694 -0.657,1.06302 c -0.3613,0.58465 -1.2269,1.06301 -1.9236,1.06301 l -1.2667,0 -2.1589,-2.29807 -2.1589,-2.29808 -0.6362,-3.18076 -0.6361,-3.18076 2.427,-0.92275 2.427,-0.92275 2.8273,-3.70683 2.8274,-3.70684 -1.3753,-0.84997 -1.3753,-0.84997 -2.0083,0.43582 c -1.1046,0.23971 -5.5777,0.90284 -9.9402,1.47363 -4.3625,0.57079 -8.1161,1.22203 -8.3413,1.44721 -0.2252,0.22517 -0.113,1.34331 0.2493,2.48476 l 0.6587,2.07536 0.9326,0 0.9326,0 0,1.37756 c 0,0.75765 -0.6548,1.92103 -1.4552,2.58527 l -1.4552,1.20773 1.1801,1.88976 1.1802,1.88976 -1.0429,1.04295 -1.043,1.04296 -7.432,-1.31599 -7.432,-1.31599 -14.4197,0.54799 -14.4197,0.548 -0.46,1.3892 -0.4601,1.38919 0.9973,-0.61635 0.9973,-0.61636 7.7204,1.47716 7.7204,1.47716 7.6621,0.0628 7.662,0.0628 7.5,1.35788 7.5,1.35788 8.5,-0.46592 c 4.675,-0.25625 10.4175,-0.55803 12.7611,-0.67063 z m 491.68099,-72.79874 -1.5793,-4.40599 0.3186,-8.09479 0.3186,-8.0948 -1.3724,-1.6552 -1.3725,-1.65521 -1.4286,0 -1.4286,0 -1.5228,3.6448 -1.5229,3.64481 0.689,5.10519 c 0.379,2.80786 1.1405,6.0052 1.6922,7.1052 1.1352,2.26342 7.9634,9.63653 8.4623,9.13763 0.1791,-0.17911 -0.385,-2.30835 -1.2536,-4.73164 z M -276.07049,263.9635 c 1.8066,-1.55498 5.5348,-4.33624 8.2848,-6.18056 2.75,-1.84432 7.1593,-5.27293 9.7985,-7.61913 l 4.7985,-4.26582 5.7977,-7.80362 c 3.1887,-4.29199 6.5748,-8.44852 7.5246,-9.23672 0.9497,-0.78821 2.646,-3.23475 3.7694,-5.43676 l 2.0425,-4.00365 -0.4361,-8.30766 -0.436,-8.30766 -2.4296,-2.60075 c -3.0039,-3.21555 -9.4348,-6.95985 -13.4295,-7.81916 -1.65,-0.35494 -7.429,-2.28019 -12.8421,-4.27833 l -9.8421,-3.633 -0.8865,1.41003 c -4.3075,6.85134 -26.5422,62.94221 -28.3846,71.60497 l -0.6794,3.19494 3.9398,2.48709 3.9398,2.4871 3.8775,0.39987 c 2.1327,0.21992 5.7744,0.47551 8.0928,0.56797 l 4.2152,0.1681 3.2848,-2.82725 z m 215.82449,-29.20981 3.2512,-3.03707 -0.5518,-11.71293 -0.5517,-11.71294 -3.0077,-9 c -1.6543,-4.95 -5.1067,-13.95 -7.672,-20 -2.5654,-6.05 -6.1587,-15.275 -7.9852,-20.5 -1.8264,-5.225 -5.78149,-14.9 -8.78909,-21.5 -3.0076,-6.6 -6.2625,-14.475 -7.2332,-17.5 -0.9706,-3.025 -2.1033,-5.95 -2.517,-6.5 -0.4138,-0.55 -1.0767,-2.575 -1.4732,-4.5 -0.3965,-1.925 -1.3116,-4.85 -2.0335,-6.5 -4.2047,-9.610219 -5.4765,-12.906059 -5.4765,-14.191739 0,-0.79062 -0.8576,-3.54592 -1.9057,-6.12288 -1.0482,-2.57696 -2.6663,-7.16038 -3.5958,-10.18538 -0.9296,-3.025 -3.2651,-9.55 -5.1901,-14.5 l -3.5,-9 -5.3333,-9.52346 -5.3334,-9.52346 -6.4843,-6.22654 -6.4843,-6.22654 -1.6165,0 -1.6165,0 -10.72,9.85151 c -28.2046,25.91938 -61.0406,63.97549 -79.7209,92.394359 l -3.7769,5.74587 4.7597,13.75413 4.7598,13.75413 5.1291,9.97545 5.1291,9.97545 5,5.06199 5,5.06199 11.5,6.85488 11.5,6.85488 4.275,3.90128 4.2749,3.90127 0.906,-0.55991 0.9059,-0.5599 0.6447,1.04317 c 0.3546,0.57374 4.241,2.94358 8.6364,5.26631 4.3955,2.32273 9.6864,5.12314 11.7577,6.22314 2.0712,1.1 5.0784,2.54296 6.6827,3.20658 14.1158,5.83936 19.8273,7.90018 32.6041,11.76428 l 14.6873,4.44192 12.7869,1.10113 c 7.0327,0.60562 12.98589,1.30025 13.22929,1.54361 0.2433,0.24337 3.0198,0.44248 6.17,0.44248 l 5.7276,0 3.2512,-3.03706 z m 94.0693,-9.07966 2.9115,-3.11672 0.5696,-2.63328 c 0.7158,-3.30842 2.7021,-10.57503 5.3841,-19.6969 1.1423,-3.88498 2.5567,-9.95998 3.1432,-13.5 l 1.0662,-6.43638 0.011,-40 0.012,-40 -1.5953,-11.999999 -1.5954,-12 -0.01,-6.75 -0.01,-6.75 -0.9373,0 -0.9373,0 0.4529,-18.25 0.453,-18.25 1.1235,-11.04879 1.1234,-11.0487996 -1.7161,-10.4512 C 42.3284,-12.006209 40.9043,-19.859249 40.1076,-23.709249 l -1.4486,-7 -4.9806,-7 c -2.7394,-3.85 -5.9292,-8.47413 -7.0885,-10.27584 -1.1593,-1.80171 -2.9564,-3.73004 -3.9937,-4.28518 l -1.8859,-1.00935 0,-2.08139 0,-2.08139 2.25,0.54761 c 1.2375,0.30119 4.2219,1.04427 6.632,1.65127 2.4101,0.60701 4.5993,0.88635 4.8649,0.62075 0.2656,-0.2656 -0.8495,-3.76871 -2.4779,-7.78469 -1.6284,-4.01598 -3.7423,-9.43929 -4.6975,-12.05179 l -1.7369,-4.75 -1.5411,0 c -4.2352,0 -46.4842,16.8573 -63.2935,25.25401 l -8.5,4.24599 -2.7043,5.04591 -2.7042,5.04591 -2.4508,8.95409 c -1.3479,4.92475 -3.056,12.32909 -3.7957,16.45409 l -1.345,7.5000004 0,29.9999996 0,30 0.8863,7.5 c 0.4874,4.125 1.2135,7.95 1.6134,8.5 0.4,0.55 1.0264,3.025 1.392,5.5 0.3656,2.475 1.3476,6.59066 2.1823,9.14591 l 1.5176,4.64592 6.4377,10.71889 6.4377,10.718899 11.4251,15.13519 11.425,15.13519 5.0423,9 c 2.7733,4.95 6.62,11.5875 8.5482,14.75 l 3.506,5.75 1.4819,0 1.482,0 0.6975,-4.75 c 0.3837,-2.6125 1.0751,-5.7625 1.5366,-7 l 0.8389,-2.25 1.6498,0 1.6497,0 -0.6497,3.24835 -0.6496,3.24836 2.1138,18.00164 2.1139,18.00165 4.6005,10.5 c 2.5304,5.775 5.9777,12.62941 7.6609,15.23203 l 3.0602,4.73204 1.8488,0.018 1.8488,0.018 2.9114,-3.11672 z m 166.9845,-33.793 c 10.121,-3.57499 36.9681,-14.95343 41.6953,-17.67153 7.6895,-4.42124 11.1151,-6.15935 23.3449,-11.84457 14.7058,-6.83626 24.0742,-12.65329 41.4976,-25.76673 7.6278,-5.7409 17.6937,-13.1048 22.3687,-16.3642 4.675,-3.25941 13.45,-9.98456 19.5,-14.94479 6.05,-4.96023 13.8514,-11.248529 17.3365,-13.973999 l 6.3365,-4.9554 3.9135,-4.91516 3.9135,-4.91516 -0.012,-7.61937 -0.012,-7.61937 -2.4879,-4.35207 -2.488,-4.35208 0,-1.89792 0,-1.89793 1.4648,0 1.4648,0 1.0704,2 1.0704,2 1.2465,0 1.2465,0 5.9366,7 5.9366,7 1.132,0 1.1319,0 4.7706,-8.5 4.7706,-8.5 0.9697,0 c 0.5333,0 3.2914,-1.94806 6.1291,-4.32903 l 5.1595,-4.32904 8.3345,-4.74656 8.3345,-4.74657 1.3798,1.8256 1.3798,1.8256 -6.2143,5.57959 c -3.4179,3.06878 -9.0892,8.01878 -12.6029,11 l -6.3885,5.42041 -3.9589,7 c -2.1774,3.85 -6.0792,11.05 -8.6708,16 -2.5915,4.95 -6.3111,11.475 -8.2658,14.5 -1.9546,3.025 -4.7699,7.655379 -6.2561,10.289739 -1.4862,2.63435 -4.0227,6.29376 -5.6367,8.13201 l -2.9346,3.34228 0,1.59893 0,1.59894 2.5185,0.63209 2.5185,0.6321 2.2315,-0.50672 c 1.2273,-0.27869 5.8315,-2.06033 10.2315,-3.95918 l 8,-3.45247 5.5,-3.70019 c 6.1512,-4.1383 18.1867,-10.114309 22.6013,-11.222319 1.5909,-0.39929 5.144,-2.14082 7.8956,-3.87007 2.7517,-1.72925 7.2531,-3.96867 10.0031,-4.9765 5.7121,-2.0934 17.9556,-8.68149 21.1499,-11.38054 l 2.1499,-1.81658 2.7432,-6.92076 c 1.5088,-3.80642 3.5146,-8.04576 4.4574,-9.42076 1.5595,-2.27447 3.366,-6.19475 11.3203,-24.56626 1.4446,-3.33645 3.3443,-8.86786 4.2215,-12.29203 0.8772,-3.42417 2.2391,-7.7674 3.0264,-9.65162 l 1.4314,-3.4258496 0,-3.88215 0,-3.88216 -5.75,-4.98553 c -3.1625,-2.74205 -8.0849,-6.65695 -10.9388,-8.6997704 l -5.1887,-3.71424 -3.1127,-4.69935 -3.1128,-4.69936 0.5379,-2.00084 c 0.2958,-1.10046 0.5439,-2.51409 0.5514,-3.1414 0.01,-0.62731 2.6069,-5.12731 5.7764,-10 3.1695,-4.87269 7.0055,-11.44107 8.5244,-14.5964 l 2.7618,-5.73695 2.7984,-1.44711 c 1.5391,-0.79591 3.3832,-2.15178 4.098,-3.01304 l 1.2996,-1.56594 2.3775,0 2.3776,0 0,1.44098 c 0,0.79254 -0.5002,1.75015 -1.1116,2.12802 -0.6114,0.37787 -2.1864,3.11726 -3.5,6.08753 l -2.3884,5.4005 -0.01,2.22148 -0.01,2.22149 -1.4939,2.86431 -1.4938,2.8643 0,7.32018 0,7.32019 5.7958,7.31551 c 10.5498,13.3063904 14.2118,19.98545043 14.2118,25.9066104 0,1.347 -0.9278,5.7970696 -2.0617,9.8890196 l -2.0617,7.43993 0.4623,1.76792 0.4623,1.76793 -2.4614,9.27205 c -1.3538,5.09963 -2.8492,10.78996 -3.3231,12.64518 l -0.8616,3.37313 1.1249,2.62687 c 0.6187,1.44478 1.2444,2.79994 1.3904,3.01147 0.9712,1.40712 17.5097,-7.81492 26.8403,-14.96639 3.5911,-2.75246 9.2329,-6.58902 12.5374,-8.52569 3.3044,-1.93667 9.2579,-6.19865 13.23,-9.47107 3.972,-3.27242 12.3969,-9.84224 18.7219,-14.59961 11.3689,-8.5511696 21,-17.0369196 21,-18.5026996 0,-1.18066 -16.582,-13.7045904 -31.2185,-23.5784104 -43.14,-29.10249 -88.7803,-51.20781 -139.491,-67.560799 -15.2231,-4.909092 -48.9503,-14.006332 -55.0921,-14.860022 l -2.3015,-0.31991 -12.1985,12.12244 c -6.7091,6.667352 -12.695,12.292352 -13.302,12.500002 -1.0124,0.34639 -4.0328,4.442289 -16.974,23.018509 l -4.6264,6.64094 0.6274,1.97661 0.6273,1.9766 4.6417,0.63622 4.6418,0.63622 26.0829,-0.63476 26.0829,-0.63476 11.5,-3.77015 c 6.325,-2.07358 12.2875,-4.08778 13.25,-4.476 l 1.75,-0.70585 0,0.98728 0,0.98727 -6.4606,4.86971 c -3.5534,2.67835 -8.4054,6.30956 -10.7823,8.06937 l -4.3216,3.19964 -8.9678,3.41341 -8.9677,3.41341 -13,1.63998 -13,1.63998 -20.5222,-0.003 -20.5221,-0.003 -3.7167,3.06363 c -4.042,3.33174 -22.0201,24.6216604 -30.5761,36.2085804 -2.9354,3.97529 -5.7428,7.3760896 -6.2387,7.5573396 -0.4958,0.18125 -3.4477,4.45625 -6.5597,9.5 -3.112,5.04375 -7.5375,11.64545 -9.8343,14.67045 -6.6425,8.74847 -15.8483,21.86787 -21.0508,30 -5.544,8.66579 -13.4794,21.96658 -13.4794,22.59324 0,0.23544 -2.511,4.48733 -5.5799,9.44866 l -5.5799,9.020599 -6.99,8.55121 c -3.8445,4.70317 -10.4996,13.86301 -14.7892,20.35522 l -7.7992,11.804 -3.3452,8.3635 -3.3451,8.3635 0.035,6.52369 0.035,6.52369 3.2832,6.16003 3.2833,6.16003 3.646,2.50617 3.646,2.50617 7.5934,0.0601 7.5935,0.0601 5.4065,-1.90972 z m 727.0918,-16.84028 12.0172,-11.75 3.3073,-6.67474 c 1.8191,-3.67111 3.1013,-6.88079 2.8495,-7.13263 -0.7789,-0.77889 -7.9546,1.16604 -15.5786,4.22245 -10.0922,4.04596 -33.5799,16.06446 -39.4313,20.17677 -2.6672,1.87448 -5.7226,3.8903 -6.7899,4.47959 -1.0672,0.5893 -2.0883,1.51488 -2.2689,2.05686 l -0.3285,0.9854 11.2689,2.59947 11.269,2.59946 5.834,0.0937 5.8341,0.0937 12.0172,-11.75 z m -1168.23839,-1 3.109,-1.75 0.555,-2.14879 0.5551,-2.14878 -1.5572,-5.35122 c -0.8565,-2.94316 -2.2557,-9.40121 -3.1093,-14.35121 -0.8537,-4.95 -1.8164,-10.2375 -2.1393,-11.75 l -0.5872,-2.75 -0.8558,0 c -0.4707,0 -2.3607,2.3625 -4.2,5.25 -3.5863,5.63011 -17.7172,30.41919 -17.7172,31.08032 0,1.43895 13.4817,4.9703 21.1689,5.54492 l 1.669,0.12476 3.109,-1.75 z m 734.05309,-0.22858 c 19.0184,-2.15281 29.6319,-3.21359 32,-3.19826 1.375,0.009 5.0302,-0.56939 8.1227,-1.2851 l 5.6227,-1.30128 8.635,-5.6866 8.635,-5.68659 3.1597,-3.93179 3.1596,-3.9318 1.4577,0 1.4576,0 -0.616,3.07984 c -0.3387,1.6939 -1.3539,4.635 -2.2559,6.53575 l -1.6399,3.45592 0.7158,0.71425 0.7157,0.71424 10.6652,-0.0978 10.6651,-0.0978 15.5,-3.63759 c 8.525,-2.00068 21.125,-4.56211 28,-5.69206 6.875,-1.12996 17.225,-3.218 23,-4.64009 l 10.5,-2.58562 4.5615,-2.29582 4.5614,-2.29582 8.5842,-9.02051 c 4.7213,-4.96128 12.0668,-13.35047 16.3233,-18.64264 l 7.7391,-9.62212 -1.2175,-2.27492 c -2.0742,-3.875769 -17.8338,-24.524839 -27.9313,-36.597199 -5.2903,-6.325 -16.1018,-18.1375 -24.0255,-26.25 l -14.4066,-14.75 -1.5126,0 -1.5126,0 -10.5817,7.20918 -10.5817,7.20918 -13.7376,6.75201 -13.7377,6.75201 -7.2623,4.85788 c -3.9943,2.67183 -11.5374,7.38108 -16.7624,10.46501 l -9.5,5.60713 -20,8.68101 c -11,4.77456 -21.6992,9.29194 -23.776,10.03862 -2.0768,0.74668 -7.7018,3.24037 -12.5,5.54153 -4.7982,2.301149 -11.3974,5.162219 -14.6649,6.357929 l -5.9409,2.17402 -0.3514,1.05404 -0.3513,1.05404 1.6887,0.64801 c 0.9287,0.3564 4.4353,1.07412 7.7922,1.59493 3.357,0.52081 11.0536,1.83148 17.1036,2.9126 l 11,1.96567 7,2.49573 c 3.85,1.37265 11.691,4.82553 17.4244,7.67306 5.7334,2.84753 13.3834,6.28004 17,7.6278 3.6166,1.34776 9.7256,4.06338 13.5756,6.03471 6.8668,3.51604 25.794,16.34254 27.0036,18.29966 l 0.6144,0.99424 -0.9442,0 c -1.4197,0 -6.3237,-2.27013 -9.3918,-4.34761 l -2.7179,-1.84042 -1.2821,0.46572 -1.282,0.46572 -4.5,-2.27965 C 552.662,141.0962 522.4845,131.71682 495.394,127.22278 l -8.8202,-1.4632 -0.9304,0.57499 -0.9303,0.57498 -11.2494,-1.65799 -11.2494,-1.65798 -5.5,0.62151 c -3.025,0.34184 -7.975,1.29452 -11,2.11708 -3.025,0.82256 -10.0576,2.15381 -15.6281,2.95833 l -10.1281,1.46278 -23.8719,11.90233 c -13.1295,6.54629 -28.4844,14.26748 -34.1219,17.15821 l -10.25,5.25586 0,1.22468 0,1.22468 4.3618,1.6658 c 2.399,0.91619 7.0115,2.12381 10.25,2.68361 l 5.8882,1.01781 33.5,-0.0866 c 34.2328,-0.0885 61.9052,0.56302 62.8213,1.47914 0.8451,0.84511 16.086,0.56268 25.1787,-0.46658 z m -381.5935,-14.07233 5.4816,-2.05091 2.0421,-2.19909 c 2.9732,-3.20189 36.7555,-48.8364 42.9473,-58.015139 2.8999,-4.29883 5.7539,-9.24883 6.3421,-11 l 1.0696,-3.18395 3.2109,-4 c 1.766,-2.2 4.6998,-6.7 6.5195,-10 1.8197,-3.3 4.1535,-6.94907 5.1863,-8.10903 1.0328,-1.15997 3.9222,-6.10997 6.4208,-11 l 4.5429,-8.89097 2.4152,-7.2809 2.4152,-7.28089 0,-4.87002 0,-4.87002 -4.4896,-5.97243 -4.4895,-5.9724296 -3.2605,-2.48237 c -4.0592,-3.09053997 -10.0295,-6.11875 -15.2604,-7.74021 -2.2,-0.68196 -6.9618,-2.99874 -10.5818,-5.1484004 l -6.5817,-3.90849 -8.1138,-1.1826 -8.1138,-1.18259 -7.6473,1.80284 -7.6473,1.80285 -1.1143,-1.11431 -1.1143,-1.11432 1.4572,-1.38938 1.4571,-1.38938 7.8638,-2.60348 c 4.325,-1.43191 8.9517,-2.60347 10.2813,-2.60347 l 2.4177,0 0.5589,-1.45657 0.5589,-1.45656 -4.5903,-5.63511 c -2.5247,-3.0993 -4.5903,-6.02048 -4.5903,-6.49151 0,-0.47103 -2.2747,-3.58973 -5.0549,-6.93045 l -5.0548,-6.07404 -4.0225,-2.66197 -4.0226,-2.66198 -5.7328,1.1841 c -5.9109,1.22088 -10.1124,1.52466 -10.1124,0.73114 0,-0.24912 0.5157,-1.58477 1.146,-2.96812 l 1.146,-2.51518 4.854,-1.61224 c 2.6697,-0.88673 4.854,-1.85904 4.854,-2.16068 0,-0.30163 -1.575,-2.29177 -3.5,-4.42251 l -3.5,-3.87408 0,-2.49712 0,-2.49712 2.022,0 2.0219,0 6.4311,2.91598 6.431,2.91599 4.9907,4.66818 4.9907,4.66819 1.7665,-0.34021 1.7666,-0.34021 0.8004,-3.49396 c 0.4402,-1.92168 1.4773,-6.83088 2.3046,-10.90934 l 1.5041,-7.41539 1.1881,-1.43156 1.1881,-1.43157 0.728,1.84695 0.7279,1.84695 -0.5786,15.07481 -0.5786,15.0748 0.8978,1.55692 c 1.4897,2.58358 18.2714,16.94223 28.3977,24.29746 l 9.5,6.90032 12.7554,4.79784 12.7555,4.79785 2.9945,0 2.9946,0 0,-2.87756 0,-2.87755 1.4452,-1.19941 1.4452,-1.1994 1.5606,-4.69853 1.5606,-4.69854 -0.023,-6.9745 c -0.013,-3.83598 -0.1279,-10.34951 -0.2558,-14.47451 l -0.2327,-7.5 1.2948,0 1.2947,0 2.561,7 c 1.4086,3.85 3.2454,8.92346 4.0818,11.27436 l 1.5208,4.27435 -1.6265,4.25908 c -0.8946,2.34249 -1.6266,5.31276 -1.6266,6.6006 l 0,2.34152 2.6366,5.87504 c 1.4501,3.23128 2.9281,5.87505 3.2844,5.87505 1.1582,0 3.8045,5.4087704 4.4764,9.1495204 l 0.6555,3.64951 1.4154,1.17466 1.4154,1.17466 1.9904,-3.82418 c 1.0948,-2.10328997 6.1834,-10.43976 11.3082,-18.5254904 l 9.3177,-14.70131 11.5,-13.5954 11.5,-13.59539 8.2014,-12.20329 c 4.5107,-6.71181 10.0512,-14.67829 12.3122,-17.703289 6.5354,-8.74388 19.9863,-29.384822 19.9863,-30.669912 l 0,-1.17118 -2.75,-0.55823 c -16.3038,-3.30956 -72.9484,-7.54976 -101.3522,-7.58684 l -10.6022,-0.0138 -43.8978,10.49561 c -24.1438,5.77259 -45.6763,11.06009 -47.8501,11.75 l -3.9522,1.25439 -6.8857,10.000002 c -3.7871,5.5 -8.4837,13.149999 -10.4369,16.999999 -4.3556,8.58554 -23.5193,58.13327 -25.1448,65.01193 -0.6483,2.74344 -2.5209,10.6130704 -4.1612,17.4880704 l -2.9825,12.4999996 -0.6166,19.5 -0.6165,19.5 1.6753,13 c 0.9213,7.15 2.1161,14.575 2.6551,16.5 l 0.9798,3.5 0.5261,10.5 0.5262,10.499999 1.5624,7 c 1.9735,8.84196 4.625,16.59162 9.5798,28 l 3.9088,9 2.4539,3.2308 2.4538,3.2308 3.2138,0.92901 c 1.7675,0.51096 4.4343,0.9696 5.9262,1.0192 l 2.7125,0.0902 5.4815,-2.05091 z m 615.2516,-17.39769 c -0.3057,-0.79672 -4.2045,-7.32172 -8.6639,-14.5 l -8.108,-13.0514 -0.8825,0 -0.8826,0 -5.7001,9.25 c -3.135,5.0875 -6.9873,10.88976 -8.5605,12.8939 l -2.8605,3.64391 0,1.60609 0,1.6061 18.107,0 18.107,0 -0.5559,-1.4486 z M 604.2226,18.803481 c 3.2955,-2.193 7.5667,-5.31809 9.4917,-6.94465 l 3.5,-2.9573696 -1.6444,-1.66401 -1.6443,-1.66401 -9.0776,7.6587396 c -4.9927,4.21231 -9.3418,8.0862 -9.6647,8.60865 l -0.587,0.94992 1.8173,0 1.8174,0 5.9916,-3.98727 z M -112.75439,6.5407514 c -0.3861,-1.2375 -1.1584,-4.6125 -1.7161,-7.49999997 -0.5577,-2.88750003 -1.3068,-5.24331003 -1.6646,-5.23512003 -0.3578,0.008 -2.391,1.48744 -4.5182,3.28725 l -3.8675,3.27237003 5.3675,4.15469997 c 2.9522,2.28509 5.7576,4.18083 6.2342,4.21275 l 0.8667,0.058 -0.702,-2.25 z m 34.70589,-27.5000004 1.5472,-1.75 1.7866,-5.73787 1.7866,-5.73787 -0.587,-0.58704 -0.5871,-0.58704 -4.0917,2.7078 -4.09179,2.70779 0,5.36712 0,5.36711 1.345,0 1.34499,0 1.5472,-1.75 z m 153.978,-51.10335 c 1.8066,-1.56934 4.2434,-3.3563 5.4149,-3.97102 l 2.1301,-1.11767 4.6646,-10.65099 c 2.5655,-5.858029 4.4636,-10.851869 4.2181,-11.097409 -0.2455,-0.24554 -5.3281,0.86048 -11.2947,2.45783 l -10.8482,2.90427 -0.2808,12.164169 -0.2808,12.16417 1.496,0 1.496,0 3.2848,-2.85335 z m 269.173,-36.896651 c 2.2615,-2.0625 5.2368,-4.48831 6.6118,-5.39069 2.8007,-1.83801 2.6415,-2.30489 -1.0903,-3.1976 l -2.5903,-0.61964 -4.1597,5.11359 -4.1597,5.11359 0,1.36537 c 0,2.09395 0.9276,1.68341 5.3882,-2.38462 z M -277.78569,1020.7051 c -6.05,-5.5046 -12.3283,-11.3241 -13.9517,-12.9322 l -2.9516,-2.9239 2.3528,-2.5044 2.3528,-2.50453 4.0458,2.97543 4.0459,2.9753 1.7545,0 1.7545,0 37.2985,-40.27403 c 42.7675,-46.1793 44.7985,-48.4275 44.7985,-49.5893 0,-0.4717 -1.15,-2.5523 -2.5556,-4.6235 l -2.5556,-3.7659 2.2044,-2.3465 2.2044,-2.3464 9.6012,8.7884 c 5.2807,4.8337 14.3954,12.9176 20.255,17.9641 11.8462,10.2027 15.506,14.158 17.4977,18.911 l 1.3485,3.2179 0,2.8842 0,2.8842 -2.25,3.306 c -1.2375,1.8182 -3.5208,4.2473 -5.0739,5.3979 l -2.8239,2.0919 -4.1761,-0.097 -4.1761,-0.097 -5.0592,-2.5728 c -5.5285,-2.8116 -12.3294,-7.9044 -22.5746,-16.9048 -3.6486,-3.2053 -7.1293,-5.8278 -7.7348,-5.8278 l -1.101,0 -32.0152,35.9984 -32.0152,35.99843 0,1.9668 0,1.9668 3,3.4168 c 1.65,1.8793 3,3.8502 3,4.3798 0,1.2017 -3.3358,4.2865 -4.5788,4.2343 -0.5067,-0.021 -5.8712,-4.5425 -11.9212,-10.047 z m 116.7557,-66.04283 1.9534,-2.6286 -1.7668,-3.7232 -1.7668,-3.7233 -11.4901,-9.8982 c -6.3195,-5.444 -11.8169,-9.8982 -12.2163,-9.8982 -0.3994,0 -2.8211,2.4522 -5.3817,5.4493 l -4.6555,5.4494 10.1079,8.8006 c 5.5594,4.8404 11.7622,9.8225 13.7841,11.0713 l 3.6761,2.2706 2.9011,-0.2706 2.9012,-0.2706 1.9534,-2.6285 z"
		/>
	</g>
</svg>
